<mxfile host="app.diagrams.net" modified="2021-06-10T00:38:04.983Z" agent="5.0 (Windows NT 10.0; Win64; x64) AppleWebKit/537.36 (KHTML, like Gecko) Chrome/91.0.4472.77 Safari/537.36" etag="yaBbU4UWY9CP816QPA1X" version="14.7.3" type="github">
  <diagram name="Page-1" id="82e54ff1-d628-8f03-85c4-9753963a91cd">
    <mxGraphModel dx="3555" dy="913" grid="1" gridSize="10" guides="1" tooltips="1" connect="1" arrows="1" fold="1" page="1" pageScale="1" pageWidth="1100" pageHeight="850" background="none" math="0" shadow="0">
      <root>
        <mxCell id="0" />
        <mxCell id="1" parent="0" />
        <mxCell id="0gYCooGfTWZDS5KERVEs-141" value="" style="rounded=1;whiteSpace=wrap;html=1;fontSize=20;strokeColor=#000000;fillColor=#FFFFFF;gradientColor=none;align=center;arcSize=4;" vertex="1" parent="1">
          <mxGeometry x="100" y="2600" width="920" height="725" as="geometry" />
        </mxCell>
        <mxCell id="0gYCooGfTWZDS5KERVEs-142" value="Datasets" style="text;strokeColor=none;fillColor=none;align=left;verticalAlign=top;spacingLeft=4;spacingRight=4;overflow=hidden;rotatable=0;points=[[0,0.5],[1,0.5]];portConstraint=eastwest;" vertex="1" parent="1">
          <mxGeometry x="205" y="2763.5" width="60" height="26" as="geometry" />
        </mxCell>
        <mxCell id="0gYCooGfTWZDS5KERVEs-143" value="cheXnet&amp;nbsp;&lt;br&gt;&lt;br&gt;Convolutional layers" style="rounded=1;whiteSpace=wrap;html=1;arcSize=24;shadow=0;comic=0;labelBackgroundColor=none;fontFamily=Verdana;fontSize=12;fontColor=#000000;align=center;fillColor=#DEDEDE;" vertex="1" parent="1">
          <mxGeometry x="500" y="2794.5" width="170" height="80" as="geometry" />
        </mxCell>
        <mxCell id="0gYCooGfTWZDS5KERVEs-144" value="R-CNN&lt;br&gt;&lt;br&gt;Object Detection layer" style="rounded=1;whiteSpace=wrap;html=1;arcSize=24;shadow=0;comic=0;labelBackgroundColor=none;fontFamily=Verdana;fontSize=12;fontColor=#000000;align=center;fillColor=#DEDEDE;" vertex="1" parent="1">
          <mxGeometry x="760" y="2862.5" width="170" height="80" as="geometry" />
        </mxCell>
        <mxCell id="0gYCooGfTWZDS5KERVEs-145" value="&lt;span style=&quot;font-family: &amp;#34;verdana&amp;#34; ; font-size: 18px&quot;&gt;Synthetic segments&lt;/span&gt;" style="shape=cylinder3;whiteSpace=wrap;html=1;boundedLbl=1;backgroundOutline=1;size=15;gradientColor=none;fillColor=#DEDEDE;" vertex="1" parent="1">
          <mxGeometry x="150" y="2789.5" width="170" height="90" as="geometry" />
        </mxCell>
        <mxCell id="0gYCooGfTWZDS5KERVEs-146" value="&lt;span style=&quot;font-family: &amp;#34;verdana&amp;#34; ; font-size: 18px&quot;&gt;Real&lt;/span&gt;&lt;br style=&quot;font-family: &amp;#34;verdana&amp;#34; ; font-size: 18px&quot;&gt;&lt;span style=&quot;font-family: &amp;#34;verdana&amp;#34; ; font-size: 18px&quot;&gt;segments&lt;/span&gt;" style="shape=cylinder3;whiteSpace=wrap;html=1;boundedLbl=1;backgroundOutline=1;size=15;gradientColor=none;fillColor=#DEDEDE;" vertex="1" parent="1">
          <mxGeometry x="150" y="2919.5" width="170" height="90" as="geometry" />
        </mxCell>
        <mxCell id="0gYCooGfTWZDS5KERVEs-147" value="&lt;span style=&quot;font-family: &amp;#34;verdana&amp;#34; ; font-size: 18px&quot;&gt;Angioplasties&lt;/span&gt;" style="shape=cylinder3;whiteSpace=wrap;html=1;boundedLbl=1;backgroundOutline=1;size=15;gradientColor=none;fillColor=#DEDEDE;" vertex="1" parent="1">
          <mxGeometry x="497.75" y="3082.5" width="170" height="90" as="geometry" />
        </mxCell>
        <mxCell id="0gYCooGfTWZDS5KERVEs-148" value="Transfer Learning" style="text;strokeColor=none;fillColor=none;align=left;verticalAlign=top;spacingLeft=4;spacingRight=4;overflow=hidden;rotatable=0;points=[[0,0.5],[1,0.5]];portConstraint=eastwest;" vertex="1" parent="1">
          <mxGeometry x="360" y="2812.5" width="110" height="26" as="geometry" />
        </mxCell>
        <mxCell id="0gYCooGfTWZDS5KERVEs-149" value="" style="edgeStyle=orthogonalEdgeStyle;rounded=0;orthogonalLoop=1;jettySize=auto;html=1;exitX=1;exitY=0.5;exitDx=0;exitDy=0;exitPerimeter=0;entryX=0;entryY=0.5;entryDx=0;entryDy=0;" edge="1" parent="1">
          <mxGeometry relative="1" as="geometry">
            <mxPoint x="320.0000000000002" y="2834.5" as="sourcePoint" />
            <mxPoint x="499.9999999999998" y="2834.5" as="targetPoint" />
            <Array as="points">
              <mxPoint x="370" y="2834.5" />
              <mxPoint x="370" y="2834.5" />
            </Array>
          </mxGeometry>
        </mxCell>
        <mxCell id="0gYCooGfTWZDS5KERVEs-150" value="" style="edgeStyle=orthogonalEdgeStyle;rounded=0;orthogonalLoop=1;jettySize=auto;html=1;exitX=1;exitY=0.5;exitDx=0;exitDy=0;exitPerimeter=0;entryX=0.549;entryY=0.985;entryDx=0;entryDy=0;entryPerimeter=0;" edge="1" parent="1" source="0gYCooGfTWZDS5KERVEs-146" target="0gYCooGfTWZDS5KERVEs-143">
          <mxGeometry relative="1" as="geometry">
            <mxPoint x="240.00000000000023" y="818.9099999999999" as="sourcePoint" />
            <mxPoint x="419.9999999999998" y="818.9099999999999" as="targetPoint" />
            <Array as="points">
              <mxPoint x="593" y="2964.5" />
            </Array>
          </mxGeometry>
        </mxCell>
        <mxCell id="0gYCooGfTWZDS5KERVEs-151" value="Fine tuning" style="text;strokeColor=none;fillColor=none;align=left;verticalAlign=top;spacingLeft=4;spacingRight=4;overflow=hidden;rotatable=0;points=[[0,0.5],[1,0.5]];portConstraint=eastwest;" vertex="1" parent="1">
          <mxGeometry x="360" y="2942.5" width="110" height="26" as="geometry" />
        </mxCell>
        <mxCell id="0gYCooGfTWZDS5KERVEs-152" value="" style="endArrow=none;dashed=1;html=1;dashPattern=1 3;strokeWidth=2;entryX=1;entryY=0.5;entryDx=0;entryDy=0;exitX=0.549;exitY=0.026;exitDx=0;exitDy=0;exitPerimeter=0;" edge="1" parent="1" source="0gYCooGfTWZDS5KERVEs-144" target="0gYCooGfTWZDS5KERVEs-143">
          <mxGeometry width="50" height="50" relative="1" as="geometry">
            <mxPoint x="950" y="680.5" as="sourcePoint" />
            <mxPoint x="619.9999999999998" y="680.5" as="targetPoint" />
            <Array as="points">
              <mxPoint x="853" y="2834.5" />
            </Array>
          </mxGeometry>
        </mxCell>
        <mxCell id="0gYCooGfTWZDS5KERVEs-153" value="" style="edgeStyle=orthogonalEdgeStyle;rounded=0;orthogonalLoop=1;jettySize=auto;html=1;exitX=1;exitY=0.5;exitDx=0;exitDy=0;exitPerimeter=0;entryX=0;entryY=0.5;entryDx=0;entryDy=0;" edge="1" parent="1" source="0gYCooGfTWZDS5KERVEs-147" target="0gYCooGfTWZDS5KERVEs-144">
          <mxGeometry relative="1" as="geometry">
            <mxPoint x="240.00000000000023" y="829.5" as="sourcePoint" />
            <mxPoint x="513.3299999999999" y="738.3000000000002" as="targetPoint" />
            <Array as="points">
              <mxPoint x="740" y="3127.5" />
              <mxPoint x="740" y="2902.5" />
            </Array>
          </mxGeometry>
        </mxCell>
        <mxCell id="0gYCooGfTWZDS5KERVEs-154" value="Retrain" style="text;strokeColor=none;fillColor=none;align=left;verticalAlign=top;spacingLeft=4;spacingRight=4;overflow=hidden;rotatable=0;points=[[0,0.5],[1,0.5]];portConstraint=eastwest;" vertex="1" parent="1">
          <mxGeometry x="680" y="3102.5" width="110" height="26" as="geometry" />
        </mxCell>
        <mxCell id="0gYCooGfTWZDS5KERVEs-155" value="Dense layer removal" style="text;strokeColor=none;fillColor=none;align=left;verticalAlign=top;spacingLeft=4;spacingRight=4;overflow=hidden;rotatable=0;points=[[0,0.5],[1,0.5]];portConstraint=eastwest;" vertex="1" parent="1">
          <mxGeometry x="710" y="2799.5" width="140" height="26" as="geometry" />
        </mxCell>
        <mxCell id="0gYCooGfTWZDS5KERVEs-156" value="Dataset" style="text;strokeColor=none;fillColor=none;align=left;verticalAlign=top;spacingLeft=4;spacingRight=4;overflow=hidden;rotatable=0;points=[[0,0.5],[1,0.5]];portConstraint=eastwest;" vertex="1" parent="1">
          <mxGeometry x="552.75" y="3052.5" width="60" height="26" as="geometry" />
        </mxCell>
        <mxCell id="0gYCooGfTWZDS5KERVEs-157" value="" style="shape=image;verticalLabelPosition=bottom;labelBackgroundColor=#ffffff;verticalAlign=top;aspect=fixed;imageAspect=0;image=data:image/png,iVBORw0KGgoAAAANSUhEUgAAAbwAAAEuCAYAAAD1HqeXAAAABHNCSVQICAgIfAhkiAAAAAlwSFlzAAALEgAACxIB0t1+/AAAADh0RVh0U29mdHdhcmUAbWF0cGxvdGxpYiB2ZXJzaW9uMy4yLjIsIGh0dHA6Ly9tYXRwbG90bGliLm9yZy+WH4yJAAAgAElEQVR4nOy9x24s23KuG5nlWIbkNGstGaghQM96O+e+hDr3tdQRtqQ1DV15k5mnUfxGfRmzJueGBJwD3M0ECJJVacYI88cfMUxWXdfF+/F+vB/vx/vxfvz//aj/bzfg/Xg/3o/34/14P/5PHO8B7/14P96P9+P9+Js43gPe+/F+vB/vx/vxN3G8B7z34/14P96P9+Nv4ngPeO/H+/F+vB/vx9/E8R7w3o/34/14P96Pv4lj+NaX/+//+n+6+/v7+P33P+Lu7i4iIqoqIqL64dyua6Ntu9gf9rHbbuN0OsXpdIr9/hCHwyGOx0NUVRV1XcdwOIzhcBQRXez35+9Op1O0bRej0TAiqjg1p2ibJgaDYUR0l++qKqLroq4HUdVVNKdTNG0bVVVFdBFt20RERNO0Udd1DIaDaJs2TqdjnE5NdF0bERFt20U9qGM0HEZdD17bf/nu1JxiNBzFZDKJuq7jvHyji6quo23aiOhez21jNBojhWi7LgZ1HVVVRVXVMRjU0TRtPD09xXa7iaZpYzAYxGw+i6qqouu6GA4GMRgMYjKZxGAwfG1jFcPhMOr6LDPk2b32PaqI6LrXz5s4Hg/nPg/qGNSDaNs2drtdtG0Th8Mx9vtdRESMx+M4nk5xPBxiMplEVVUxmdzEeDKOKqpo2zaa5hRNc77ucNhHPRjEeDSKqqqjbc9yGgwGr6roil7P9lFFPRhEdF1EVNF1bRyOxzgdTzEY1DGdTmM4GkXXdq99OcsW+2m7NqI767uuqxgMBtE0zauNdXFqmmibJurBIOqqKs84Hk9RVRFN20ZdVTEeT2I4HMZgMIi6rqJpmugizv9XVVRVVWzrsjKn69nCuV1dkXld11HXZxkNR6MYDYfx7du3+P79IY7HY4wn4+Bmk8kk5vNF3N7dRvNq21UVUVV1NM3pLK+qitPx+GoH5/4Nh4OzLZ/VG9Xr85pTE4PBQDY2KHbSNE2x3a5ry73Oejn3tW3P/nC23+ZiR2cJRHQRg0Fd2tm2ne517u9wMHz1rVPRedO0cTwdo4oqBsOz3g+HQ3RdvMrr7ANt10XbtDF47d9hf3htUxUX8V+WSFWvOqqqKk6nU1R1XfwKn8MvRqNh7A+HOB4Or/bbRtu10bVtdNhkdb62aU7Rvvqcn3W2w7MsjodDsY+ua6Npmjgej9FFxGg4fJX3GQ+apo3DYR8HPbvrXp8bZ/sdjYbF1y/+HTEajV7t7RVLujbapinYgU1W1RkzuQ6dXGyzfsWAYzTNKaKqYlAPYjgavtrJua2nUxP7wz6i62I4HEZVXXDt7CeDGAzqM7ZWUfxuMBhEVFXxt4g46+3Vx0+nYzSvmIgsq+qMvePRqGfL9SuGYLvnz6oeroxGo4I/xjXsox4MonrF3rbgyNmHqqqKLrr413/9/34MUvGLgPfp89/Hv/zLv8Q///M/x+fPn18d7vrRNE3s9/tYrVa9n91uF9vtNg6HQwyH58e1bRs3NzcxHA5js9nEdrs9N2Y4jNlsFvv92YCqqorRaBRd10XTNDEajV6NtnkValWCAG04Ho/l77NB1eX6s0E0BSDOzjgov8+KOZ/bdV1Mp9MYj8+OBaDgIF3XRfsaaMfjcRwOh/I8nPIc2Ifx+PgYq/U+BscuompiPp/H3d1dufZ0OsVsNiufNa9GT99x7LMTXtoZEbHf72O328XxeIzT6VT6cjgc4vHxMY7HYxyO64jq7CC7fRttG9G0g2i7YQwHw6jqcQyH0wIwx+Mx6qaJtttH2w1iOp0WObotDnRuEzKtqir2+/25n5NJ3NzcFL0jU2R2NvBDrNfrs4wB8Kiii4t+qrqNpr7oFkdp2v05CDdNjMfjmEwm5fdgMIjT6RQRZ5AZDAav4DMotsBnZ2A594NrrPvJZBJd18VkMon9fh9Ne9btuQ11sePp7CY+fjoTxTPhO76ShKrYTdd1sd/vS3AdDAYxHo/LM9El55hU0M62bXv+wn3tI8h38EqsjsdjIZ74C+fUgyhyMSHhXhERo3EtotLF8NUH6UNVH8t9h696qrsuYnh5TlVH1FVX+sT12AT9jIi4GdWlv/gL7S/9PkYMR8OzPXSHaI/HaNuq2GPTQl7OdtR2g0Iih8NhTCYXKDyejq8yaor8Tk0dx+MxdtH0ZNZ1Xex2x1guVz3fAJcGg0Hc3Nycg/wrBnLPyaQt9+Caw+EQdV33sOuME12xHRNAsCLbUV23EduzzfF527axWq1iv9/HeDzu2RpYNBqNYvga1DnwZ9sT14xGo9jvT7Hb7YouIZoRxxiP29Lns/2fA++5L03Prpqmi647xs3N4JVINHE6ncnvsKuibcHmUw938E/j18+ONwMegJ8diIcg3LZt43g8xmazKc632WxivV7Hfr/vKaNt29hsNvHy8lLufckYqh4AkfU0TVNAEmencxiAjcPKsiD4QYkAYXHUFKj4HuDh/oAKRgBQ2rC552azicfHx9i+Zr3T6TRub2+LgRGccBYUyX25F/eLOGdpyJwgPh6Pe0y+67pYr9fx/PwsA4wiL4Jp27ax3W5jt9vFcDgsYIPhjkajoqfdbveDrOz8Dgw4Sdd15R7WG6AKUUBPOLJJDDpBV1mXgB8BYzablbYgT5O1CyjUPeelvbY/B26eTfb87du3eHh4iMPhEDc3N8UORqNRTKfTmM/n0bZtAVbbnTNjBySAD1sgoF8yhMs5yMX+Q/vcJ/cR+7AvY4v7/b60BR8y0bLvoRdslPbjF2cgvARqAj46pN3YZO4ncqvrusiW9p9Op6KbiCjZlX2SftA/bNWywha4BzgHnmT/32w2V2VKoCD48Ez7j4ksJJq+8x3tRTf2e/4+nU498oSP4K8mKZnY4/MEU35HRLknwQ57x+/sY/YdrqE96M6+iwyQmckmfaLaRLshyqPRqIdpdV3H4XAo/cWO9vt9z79+drwZ8D5//tzrzLl8MOoBCc653W7j5eUl9vt9PD8/l8zNDmZhXMpzl0hNJgg4IjSYnQ3HKTAddsZ2YVGTGI1Gsd1uf3BknIfMkWucPQDoVgiKwMDoh50OI91sNrHZbEpQWywWxTlQ7v39fdzc3JQ+mcnTV0AHRkufaZ+zrtFoVJ65Wq1iMBjEfD6P0WgU9/f3JTvZ7XZFDhiSs076SjDEGXAEQAUwd4ZEMIPV0gdkiHGiEwwfW8GoCe4GGYMdxk3WcnNzU/qHXJzFGwT67PICViZnOShgG8vlsti5SRSZ5Xw+j8ViUYIBbNqZUUQUh6YfDmS00TI1EaLN9ANiiH2gP3RjssPfDiSAm+9rfRP4bd/H15IsfmiywGf0m79zBmnAth/Snv1+XzL14/EYh8MhptPpD8EDkEZW+MRwOOyRRNstckJGBG7wZzQancuZCqb0KxNry7Jt22IHtHGxWPQIk6/hc2wNfbnaYJyyTpF5xkDuhSzrui5yANdHo/OwjTEdO9rtdqUtZHCTyaQXaDabTTmfNuFDTkaQPaQUEsThtiN3+4OJtf2UwMjhvl873gx43BzjtfNbyW3bxuFwKJkCQGfl23lt8AgYZaMY2BUMwU7sYOWyAcY+mUzKORiljQejcWkgC8rs6poz5yCOovhuv9/HcrmM5XJZjIWgQxmlKOHVeGgzBllVVSyXyxiPxzGdTosBOMjxP/1zlmYWeXd3V4ItzxyNRqXcBgiYLTsTo1+ZjSMPZ+YERoOHyYFtwqDJc60nEys7k7M8B0ECNE6YM0KDMLaUn+VxQ8DfQbpt23h8fIzn5+ciO9vVeDyO29vbAmwmKwRg35d2uH342/F47JVZkRGg4YBtOTjDyjI1sF6TL0ECHeF/tqkcVGiDdYq9EIicEZWSZwrs2HQmn5AwgN9lN1eZIs7ZGgHFJK2qqlIxMv6YsJmUcX9nhugKHXAeY/1UXJzBOyt1u40ByNyExe2grbYBkyf6ToXJGdd+vy+kyz4KgeNciDh2RcnbNmuM4m8Cp9sMYTWxdJu5luegR/uREwz6iUyRSw7otP9nx5sBb7PZxP39fY95OdhFRDHI9XqtSQJ1L813oCKl5kCICB7DMzM0GBLE+J6sjwyUrIfn8UwDBoLC+BCgmdVgMIjFYhGz2SwGg0Gs1+uSsXIOrCTLJCJKdrXdbqOqqpjP58WAyEJ2u10xFAdkZ3/uG881O8zlDPqAPDHU0WgUt7e3pQzKfWezWTEY7r1arXpBFAKSxy7422ND2fBubm562TDtNjNz1m/WbLaOTJxNW188E6A1aYIE+V44lrN8Z5rYByBHe7AFqhnIHrsfDofx8ePH+PDhw+ukobanQ/rqrCHbXq4u0F4CD33MmQAypvRsPbm05YztWsB3f836+cw4kEmQxxaRafZB/N8kxfemjdyT5wPU2ImBzuQO+6YtEEx831UTE9ksTxN8kzz/uAIFgTShoLLD/fjeurHd3tzcFHlNp9NeOdz9wn5MJLAPl42RgTNx5MS1fJfHrI2PLtlDtuwbnM9BG7BhMInkiMOYb5kQZCE66MB4DT5anu7jtePNgAdQwqByOsln6/U6VqtVj9lQwjFQI0hYFueORqMeQMPsXNbMrNROZ+M2iFH28fl2Mga9nRW5PYzJOXMCTCLOzj6dTn8ocdixYD9WmAfgZ7NZMeZcpnP6j3ORkTlDdQZOoPIANE52c3PTGyeYzWa9sZSqqmI6nWrGWfODgQEu/DgYuX6OHD047vKYr7uWfWEvAIadApAziDogGrjyWJQ/x34crMz2XV3wc758+RJPT0+lJGx5TKfTuLu7KwSAoOvnIV9nZIznAn55TM5AzDWAuYmRMzoHDusF/+B/bMn+YT3Y3q8FUD8fHdnecyBxKZFqCHaRwSoPbWAj2Dd+TvvQJ31xqd8kzm3zeLYzCOyANkdEj6DmPoJ7dV3HZrPpnZfJhDMc6yiXWrFL8Mq/Hdist0yG7G+0lxKo8YiqHHZBkKJNHt5CvuiDAOVs39mpMz9kDs4zfopdZRs0Rjir87AY/Taxvna8GfBIzxFAfjhCp2xnkHcm5szA7NvKMvgwhpcZhLNFDgQNOAImg8GgZGdmMU7HLSC+J0iYeTjwY2wEyDzhAkbGhB36TZZxc3NTMsPffvstptNpUaKNMiJKoLABYhRZJ5YJwHB/f1/AgMlDLo8gC2dVOAiMjv5QJiEA2PABEwyR9mHUzgDpH+dw1HVdsjDKKLQdpzMB4FxPBoEMwGzdBo930l7uZxADJJEj8sAJn5+f4+XlpZSSaS9jxff3971xR5wZB7WcsWUAF1AxMFOKMnBjx8fjsdgr19gGbBMmis6QbS/ZLgz2mVDyXc6E/Nsgj/wYg+Nw9udSpsEdOXMvCI/7leVjP3GpEb24CoHt7Ha7UjEyyeS8prlMpjApRU88azQaxXw+LyXl6XRa7MQZFjadZUgQyGVvSBF2bTln8sYzjOEmw9n/HXSRD5UPiIUDMeN+mQRb3xlPM0FwVo1+HRcYArCuCd7WEd/lWHXteDPgYZgOFAiLBwIi8/m8BBw7A+kwHaCkxnfXHNYGZlbiIGu2lx3TSsqlHPpkdsczCEiAqh3LSwQMFiiY8yMinp+f4/n5uWQntNvPur+/7/1PUMTozKo5XLry/wR7QAJ53N7e9jLdl5eXYnyZXTpDm06nBejX63UB92z8BBN+6CekYzab9ZYBoKPNZtMDQTt/dhquN+jyN3p1cHA2Y6ZL5oQu7SDc0yVZl5Zwuqqq4uXlpdivwZnB/NlsFpPJpCzJQY8GHspCeeJWzog4F99z0HG/8UeXPB0gbEfch/8zETSZMjPHF7ExfIjzCTiAMjZJW2k7wYXs2UGJa7iHMwSzfX5cOXFGR5/sny5jGr9cxnOG7+UyVVWVeQE5mzVh4Z7YMrOFsTv64AyddrtEyTkGf/s4z6Af6ILrIPQ5YwbXqBTZD4xt3Ae9cjAbGR+nrdYX1xKcmGzkIOVAZn1iB/YT+oavg/8kWMZl2vzfXpaQoyegx2d8z6w4ghadJaDRKN/LBuLfzvYAGzNPnoGymGVkBoSgPMsLgycI+VwciqnkBGgHXgdTDsDOgXqz2cSff/4Zq9WqtMOL12Hseb2V5ZLHPu0MZvgYEvd1acKfLRaL4qyeAYuxQkQchNwOg4Xbwo+DFUDgDNkOBKjmrJ/7e/0RZV6XqEwAXMN3SZh+8R332O/3P0yKMHCZpGGr9Hc4HMZ+v4/v37+Xcqazdk+k2G63sVwue33P4yu2dUDKZRkHIACMNiPXXI5Gx2bdzuAzebIc7fMmlOgXGSIzZGmwygBlJo8PkVWT/fC9ZRBxAS1khD6to5zZ4N88n366D/Qx22/OODLuGL94voOty6DGB4JZJrU+B9mRQDjjMzE16fhZ5S2inzXzLI+97ff7UgUZj8dFNyZa/k3bPSOW5xEXXGkxSYHAgFcmudnnsFWwFvw2seV5+B/VFfro+HHteDPg0UEa5AwEo2TdHdP+cRKXvNx5nJJgk7MWGyF/I1CMATZN4LAjY3wIdrfbxWaz6a0hY50UBscPQfAauyTYMQ5mZoqyttttPDw8xPPzc+n7zc1NzGazwoqQq/tvp3WJg3s7iJG1ujzCb7eLYzKZxGKxuCzoFniQbXsyhVku/1/LMrvuMvEk6472O5hDPOq6LhmkM6xcmjKgnU6nMiPOBw7nSSbYJ4HTbJ9skWu67rxW0eUY9OLF3NjA9+/f4/n5uRAHnA1bn8/nUVVVmahkJ2URvEkkhwOjJxSZGOaxLHThjM3AzGH/zf6Vg5iDV9aD74u//iwjwTbN+g2QBmIDFM9DZlQTnEVZdgZ1T1Zz27CpTMBM7rAxy5L7UoLlvlzDPb2sxLbP/w7q+C9BCxkhF1cd8B/uZx26CuBqjYMwWIAskGvbtj1Cz3nGeu5hGRs3chbo5WImdCYwYBiYAh5iDybetJHD5N9YwbU5S3/rePNbl0hozM3NTSkdMDV7s9n0aujOLjCk/X4fm82mOIOd3wozAHsMLCLi5uamOCkTPuyoZH44isuhngadFYhDOY03u+Z7zqE8Rf+6rovtdhv/8R//EQ8PD7Hf70tbs5ONx+OSEdjxcSgbvFmmDRn50Vba5+wPZuQgzjpHM2rYFGMOdr7BYFDWBzLjkEDHMzE8nA3Z8AyP3TgTNqGxE7tC4GDmcTXkwbNNGriO8kvOFPhxxsXzXAbnGWQzy+Uyvn79WvrhzJos7+7urgRd9APRM0Gx3QM2tgPA1EEmE09k64kz3NtZes5OTIqcfaEDtxP9GOgLcKgywrkuq+X2I3+PT/r5bhO/CZ6AtcmL7+/7WV7oCdsCaLEX2pMDvjNc8OZ0Oq81NlYw/mu90QaPm/G98cSVCwdw/JI+GsNyVum+m/xAxrhfJgqWifWMPCB92Ff2HUgQNuBlUCQZVPe8rMEJDAef2ebAG0/OcZtIViDQtkOXWq8dbwa89XpdghRATcPW63V8//49drtdrNfrwmIBEgaBUdZutytrkriPgyOCdaBB6RiYMwA7kZVNGc5LBjxOaGdy+chGQJsGg0EvK6uqqixPcMAYDAbx8vIS3759i91uF9PpNBaLRW/izWazibqu4/b2Nubz+Q9Tbc3wbMQutZiRm3VnB9rtdmX7IGQwn89ju90WB6c//GbmbC4Nck8bmQewOTyzEKdCjgSgiCj1d/fHwOxn8xw+85ghzudyes4K2d3GYwi53IcOGFciY3NQOxwOsVwuyyJbAxBbwn369KlM9OHensEJAOZ+YtMQD69Rw9coQWWQtn37c8sPezepNHCa3F3LBG17DihkNbTLJMZlK+5lcoWd2cZZN5jbgIw80cX2hm25NOhxPIKXSRxAnCsMtg/3B/DGrnmmN8kAY5CR748Mc6ZoHaEDZ7LozrbgpCJn3g7clI299MmkwFUNBz4yXHQ+nU5Ldexau9ChsQ4bmEwmvXKnA6uvReYenvI432QyiclkUvpAlY1KCj6E/JDVtePNgGdHzOk/a8wwXLIWMzM6s16vixN7sSYGy/o2ZwXODsxuXfZwQCXYEqBJbREYg62AJP0zczVjNCukLXmcC+PfbDbx7du3OJ1OheVPp9MSfL0Wbzab9RzQz6QEiIHQdwKvs8DMaJ0xQSpgnRguffTkDVgak1OyjpxNuJ6OsZa9Ml8Xx0MgHHDMwDyeZOBlLMFrz/ic0qtnM3rnEsgM7fXMW0DZjsj5zu5cwuM8yABkjaqB7WoymcSnT5/i999/L2VbbAvdDofDMshuUHCJCnk4o8UnsBPaZ+Z7DUiwLZ+Lbbk0xHkefzERQBb+IbA6GCIPE1b30eTVvh9xXutrgMo+ga8S1Oyv2JcDK4dJh9vIffN5llkmwnksqaqqsskGcqViZZJh37QvOSs0DvA8jtwuE2MTEAK1q2zogYkuHhc2YeQ5+AukIC9v4jkE+svG85OendiOjCc8OwcjZ9s8Iw9H0L+cPbtCYkx6q6z5ZsBzxkSHCCqbzaaX2tMpT6clMMIQKI/llNadRpkuL/GDYfC5QYz7WsEIiuy0rvszRlE8Qc11b4RLlsT5XM8sxf1+H1+/fo3VahWj0agshTBYdl0Xi8Ui7u/viyJRrp3b7M2s3YzI5R3rCVlgABHRy1poF9kpTI72uJTqthFoDLzIxWVj75u42+16M9QMsM4KzDANXICCxxisKwdDzqddOKIdxP1BzyYNnliV7eV0OpWsnvZjI8zovb29LSDhZ5oA5qCLPiOiF2RwaAdD2unxGBMFyy8PLRjcAUWzcXSPHXhWrQMl1/u3qyQOHA5IDhIcJrGQKQ6PaaFnSusOus5IM/nN2IJduO3o/RoZc+DEJjw7EsJFm4x79mfGodCJy7omDK5wmGy4/9mW7YsOMFxvkmifzkTT5W9s33on6eF6y4jvuu4yryJny26fJ+PZ/7NNu6RMtQ5Mtw25P5axl3Pl482AhzGylx212dVqVUCcqM8EFgAeI/DsHy9HcKaRAcDKxBBdqvFsHFgGGQLA4LpyRJQ97XgWk0nyjEWyMTuDA6H7UNfnBaZPT09xOp3KmjqzbUDw7u6uTG12XwFKSg95RufhcCjlWTM+O3IeT+H+GCXZSUS/hJLHv7iHSyU8i3JbLmFYt+ibwI/u7IhmubSP5/CbEgxOg2MiH8gHMjEjB6w9+cAZBUzd9sECeY97RpwJw8vLS29XFQcpxpHJwC07gzgO7DEPwIIAhJz92xUOnumM+Vpp0ucDovixs7Z8rg9nze6TgcrX50wEO0Gmtkv0y7pQ9z231xUgr5fMxAmbO51OvcDjDArZo0MCin0ZApcXl2PHtI17ewkGux9h48zUdVaa94tEXujGRAOZ56qDl3JYZlxvP8ZHc6UO3LEtmzB7px6IBzZu4gm+mYRzD2SJD2P/1rHt0LjpTJPzudYT7rAv9GP/+dnxy0krrocDaLCHtr2spWFCBA5utumZTHzvVB7h2tkw9mvTk103t+FjdHYup/5O6w0CdmYCBEwBZRBcAcWuO5cBv3z5UjYQ5t7Xssv5fF6Mkd8OqCgbBXryjp3VZSkyE64HlM34q+o86YLyM/2FvFgHNhQchL9zRlbXdVlnh0xwLLI7OylLQ7gH/bTD8Zv7IAMcDkM3+3TAQ8cEn8w4HSAsSwNf111mxO52u3h5eSnrBpEV92Oyj0kQ37lveearS9b0C39x9mOfMLDljJDs2pPEzOTJerFP25+f55It55ilG+zxa2wVHeHjyNDlLGcrzngcmBw4XRIz0Jo0QrT4P1eD8JOMCxDyXDXIOJEDHm1HH74uj6WaODrwcg3+YX3jox6ScZbNwT1cFUEG9NEBJmf9Tkpo97XZrbZV68dEzTOIXUJ2X2wDVMxoZyaExh4TajCZoYPsNwTdzWYTPzt+OYa3Wq3i06dPJYsik/PrGBAmxm3n5hwbg69DuCjMIIwCJ5NJb3d0xoq88BSQMyPCSHFkK562WMgO5nnbLTsl/3/79i3+/PPPUur0OCH9GY/PO6ZjYHxuOeGUKN9ZkR3HDo2jeGzP2ZKzOgcO5Lvf74sBOSuCIXOQiZn8GCyqqirjlRjidrstwcBsjhILjk02a0fAGU2qaE+egWUQJODzbkV0gLw9ocMZuDNpAgM2/vT0VDYQgPBFnF+bNZvN4sOHD6Xf3MuEiGc4kNrOPTYccZmubXt2yRD78BpOAo8B0IGXpTTH47HIJo9r2c7pB7Zrkhrx46to3HZXbtCj+4oNO3DTZ/Rjv81Aj/260kJfHHjwD9qUhwWwD35nvyJTBHuwD+uSZ5OFIINrOjOeMZkkZ0O0x2BPW2zzOcvMGY3xDRwBa/HljIPX5jKYJFoXtgdnge4D9ugM0YTLZIRr8rBEHrtGr+AWfYHw8EwH6WvHmwFvu93Gx48fy/6AXdfF8/NzAU9PWCEYMmkkMwOntjY8jIMAZvbt9XYA5Ww2i/l83ssAPeU9g8c1VsMzHQAi+mucnFL7PjCfb9++xX/+53/GdruN29vbXrkAwBoOLztwYCDcg1msGDXA7vtko6YPGKbHVAhGlKDzkg6PWxHo9/t9KRNyADx5HMeBJ5MSDPrm5ibW63WvvOONZs1k0edo1N9LDwf0OKeDJMQns0ocBRngbDkIuE++t0tlEZet2AADj6PMZrMyE5dASPupekAeKLfZrtGBgxj6RlY4sG2Tw2Mn7huA7bZEXIATn+E6EzODpvuKrfpe2KGB2EGTZzDM4OzXzzGYcg+XLT3+hC2gP0rb3qA7+zPYZFKI/JxxeKcUg6gB3/f8WdbnA1mjDwcVj8VmMsuRcQeZ2J8Jfh5Lx36wHfudfcPVKFduOMB2V9vQEc+2TSJH204uQUdED2sgFu6vCaErGbTBCYirRfQ7E/Z8/HIvTYywrut4fHyMx8fHYgykkLBXmLEzplyWc5rvewO8bLqKsj2BxAaJMdr4rHDPxLQizcK9ds0gijH4pZ922sfHx/jLX/5SdlMBEAl0lDLZZujn23QAACAASURBVIr7Goho/zXDdhnA7DOinxkjG4zPOylAGDg8McEDu9cCBLJ2WYWA6fu5zMU1o9GoLPav67psoYZzmvHZDghyyHk2m8XT01OZjkz7eV4OlgQWMi4CEboHfF3iQZ7oDvkApLzeyfbL2O9isYi6rsuYbwZBA4vXLULQ+N+BA7t0sMFeTJiuycwZhYlJRBQC4jYxHuMsmkDrfmCn2K//NtjbTjnH5VoHSfST/c0TIkyI6QN4QZ9dZXL2yDmApkvD4A/vi2SJlP0cgPXMWmzEgdiZB+DtLBWfcOXFVRLaZNk5SzVBth6MC5kwXLvWtt22/ZmvbduWMde6Ps/m9tAHesB2mLzFZ9itsYgAnGcI2+fxEZ7tbegckF1BRIaQeuMBPnqtwujjr9pL83A4lPEqylXOQpha7BKNxyPsSBEXZ6rry8JoFI+QKEkAyBgZs3booBkqGQUDm54xaiVxnkuiZJnr9boAgo3Nwerh4SHati2ZJqyHDLeqqlL28t6jyCsHJ9iR15N57SCO5HEqz7TDeOinv4dZWv44jw3e2SxZrFmiA5u3CrIjYmjIcbvdljKvWSjPtIMji4jLhtyQIAMEAZOATokoBxwTHQdJg1bTNAVIvdMEe6G+vLyU114hB0qZs9msl4kyq9Ogfo3AXBsLIljTfjs38oV0eFzZdoW8bGf0d7Va9YYbsBeA0ePgHvx3sOIAvDwZBeLrNVAed+Zv+6KrFc6EeLbbmsf1nGGAL4wjuiToDNqlNIITBM0E2oEEG0JWuZxnosfzciXEOs244mzGNu0yr4OF7dvZsokJ5zkzw8ZzZYjn00fL1PqlveC6+219YwsmlbQhEy23ua7rghOeDOPxQk9MBDNpA7adJ0FeO94MeLAoAgdjEDSch2EEKNHsyQOiGDEOMBye16uZhTEe5MbD3DE6p80YDO1yvR7j8/56vp+DGQbONmSch6Jov0EQJUScGSjjJHd3d2UM0A5uBm9mzv0JeGQ1yBVAcMbNdw4GHLAmAl9ElEkrTLLAoGFKbO3jUqEBw+w5GxWGS+B3sHbgtAOhS7734lIOFqHiYM6WTWKc2TkgkikCKGareewWPT88PMTDw0OpNEAGIDGLxaK3ppGp6bSH9noiBec52PADIaFPgIQBxwSRz8gUDcL00/oykAH0Bj/OAzS8XRzAZCbtUrNxApn6nta9gzzDH/SRGXe+F/1yAHagcwDw+LRn+BIs8C0CGATTpT6PSTqAe2kJfQBjTC5M/LAxlwpdvXBw53rs2BOtbLfOfPL1DmQED+SWy4DoBdm4/6500Cb7mis87o9tlHMdNEkGMm7nLJdrnPDQjqw/nhlxWedqwvSz45cBD0EA6F6zxAMYZOSwQToSY2gYPAo2y2PtCpkSk1Ts7AgGI/GYh9uAA1Pnt5EbaPifPnKuGU9VVWXWHgHKTDzispD98+fPcX9/3ytz8ByPpdEXO4rLAJlB4gQet3SZw6UknkVbvX0VwYFnebpx13U9RpjLGi4x2FCRGW/6hizxt8dUbV+ZFaMLB9vcPuRDNoxjODPh8BgKZIH+5LLTer2Oh4eH2G63vWwTZ2ViEgGNZ5touYTk52DfGYQMOvxPu5GdM3H6RkDF11i+krND68/3d9kLXV8DCwcW26Btztmg5WAZuArg4EjWmglMDq7uBzN+kVPusycouarg2dRcB2mkfOlg6a0Hs/w8ecgyAtNMWHPJ1T+c5x1+uM525GyaAOgtxLJenQlR9cIOHVRsZ9gASQ4+wx6xxmAHOOzHxBGcgiRbhtf6Rdu4xkGPg/Z4WMfj2Rz+Ox+/XIcXcQ4+7MQBw8dxCUqTySSWy2V5WzaMBAcwA4M1OUg6+ERcZojB6pl1mMsvOIWNhB++Nzg72HBNxGUXgaq67B5Af+u6LrupLJfLImwP5uOEHz58iI8fP/bKFJyfFZXLLDmIGDTIwjASZED7kbfHOWDzzhwACu5l5mwQ9GQbSj8OKp5IAjhxnbN9t83ExM6CsbftZQGxxwSwm4jLuLL7aYCzDNEp5WuDJvfFJo7HYzw8PMTT01OPTXJg49YHpANbzWVGt8nkyTPKsEG+s7NHxA8gxWFgQ4YO0g7ydd3fmssZg8tZfOdg7JK9y5vOZGk77bIekEueRAZ25IDC36fTqUyq4n4OfGSI2ILbRsbojM3ZBu0xgcCunVUgcxM8227EZXaqfd2EHzkaT0xoc6ZHW93fa8/m/rnSAibU9WWTdgc1fJRzqcRga55BilxoT36+bdrEPVcsTNwdOLMtWbfGGg852L9cUTFB+h+VNBm/Y+Adg/IMNpfhOM9MASbBejSuAcTrui6zrrjWZUeM37VhhMaiVO5l9uLBcQw+l0t4pp+ba8yUMgl2OAVZDH/PZrP4/PlzARCPaSAPAsk1JudAjqOYjQI67PbCdWTZGAQgACjb6Qx2XdfFarW6OuXa08RzhumMIBsrIEdpejqdFgfje/QDAFnHZvUAEu3wBCETJGejDgz0w+2mzXlaM/uPutRMaXs+n8disYj5fN4rs/I8l5ucmWPX9gsygAy0gIft1zJ2lYDPXOrjeZAwshZKxQYNV0IMhgYgl0jxeQc1B5+u68rGCW6nyZ5xgCwM4HfJu6qqUmbnh++4L0Grqi5rbz1G7Vnitn0Tvxw00F3OxrAbDpMxA7qzWbAFXwAznA1F/Pi+UfrHc67py0MxDowmEB5LR5fYtf3GRBesYHccxqRdTjceIDswzqSJ9hvT6bftw4Er4wJ2YXt3IDNhhlRho5ZXPv6q9+FhNAjTJT+zvIjzGBz7rWHk7HICYMCwSOM9+YFMidImBo3hwThpg9Njjw2SLdDGDNZWtCdUOG3HKJ+fn+Ph4aGX4WYjres67u7uytuNabPv5XECmFbOODNbBPitExudwZ8+kqXaGXAOz9ByH9Ed9wbIHXCQecR5TBDnQ88QC0qbvBncuuJ7yjEACHoic6PsijG37XnceD6fFwAisLokiqz8vjXAlQDqcjXBjjd/dN1lhxCeMZlMig1HXKobHmCn/SZT2BU2Yts16+V8HD0HQ2wUMuDrDQj4IjLmLewGXJ5jf/FCXQczs3MHWJ5F+x1s+IxnUeZjWCSDmCsdedzOckMXLg8jf49lZ/Dnvh6DctaaJ4jYX3MGiK26j5TTPFHMRJq2E/wgMi5x2zeoAHgMl+fnzMn4Qn/8PT8ue4KLJuLI2bqhzSYC/O9A68lx2IzPBzuozLjakPHLBI+SMW3KwzKWBc/3GtyfHW8GPLZN8gAo4JHHieg8zBhnM9u3Mbo0xL38Off1FFmzADptY7XC7Ph85np/diorHUU1TROr1Sq+fPlSxrUiLpMkYKMR563L2DgahSF8G5BniNmgDRKWgQeyI6JXZrXsXTa04zrbwbHINggu6Niv5IAls8jfuuNwYM/OXdfnLehYKJpLT4CUHZd2GFQ5H2ZonWIDdgJYpct6BHo7MLa82Wzi8fGxBGcDNWN27CiD3Xgc1hOsDIDO4F3eBZRsH8xIM6vPQcUZMYfJGj+uFFBCRufIF10ZlFzqg+0784q4BEP+N8A6GHJ4TCcifqgauESWy6K26YhL6ZANozO5tT97Upfb6fvTN/uQ+8E5nrLvQHOt+uHMEMKe+wkpgfCbrNj2CBJ+LjZuMmofz4TBZWtXQPjM14Jjrg7l8i0+b3unfGx85RrPSHUA9/gpz/RzmHTDDkd8byLjRIdxPOv1Z8ebAS+/sJIfOk2NHZZNYwl2FiiG5nEcgCCzXm8bY/C/Vi4xwNO2zWZTHIPxG7NBl0n4uTZA3rZt2fwaI/MP7WCqei4zZpbK+d6rMYOPdz6x05NFmyGStaBojwvl6b8uw3hd3OFwKK8AoaSHDMjE0Av3R36UsofDYa8v1hlkxBkgMmmapmScNmz0P51OSyZIqY4xOaoBtjEHGuzCDNAsl3vxCqycaUyn07i5uYnb29veWyDQgceIaLsJUM74sP8Maixwxy8McB6jQNcZCL1Lf86eqKAgKzJxA55JJ/qlfwYp2kM/rgU2dAWg5RKUZ3HmMWi3B/1ZVyauECZnbgQZANBVErfBz3LmzFiWSYNthiOXzHL2Y0B2AOTw8ITlYR+hfwRH+g9OeDKK24YsTXytW/7mGpMa+kkmhTyMwU5EOLfrLpPcXNZ0RYDMmOeaxCBL1tRiS3V9HoP0HALHBPDIz0IH+OC145dbi7HnopkjTgAgZcOFJZDNoFwbubNEswMzEjPfzAozoFFGYFkBArVR2vBcAuI5njnGd2xwi8F54kJExGKxiMVi0cuEzTRwQO7BrjRd1/VeKInjEQzJ7pApzuBAwv1txIAWTmJHs+wATpfNnFHbMK9l3zgfRmv9EQBphwMNjudF4RFRzjfAezkKurFjIdsMdujTrNGz5ZDpbrcrr7mirS5ZUZrl3s5oOJCf7Qwbpy11XRfGj34cJPjcQPkzsCYoIhcvS7GOTILqui7vYGyaJqbTaa+khS69Jg2dGvCxHWfY9NXjXOCF+2Oy7P/RKf4GKDsAAr4GP/rmvmPTEDFPJsImaF/Oik1y3TaXEh0wcraNvdEf+60JtX3IhMb+5mvxFcgRsvP42LVhjexHmeDk7Mq2CJm1bTiL5l5+s4L7kX3FmTHf80NccNsc2MiCnaDQJpdqPcnNtpiPX+60QgbAIKZTegwCcCbo5CzKqa4DSMRlESdCs6AABtgtJSjX77kPky8w7LzDiWvMriObUfL6IsAP5o9hEITp/2QyicViUQAgMw8Mj2D5sz0QbRgGCyvQTuGyq1mXA7bBBFkOBpe3njtY5tKRSQblF2TozbsNuOiatnE9WaTLjIAUgGRmaoM1UFm+Ls8hRwdsT212cPVar5eXl3h8fCyvuoLM0A5KThHRI1AwyOwHOLBBET06M8klOvSWSVKukOBT2KrlY2JIMPRMO5dJbYfcy+TTPsPBtQCcN3aIuFSCIFmutmBPzkrBFmQAwNI22L6rS9gfevLSBOuFZzp4WI7uK8sUsqxdbTEBybIyBjow5qqM7ddVH2SMX+ErfqZlZsJqmRhvs/6M2dyX35xL39Cdz8mZNviIjNFvzhJdBXA/6YMrTtyT9ht/wE6fg66cbdvfbd/5+OXbElgH9+HDh6JUDJ6XIJpVOhJnp6ejDnYIC9bhTY3Nuo/HY6xWq5KJeQsvMkkcCedyCSALyQwWQZspPD09lUFQ2kz7KSewuNwOYUPFUAAhQNqHAxbgb2bvIOlg54BopmfSQIB2OcxlBIiD2TNygpxwDvpxVm7HwSC5by5Xkr0ix6wLT4Iy284ZFG3wGk5XHiwHg7ABeL1ex+PjY9n300yTPvM6J49DuFREPw0k/syzmmkL1/K5Adt9NDC6L5lkrlarXsD3ODO+cS1IumxEuzxRh2s8A5WD65y9Y1PocTAYFLleI3E802SAfjhoZCwZjUa9NZIcBluP2xnsXTWynAnWkGUCqgkEbfDMUsvJPsDhjC9XR65lugZ+gN6ZDveJiB7RcGB1sEBeThyyn3pMDD3kLfj4HNv3dfSdw75Le+k7tu+qnLNkVxyyffA84ytE23HFlcOfHW8GPI7RaBTz+byAsiO4WT4PxPDMLOw4BLYcGOg8jDAiSilouVzGaDSKu7u7cg+c10sWPM7gAEw/KIkxucaTChi7YaeYa+sFKSdQmnR5z+cC8IC6d6Shj97VwobHZ2ZaNj6c2c8mOEf8+H4rj5t53ZQdnaDOchOch2nKlgU64RneOYO+u6TqcSNYJN8ZpA0cgKfZPrbiEg19Qee0m7bkMcjD4RDfvn2L5+fnHvN2+yiHIUfbh0tUlpMZtXXoCoHHXwwGBoCc2TgQoifkjhyqqr9xMoCV5WA7o8+ACWDuZ7ov+I/HCR2EbZu+JgfXHDByBpWfif34/s4gnZUxc9jZNgfrQwnM9Adyhi95KUz2J2dxBnqDc0T0dJgzJgc/7NWBymV3T84xWaIS5coP/XVfOLAJ44EDDEttTMaxSQ8z8Bzvf0nlDzkgYxM1gq5t2IeJgv2R/z1Jx2XsHFizzq8dv9xLk2wJMMRweSh/ux7Ng50SO9tiggRrhFx+cckHBcPqYKGUWl3O4VqM2I7DGAxKAegZM6CcwAQc9xPlmumMRqOyMTTrjww6lFOpP1uBGAU/eRYmfccAkatZlcmEZ6s5m8YgzKRggzDZiP67zDzOagc5Hi877JDVOoPxGrMMKtzXzN5jNNfKOAY3nMVBJY/HUSaH+fHjMdzj8Vi2hWOiCpknGRID9nd3d71dNgAJv00922zO1PEL2mHgt2PCzNGXg4pBy4Gc6zPRyEtmHJQcNBzcKX/63Mz6DfYAkH0C4pdLnbTH1zL24skt9l9k5TFOyKHHQ/PbQJzp2hY5x3bL+dgSfTExy5lhJim2xezf9NelTgcPdGC/RrcQI+SWgyztMJlCtlmmxoNcifDhKsput/sB343xVG7wSxIDDjATv/bEF/wfzKJtrky5jyYe1ypbPI+++zk/O345acVsEKFjgEy6QGg2Pkd4MgJmisFOuI5nOaDgWAQmlL/ZbIpxeDErQnIZx8yRZyEc1gTN5/NyPtnEarXqZaa0L+IMPAAimYqZdk7HbZAGdjsoLMuGSimNgMjejr4f93SZL88488QPrxfzrESXGcnmKSFvt9seu3Qwc2bl7MLB00DqoAwA8Bv5uz0Yuu0pl5rQM+1hohEzFJHP8/NzPD09ldnFZMQ4MOXW6XQanz9/7pWwnG273NO2l40P7JwGeHSMTNwngCRXGZzpIVPbFYcDIoGE/hh4vYwlZ9EOmrZJzsklTFdNDP6Wk+3F2Rh9z3rnbwioGb/Lic5ADIT2G0ikAb6qzsMvHqKgbdiPiYHl6vbkSpQnXOQ+XusDbfX9TPC4jxMIrqcC4w3xTXzsH+jayUlVXSa6eKKTs3wHoWzPJiHYkPuNTl3mByuwJ+6Jn9OXXLHhGuvB2Id/gPUmIJb7teOXk1ZyiYEBfMDeivJEBhsMQYYyn2v+GLLHSlxW8R6BLs251GdDNTPPQuAzFMzyCQyCnQYI5HZi2BPT1F0qcm3bTsZB221o/M5vSMBwYXq0oaqqkskgNwdGFG+wNfsBaABOT/Axy+Icdi/3zh2Ugembxy3M0GiLnYnJLsgig0OeUUo2j/F33WWWmjNbgpJtFfny+Wq1ioeHh1JOdBkX+bLmjpfWumKBHdsRneXyLAcZzrOs0Cu6cSbtfgJudnJnliahJnuMbZv8+VmuLgCEnh2LPV0bT6GNnpFJW826LQeekzNal8SdSaFPB9mcqYAJuRKBnbmkZZvOpIrn5KzcPuA2mmRycJ3LrBA+Z03GBN8rlxY9kcmZP3gKecmlRgcHSK1Ll8ZDl0+xS55lHWbsot0cORtzW5B313U9MuhExBmag5Sv9zVc53kfjhee1IWurx2/3GkFtgTg41SATtM0Zf9DAx4BiICF4cJ2aDzKhkHO5/NSjkDwTlMRMkKCIfA8Kxbh+DoOGL0d6eXlJVarVU95LkfNZrOYzWa98psn1tAOAqczFQcmOwPy9UHZBoDL62WsXBMP2gLgEpzMzJAJZWH+Zv2kA9h4PI7FYlEIB5k9pCVnLYDIbDYr8qa8hbMQ2F3SYZo82ST2g25d0szjZR6DwSmxg91u1wsAyIL1o7wLbTablUkq6IpSXQ4CZvcAj4EX/SKnzOgJtsgYP0N/9JHPuc62kQMA/WK/Ty8tuRYkTIYsR2fkJg55/Z7B3bOuDTRuu7HBAc7ZIjK1HJ1FmMy4moCN5F05snxdZeH+nO9xvwyeJnDIw2TGFQcTVLJmD6949rAnWoGzJvEOEiblBFOTPmRC4OI6v88PfxwMBr3t8UwYsXH64QDOhCFPYHN7jbMcGV/fyugYl4y4JBHIx33MxMV4wOHAnI83Ax4Pdv0dJ0aYlAcpJZjdmHnBiD3Diu9hjmasnlzh7MWZEh22oxEM/ZNZmbNRggAG4fUnEZdSK29at+EAtjiVjYBA71mWNiRnRwYD7u8Xi3JP1/ddAs5s2Nmzp3nTJgIybSdrd20eByer44Wui8Wi6NrMltKKMyPIEfdxycuTUTILRK585vIIAR6HGY/HvaCGjXDs9/tYLpel32R2bBXGWCugh0O65G4mCdlDhxwGPr6nL+jK5RrsH106G4A4MAvP/meiwMG1vs4ZhJmvy4jXJkvk7CMTTI8xekZfDoQceWyF83Ilh7/J9AF6g3Ie+3Gg5h4OBM6QsSlnDrZdZ1vOzK+V2Jyt2T+dbWDz+IFLoc6UneG5mpaXjvAMgqaDiZ/pCWhd1/XG2p04ICfuZ1vADow7EAXuhV1RnUMW3kXKz8t+6ew64jLRh75lEmIC5yCH3LH5/1FJ08oExGm0QdENz8YDSz6dTrFcLouAyQp5Dkxis9n0mCZCRICcD5CQYcJuzTj4G4AGZK+VQzGU29vbEsDpM/uA5nKjASGDFlkx09wxeL8jkH7buWiTWV5m/jzP8udz5JWNkCwbQMWAIy6OScnvdDqV7Icp2rw66XQ69V6amsclaOdisejtDuMgb1JkELGcDEYuyzDO5kF7M2b2xuQeZO30OSLKfpxVVZWJU7aV/X7f0zeZDFkw94LgueJhB8TWAVtsxdPv3Qfa4HOcDSEbV1ByYLIMHUwMyF4DZ/CwnHMW6UBo8oburANsH/06MFyr3NAmgqgzatpAf/Fd9oMkcNlfbDvuowHbRBwd5yyOoOtKlPts/6Gt17IS4yn9yPjqazkH/KAC4gAQ0R9yurbhdpaZqyy07+bmpuAd+jFeNk0Tz8/PhdB6ZmYmAlzn5MF9R4YmRNZhzqSpbJmg2MZdVcMP/kcBz8BYVZddzMn86LQNDYFaqdvtNp6enmK1WhXFrdfr6LquAI4dytGb+3h9HudeK3XyTGcUlKe2220vq/OgMwGEF3X6HXq8jw9H9BoZAgvyYLF6nn2ZxxhQntk+II0i6bdnBHIvGxLfAfgwSMDboEqG7PIPk11Wq1UJZAZLL8hvmqZsNvzx48depszhoEqZxSUI5ID+nfk7CDKRwQALCHgMs2kuEzWYBXw4HOLl5aXIi+dCjJh8xJZwHhtwwLAN8rf1mEEWPebZw5xvAMyEg77zea4A8HzP2HTFgvsTgPNzfL4/d/ZAG5y1GUQyqLvPtmeP32E72JuDbbadbOPuR8Sl3Ez5+VrW5qqLA5qDLd9zZPLI9yZyDnIQQa51Zu7DoO+ghexyidx64Vpnk+gLn8D/PExgLPRYuJ9t8pHJY9u2xcc845KyuQM09/PntNGyMGZbb9YDWOHKnG0IOSEj5Icd8cz/dklzvV6XmXrMsMRYPcDqRcAAHYDLdl/r9boowJ2ASTDr0XsROl0m0/EyAe5n9oywvUsGJUIUbEUAAggew7PBYFhZAfQPJRCQaTvKw9kxJhuK2SUZB4p021xSMAg58BPQTBoACM/U9HKTXA41qQBICBQQATNfWKDHh8hoMgujHRAO2k+pEdkQUC0js3wz6szq2raN9Xody+WyN74GUfNm0My2jYgyfmm5cr1LnM6M0Z3HLww62HR2Rmc4LmlxmNna0T02x3WAlcHErJm2ATgeP7xWNnbJ1BmaM0ayD5cfnWG63O5yvYMycsNWXNVwZutswbrhcEnW/fWzTIxMku0fDkbO7J0p8rycVTq4+948Hz/A13IfwAVnXi5d0i6e4zblci++bB/BRhiLz8Qbv3Jyg51wL3wU3dluSR5ms1lEXNYPovs8T8FByrbjw4Qce6BNxlD+N7HJOvDxV70AFuHPZrPyLjZHZ4yNgOVdT7zWzTsE3NzclO8BRRyIxc5sSg3oEACdutsAt9ttKSV9//49TqfzdPSqqmKxWPRKA2byZrMYjd/2wOc2vogoGS+fkyFSAsysEGNw2cjBEedxbd268NpBs888WcCsm/NdsqD/6IPryO7QA7PpDF6soVytVr11eYA7zpQzFWa+LhaLXuk2l1NcJXDJBrmRVVvmEIvtdhtfv34t7y0E6CirE+xubm7KJJWmaUqfkZeXttCXXO7ifMvP/QU0nLE62F0rw/EZ/fLYEz6AnLy/Z7Yh25wzOo+58Z2/t924guOg6XMM4Lns5/FansffBmVnNS5jeWtAA7GzThMHVw0cnCxzZzSWkwMackBOHi+2PzPJwyVt+yvtyxmwZe+20v/s8/Tfz8+H5UAGDSHl/hB/lzVzAPVGGbTXNk676buzNNuTSYgJOZ/lWdKWlWXtcn2WFf5nrHFi9LPjzYB3e3sbt7e3cX9/H3d3d72FjWRx+/0+1ut1+c4TCJzOe1EsjuCd/j0T0YwgMxImWORSEp32wnbKWgAaY1IIOo9jNE1T9pp0hsYED+8+Pxhc3sXmCQ8GfBQMeHu8BFZiQyHg5dID97WT2qBscJy32+1KCRfZeYYgRu2SLJlcHmM0GxuPx7Hb7eLl5SXati3jmxANM3o7Fudav55u7d1yTGgowbqP6N3ZKSXZp6enoitPRrq5uYnpdBrT6TQWi0Xc3t72+uTyFBkdbSZwZgLD9fzQZ+yKGYwAjxmrA70nMNEGdISD+1m0Ly/lwS/IspCtQZrPOJfDegNQMpAiZ5MQ2pfLeTlzNbBZlzmLMrDl9WKWAXI2sTBJILA6o3Umi064h23dGRey9TO4nwOZCXjGAs432XFVJvu19YjtWb8+38M2Jle+D2TPpW4wONuN7c/DI1TNOJ9khSGeXK61feXszUHN9oDcfE3OWE1wsdssr/w8H28GPNjCYDAoZcmu63oveT0ej71Nlqn7MsMMQ7pWZqHx3Hs2m5XxMo+pOCMDxDwYbmOpqssasoiIP/74o3ft8Xgsm2HjwGRTGDwKM8OgzQzYwphskGahLvd4o1szEf52wLRsABUzeYICAQ/5YqAet3Np0mUvTz6CBEwmk/L2i5wB83x0SgZKpvfbb78Vh0JG2M9gMChr3LAPMnj6eVwTSQAAIABJREFUglOdTqeyvyVtyjvDUAngeiapsPcpugCgIDi3t7exWCzKy1wJNN7vE9u23Xm6eESUwO4ymg/bAbI0+CB3wJnPvYTFpXdn5DwfYhfRB5M8TuPgYD8xSNiHbFPoyuTNm3YTWJAd9o5POANwf7BrV07ot5+FL1NqzuVPDkCfw/7hTDSP4aEb7IRxaq6FtBhXTAydKZq85myY/riag7wyOJvYmKSYcPCDb2FPYDUk1oQY+/KEI5MPE03LjCwqZ2roCTLosUQPj5jk5KzLczY80SVnuq4OIF/sFT26OmKSce14M+CxOTQlIn4AIcDGr4VnBh0GAPh6sD13yuu/nK0xmYL1ZHzuDBInIrvwhBrKkpTivN8k13vMESM2Ezfj8xZaTXNZ/+dxMu5Nf3CcHBA5H1BzFkCt3cEWWRsgKH9uNpve9GNnnXxGmYOxTACLQMe6NAc6DJcgj2F5sT0ONJ/PY7VaRUR/BwmCF3JgtqeDNQPkq9Uqvn79Wuzp8+fPPWLg8cCu68quOGwW4LEDgGc6ncZsNitVCpycAE4b0KmZIs6L7eYyvgPLtRJVZvyeSTYcDktZH3t2+Yg++3yX4ii9ci59ctZiMHVlxZURPqev6I/7kqW6T9z7WoaLbpGHZ1y7VE9/KJHRX2dGDoi00Rmm28Df/G/QzZM2XNmxnUZcljA4wNme3Gf6ZcCm7fQlZ4LczwQjB3iX9j3xzbrhOdwXnOXemSg4GLiCYLJjG6T/3rEor+90YOHZLqMiX/9Pe22fzghzJkz7TZosZ9qbfednx5sBj3fLwZoRPuXCrjsPzN/e3pZxOTsHGZSVnJ0RA1osFgWsXJbA6FxSQBAYq5ctkHnYuGi7WQLjQD48psj5vreZhHdsoM3cO7NkgBJ5OB2HednhbYxmoijSBno4nF9iClPycwEJjBA9EsDoo0kCDpxLNWxBhVwhI23bxnK5jPl8Xl6VVFVVKad6TQ0MELmjh5eXl3h6eoqXl5d4fn4uMgbcbm5u4uPHj73gdzweY7lcxsvLSwmY2Bi6YJswSvOeUGQQJnDYxgzuyB1ZAaImGK5iuFQNA6a05syd9uZSngOKA2ouz+W2OdBgPwYB9AGAOGD7mfgccsROHDCo8HAecifTNxl1dumA4L/pt+XvYYVrZUNsMWeU9i8mWzlbjOi/LDVnmQ74thV0SlsySc46zFms+2dcwh5MHmw/xjxnMA4oPAd9DIfDEsS5lzHG5Mc25fb6+YzV265MVJz9ZXv25DcTuTwkY3s2ac/ZXcZA35tn/+z4q/bSnE6nJdAZtGg0jui1QxHXN/U1w8RgzfgxAgyN4EIHAS0yOHeQcl5WBA5bVVUJ1mQDKBehkkWhUJc4OdczSnlOHkRFTk7x27YtQEF7GQd0JkHfXc7zPWC6ODf99fcYO+ch24goa+zqui4ZuQ3QxpNLx2SFBqWHh4eoqir++OOPIgeYqvVOls3sVpj19+/f49u3b72ZlQRzguNqtSqTTE6nU2w2m3h8fPzhlTjY5nw+j0+fPsXHjx/Lmy2Qj2ewmW1mUEb3JlouBUOIPJaF7rBt7NlEz2UrAxKByMzbtpfBmXb4e2dJ2Z+Qj7NNrstBDZ0Bxs4Wea6z3ogoATCDkIEtZ4+Z1Tv4+vl5JiSgid4d3F0Z4XOGFTyrFTumbw40GUBtNzyDoEdbaQu2RRsc1P0sf853eejDf/seth/rGv9z+dY6gIjY5tGZ22sdR/SXSJAUODvNJMFy44As8XkOTP4un2f/yRk0OkSmOZHpPeOn38SF2ZHWUlpcLBal/OVUmozFZYSflT/MhKxcr7MDUJxaM6nCHbNC88bPdmRAzKBKWz3Bgc+uMTTGojxhgKBtIpDLlC4R2ijJIDF0pvZivAQNz84kU8wzOTOjJ2Da6TAcPmO3EbP3zD5dSkb2lELRz3K5jNls1sui2KYNOTbNeVIQO5+cTqd4eXnpbUhgUO+6rryqCZ1sNpsiD5a6cB19JcDd3NzE/f19b0p/Bpk8JmKHI5M0uJu1IiM7r2WdAw/fO2h5OQQAmnXpikFEv2Ts51hvBnvbGT/4mrMG+2EOvCYGzv7RLYf9zoEqD0f4b+OAf0w6XNpzAHAWbGJi2aB/t5c+MEabZZ7l7oBtn6Nt18YRjV0EipyFmHC4r/le1r2DEnKDwDuzdH9yMKnrumzEz1aAnOe2YLMmgTyXNtiu/RzLkb7mLC3bjOOFA7L9ztUsVyUcAH92/HKnlYhzdJ/P5+UHgVDuzHVfA7IdmGDg1BUho0wLoqqqkk3ZSBAqwcMORPt4m7H7gmD84/KAMz3PoOMzs0rfkzYD4pRVWbTOZIqIH9chGqibponlclnuXdeXCS+eBYfj5DIPfaLUyGcEKZ5L5o2jEPiQNwBpPTlY0o/5fN6bpbtarUpZ0+ueqAwsl8v48uVLGRNmssl6vS5GbSeAka7X67JNm6sJmUBEXJa80Gcm4ry8vBRQsCxwGAKuxybpN/dG1i5927lM1LAps3I7rzPpDGA8i2e73QaPrrtMqrG+uU8mQ/Y9n2eQ5L6Wp2VCRuslF84IbJeeyGCb9hCFs1oqOb6vAd/tNAg78NFG+yp+70BicsH/OfBZns7+rE+e7TVqGXxdnTGW0Q+Co/tCELB8aAM4im04GEMwvLyD9jiDh9BDJDP5oC0mFibtljP/26cs9ywrDsbkvdSMA9lhR7ZfArX9wXaO7V47frkOzw9DCGQOjNO4jINC3TEaR6BEgazFwDG8ngWgRiEIkpIlirSBoEhPYOE6B626vkwz96xGslkvjqYfnjBhhu0g6n4gdO5tAOP6a3seMgGFbBb5GSAN1HzvZ2EwMFhnxQQMnN/jh8yKRKc2Qp9vEKfMuNlsyhKQDx8+9NofEfH9+/f4t3/7t3h5eSl6b9u2TGJxaSUiymQl+rbdbkt2h6y9VpLr2eCb7AU9e8aZARontsMiUwgP+jRpysEuZ0fYZ7YRAwQ2ZDDNJcp8b9ptEMMOcjBAjhkYTHY4sBWICIGU+3gsjTbljNKZMbJy+5AHJNYzDLuuKzNmfQ3+7mAMQbPduORm4EYfyIw+Ifs8gSqX6jh8X2dK9N3ncXgGMFhif0evuepgH3egtM1gx9i3CYLbmAmkyTMzkl2+xjetB8cByzDLFBn6bw8l2FZMYjzD1zLkGc7WcwZsUoc/5yDo45djeBgBAoONIwiEBJNxqYPfNJJgFNGP7p7U4U5ltmoA5lwOGxNtiOgvxuT/qqri5eWl7M7v0q1nFBJguYeFTaBgCYYDh9kZ11jpmUE6gHhcJJebcHAzOoOiy0cRlyzMZVzaBmgAcsibgIfczaTMkgEZs+jtdhvr9brIZDwex3K5jM1mE1++fClr5Gyo3sasbdsfphkjV7IcnDSTiNPpFLPZrMhqPB7Hx48fyxvsDVaMvaJTnASHySUrSIOzMciDdWBQMcFCnpADGDj3dqbDM2mP2THPwCZcHiXAu+xqUobeaU8uzTlToI3oxjqjzE4b+NwAy3Oo8Jh85vWMftsCGYODmyeN0cZ8f2SH/hwkIGP2XfcbW3YAR6fOVMAsY5RxBj/OJDXbO/ezfumPx8w8/m3iQfnRWJAJOH6Rx05N/k2srpEs+pRtydU1450JHce1ip0ndEVcNo3Ogd/+6h/0ZdmbfJikXDveDHgI3oGPxmBMHgCGDbvzLms4QBkQcHQcyY6by53OEi0cBw+DstfDOYj6beTcl51YPJ40nU4jInqZhcdpMNbMSvzjYIRx0m+DO8/0d84ScCAza0qGLkEAgBwuDdi5CHgYrmcBumzSNE0pS8JaDawGoC9fvsThcIh//Md/LIvUHx8f488//yxjwAYey5R7OKvwrFbax98QltFo1NuTlfWc3m0CMkbJ02NUJlGZwdoxHZCxJSZeuHTl4OXdepx5cRho0RV+4pmdmRShGw5K35QGDdJuS85SnHHmQMbzXMLy/VzCBDidYeD7rgBZFrYdfIf+O5i7VOcsw1ULZ0uWtYNADmQ5mFv+/t8Bgd/XdEKAdqDJcr0WJDhMpvKbKMAEL8tAv1mnHM68mXPhbArs5l6Wscv4nE8fcoka3EfOtjNswG1ExsiJZxhTLG/Ly3rmbz6nXb5HPt4MeB8+fIi7u7tSCzaIrlarUoL0ACKKA7jIkmx8Bhs6ZNaEA5lV0EmvL3PpDQGRbSFsO4DZsstglMe8YB3j4rtcLoCVZodyMOYc1/VdmuB+LnHZ6BlLu1Y+dWkO2XIv5MT98vZtfO/sCpnmUp0XRDvj4+/8/3q9LmvEhsPz1Ojn5+dYrVZFxx53MuOjH9bVten8th+2jONNBugRIoB+aaPLTC7tQTDYxcQ2aYdzX5354sDOUJxNEQSrqioL8Z0pIqvMlK1Lz9hlTJi+eczZJNJjxs4M/BxnhxkwkAk24NIhssjEzP1H5vZlH/YDD5vQJwcS+uClPNgC5NLEDbA18UWGzp59j6wz9wkZIeMMuNiVbdZkyv6Ffk26TCociHI2aV3bd13C5HBAsc1mjDWJtr04o7Zv5kpezogd8E0MTO5zaZN75iqa+2i5XCMvmbDl482A57EsNxCWB5uEAeFMBDXO4W/KDhnkaLifYWBxRAcAPPZC560UX4/Rc+Rsz8HD2aE3pnYdG8D2vTF+B1QHKo6sfIA5l45tPNeYvg2KvjF7iWUHXMOCexunx2gcHNEpzwQsDODoum3bsqzC5Yb9fh9fvnyJ8Xgc+/2+N8jsUrTBjWwO+bOsgiz0dPrxDRZsdMBkqsViUQIgMtpsNmVmLUHHxAE9AniUP9mJJ5eBTLAAYY+D0EeTKoMRgIgecnnJmw54whTEMe/zmVkvbYXdA1bOAAHLPNON5yArZ7nOynimM3wHS9/PvgAWQLYI2s4i7Ccu6ZFdcz59wW/yeJI3nPAz7Fseo0euDg60yUEEuTmLdKnTBNvyyAHAgcDkxRhoeZB0ZPLpoBwRhfB73NKEGhnQf890p33WXc6eXF1wQLLNeYKdM1jjlIMq57kc7H5j3xl3TQCMv64E5eOXszQBPARhZuKOEBR4IMGOdW1kTN6c2JHegdHPNcB7EkrOKnPGh1O48wBrrtlj7AYpj2nRX5wf5dvoUYAVSLtswHYQgyHttJMzrsgEDp5hRklGwr0mk0ksFoteycKvMqEPZI4uuzoI8L+dyiWPiOjJqK7Pi1Od0d3d3ZWAjkxcMnKG4IBqcsKCV5gvcmKbMILfp0+f4sOHDzGfz6Ouz5N/zCiZnOS3Njv7MVslg8rtxe6c1SHjzL4NagBADmC2l4hLNnY8Hst7IWezWSlZcx2ZOs9wsKX0bHBzxcA2TuBz+wF0n2tAwY68S5D90H3EJsmKOJ9JPbwaqqqqH7Z0uwakOajjl86ATBhZczsYDIofk/3aZ3JAdrZKP7LNu4LligPtxfYsO+MlQycuqebNLOiniYexmbZ79nL2JwfxaxiZ2+asz3pzadL/u9+2A+Npziz9vZMWD3NZJsaL3EZngDnbvnb8ch0e6+KsGM9CzKUnBzc6xkHHbRAEJS+kdurvKe655GHG4PQYxXIvnMvMjkDnTI5rrUSXYjjPGaGzWgAEp0Y+Jgco1GyOvjhAA6yU4NjA2lleZs3z+bzsReoxJrNgtrOKuOzLaMMlmyPQAFK026W5pjmvq+MFqzyD99vx3JeXl55hZ3m5JMWb1c3i0JUDH2PGrLX7448/YrFYxGAwKEHNoJWJWtd15VVHk8mkTMYiO3TJB3uDgbpc6Bdomo3yLAcnVxUsi9PpVJZSGLxdUaD/LHmBEOZs0lWCiB932jcTdnnOz7RduVyVZ1WaFNAnL9fgeggu/pazI67ruq43vsrzGE4hiHmiD9UI7sOSEYgY7TGm2W/dX9sm7XQAMzl3dYADmWBvnGMSkMuQ+DH38lwH2ufgYpuxfRoPIvpvtnDgcSZnnzap4AfbMEnHrrEXVzHAL+SAvr2zEr5sObudmTxiQ9fkgmxz8HMAz8ebAc+LwJltRyddwjBb8kJ0GIEbUlVVyVYQOoo2K0Nw8/m8GIoZjgMpAZbvPXFmMpmU2XvMzrOzW/lZmSgIIdMOl1RsTDmg02cmw7ifzpYdPF12dL8JQFzL9ZQLAQX6zXMAZQO32ZD7TyDh2gzENn4yz5eXl7I4nP62bRtPT0/x/PwcXdfFdruN0WhU1uiRhbTt+Y3kTBhCftgAwIZOmqYpW9nNZrMYDAaxWCzi999/LxtCAwQesM+7zaMr2kxwdinXDpQd3Ozakzhg5nZaDgAUwMaJuY9tgR+/GDni/KZ2tvvzpgQEPgiAx7vos+3ZM0Rd7sJunG27omAGTn/q+rz1G6Vgs2yCBIBnwgrBRU/uNxjCfbw0AR0jX+/c07Zt7w0h6I1lTOjKWd21AGRd8Fnelo7DQStXLjIZ8Js37OcEaWfeJu/2LWyb71x9ceCirc5InZxQKXBi4ECD7xknXKbl+V5PSQAzKeZ8dGI5dV1XYkyekGZy5mEExwxkRD88zPaz45cZnsshgKxBCADjM8o3pNkOeGZzlJhcSqIjAAfPB7Cdtrv+b6BumqYEONe9UbIzQ7NIB4OIC0Oywp0xAMCAzbUAZqDI98pjI3Yil1iYyEDAo4/8wKDIAMj02IkEHXm5xWQyid1u90Mph/ZkUuOxAAMQb0vwWjoOFnqToe73+/jw4UOvjGgm//z8XEjBfr//4Y3Ww+Ew7u/vSxY7m83i9vY2Pn/+3JvS7jFHZnHSD4N8nqEGcJD1udTLtc7g0CPB27Zk+yIbc1WCEpuDlMHD2T9gZCA0cJhsRfSXediW3P68EYGBmWdiKy5jAUzYLtfmLfD8vX3Ltu7gZduyXugjeJEzLAdv7NdZgDM465KDZ2LzYJQnMKETglUeq+Q3BM0+modOIi7zIqgK5HKjyQkEKSLKxB/O5X4e9zaeIHfOQae2T5ch6Rd9yxUWbMeBzdieyQL9QEeOIyaltr88ScWVBZMVZ5zYT67y/ez45cLz+XxelLRYLErgcarsciSGYQczsOQyR24oDktZjDEaFJozFRRECdBBFnBxQLKTZ4XZSTAEvnPdne+chjsL4RoUaoO2wToTdonHJRg+YyIKZS2MEHkSIAhETNQgS2M8zQ7OOQQ/sz7uCeOmHBoRpYzJtmA4JvJhqzBn/7DwnDEiR76HzWETzLrkHXZsG3Z7ext///d/H5PJpDcuRzDBHl2Oz9kZu8pwmK0iJ0AMHblKkDMwk5+cjVBtqKqqZCWc6wkcZulktJ6VSAD3//iAMyuTMds8MonozxB0OQy741kOONijdeSKg8uMJlTOfNzeXI7iPs5SPOXdhBv7dgaCTCDNnG+bRy+022Uxt8FgzPXGPa71GHWuXOVSIlk5QxRkjuCFfZ/+W46uBhhXMpk28DubpN/GAgcnZ1YmIbm65mqPszDuiY3lbNWZJHbKM2ij9YA/WC+5QsY9fxXsIv6KSSsuexmgAAscwetDzMbolAMBxsKYSC4hAurOcK6l1hgQwkY43rPuZ/3CEGinZ2k5AzHIwFbcHtgtcrHxWSEYqrMElwj4YWkE51Oq8Pm0nb0sHVgs9/l8Xq717CrOh3RQTjwcDmWnF7JCkwaYbtd18fDwEMvlsmz47KyeEix9M9P0UgGcIpMVfk8mk/KmA95n5xe4Ml5ocsF4MPe1vJ0tmfRkADGR4HCZPBMUZMqkHfpokHfZPd+XmaTO1vK9nT0yg5QKSd6RiCzOdlRV/bdgcJ4DP9eZhAJ0zoCcgTqYeEKYbZp2m0Ty25+jO7/Ki+v9m8qNCaQxwM+wrGlfJp6eRGefzJkM17kfzlb4PNsJ96bcCjAztyBPOMHXCXDeMN+Br+u6XmWD6xnv9CYSzgTdVuwKH2SSof3WVQfwICcctiuIIv223Jw40EfbSSZykArLBtu1P+WM9GfHmwGP2jI76pvJVtV5/MgHQs7lETMvGmqm7Gnxjvb+3B0xaF1jjhiIWb7Bnu9casjKyayXa1CKU31nkHZwM0JPyLHzci8DhScK+flmjuPxuOjFgEb7nC3aoPicayOiLB8goHmmHg5HHyeTSTw/P8dyuSzvoSPbOR6PZUNn9jSlFMEYcNM0vdcIZedBp9PpND58+FDG58bjcS/LM8DjHA502eHRn9ks/XXZJGcbVBq67jyRh35yPc/0lGpnVn4WwGgbQ358vlqtYjQa9Tb0dRZKBkXAAwgc8Gk7Nunda7Jvcn+Cp+0cm+TeuSzl9Zbuq8uLyJVnn06n3htJMsHwjGQHlkw08KvFYtHbJN3Zm4NFzgKNGbm0yDCISRH3x26NP7l9yC7jIZmgJ4SBIbQFH4bsYGtgkTNXgrIzMvpAAoJveDmL1yLyPzLw+OC1TNeE2n5rX0AWBGH7hvtK/3mmd9rhPlxj38SmruEa9/3Z8WbA8wbCNh6XLwz+CMoOejqdCggiYEokTtVhd34WBsALQV0GwUl4ppk6beY7GxbP8LgTmclwOPyBTXHg/M7+XHrKwdgM3WU7FMo4mAOkn+vFs8jJAZM1aCw5aNu2ZGoAEPLmQCZN05TyJABAZuzF955YQPuen5/LlH9nfYCwmT7jbbSP7NGOiQ7d5sViEXd3d3F3dxez2awET5fzkIk/c9nFlQVAwsTC9oIeDD7Im3t4MbsBOeKcIQP0Digu53I/20hEFF0/PT319BFxBinIjzNi7MCfefiAdnkdKdd5nBBfMcs2kNm/yVBNfCkfm317CMElNAcJZwLIO5f2PWGprutCNCh7ezaoCTUkyOPHZD3GB2e51g925bF9kwVngZYturR+Ms5RHvcEmAzw9nWTcWeOtA8bMC6iY+zAAdhkhSViloFxiL/pJ8Ge/43HrgjweS5DImPkkjHAWbSJveVtLLcdW35OUq4dvxzDy6A5Ho9Lam7mipLZ5Nesxk6IYTjr4q0LBDqDDx22gdupcDoMyeWjrHSXacxCXdLkO5RjY+e5KMzfZTBr27bXL8CSAJLbZxl5Cy4HXgzc46QRl4zGpVXKurzL0PVwDIfPPb2cduAMyA2ZQl6cVXpBbMRlh30c/ObmJj5//hwRl2nyDNp7wk1ElMyOTI6F5Z41FnGZUOVsdLfb9UrgyJzA7Te6089rTDWDMaUnv6UigwLjci6nGeiZWWmGzI9n1nm8Dt3ncRsvpMdeM+h4nDf7H22mbQ5kDgS0z6QBmdBX7NuEz4GFaxz4Ii5ZKzaCH9svDG45c+IaE2WWIRAgTXy5l7Nr5Gw/hqh4HJeDtvuzXE5Dv1RqMmlmDNuBiXtWVdWbxcv9fU9nTcYcBwpvzJExmsDlcqZ9HyyAgGJP+Jzl5yzXhMdlS3RJuzORxBa5jwm+KzJ+pu/jpMfB8WfHL2dpchOcArDGwfn+dDq/q4yZgTYujNSsAEejnGKjNHAQxKxsAwGsw9facR2MbCBcQ2ZEDdsg73MBFJdfDMAYju/rWUc8H+DzTDm+y2yNdrhdBmf+NiONiDJzdr/flyURyN+yRzcYXR6T5Rnolva0bX8yh0kE13BflyKYcIJzYtCUK8lm5vN5KR+6hGTH5FpnZGQ0BH7sIzNh5GlntON6TJKxNYK7gYkAZVJoe2BiAiDCGknKkegWEPIYKGTA7XMfsRkHGuvZvhIRvVmELhMRtPx6GoIMcnYFw+Os9Bd7NJlyOd4+w5EB0GCFzsAcxuusM2ekZFKeuW0yQ3udAdJuSu4mcGCcZex7Gexz+c3Ze/Z9Aon7ynN5NjL3kjB0YF8wychZYdaZ5eEglfHEsncQRV7eSJ/+GVN8X9ums1L32YHMvx07nCk6E8WfuY7zs53l482AR/aFY5htoTxAklKPO5zr7S5LubyIcs2WPF7G614Qsp+B8mlvZoIGAu7XE8BrhmDB0g4rkv7DHvmMUgXKwEg8NoPDw/A4bIAGKWe6HDg/5ziz4RozOu5PcHJQ4zvGYOgDgGwHQAb0jXIm+vILcXk2/WyaplQDABwWvpN9jkajsg8m5AaQIxiiWxMfM0/sgvZ4fArby+QE0IHJ8gz6XFXn7cXyWIuDPPqw82XWafbPAnzP+jTQQfyQgzMsGD7s3eMwzvQcDJ3FRvT3I7X/5fOQhQHIvpd/bLf2HQeKXEHxRAR8iaDsnYHsI7QBm7YeCBI50IIF/J+zZ2dQXpfoQOYMJcvWWUfGiYw1EDDGXv25yYb1ZOx0pueDz42t6Nv4g905eLufPnIfc6nQuOr75fuYlDp54DvjdCYCtIPf+D5HJiBOwH52vBnwuBGAeTgceuVMfpuZ2bjyCwLJEAeDy9vT7YxcBzDSScoAsEuEllmLleXsx4zMWRdGbDZto/X93TemIuN4TCtH2DBOMhQCBM5JGwEcZyMEf8aMPDnARkoApc1kum3b/pA90Fde1grJcDkJ/d3c3MR6vS4vre2686YDT09PpQzpdT2ULiIuY36MaVnOgBgMjADL2rrRaFTGVSMuARRAZx1h1gtyYWZkxHlSAO/OQ//+28Qq388gT/vNVLEjl3yQk4PX8XgsNgMgQxb93kLkaGD1m0eYwHJ7ext1XffeWJDbHhHFbwx6LiPxDK7nXgCXCZftlQAb0S/bo18OZzp5PMjBz/7n2XbYr8ewrRtsx5M68DeenUtqxifPisxVnGtZioGce7kCxXfI0f2qqstSFOzP+IPNeJINtuCqmnf4uUZG6bOzSJ/rzPtaYHOGBGkwCUSeGWOv+U8ujXNwvf3asnfFx/7myqIDpv3GRMCYd+34q954TmO93gnHdcMtPAse5yVImFXDQljz5Re7woY9NpVTYTMenMFlUqfoDhAI2QzDyjIzN4NweYs2MxvQsiA7cBD1eAr9ZkLOZDIpsxEzA3Uaz+E6PLJCJwCwxwAzU6M9tPlwOMRut+uVBbfbbXz//j3+/PPPsnExpQ2CLGNnrL3zJgHD4bAsT6DvjGvO5/P4/fff4+PHj4XQrFar0lcmbHjjXPNmAAAgAElEQVS2KP20wTOBhHFY5J8N30ze5RKIh4GNfmJ/JiXYhJ3VgZGAVdeX/Tz5Dtkyzs2zsW/uPRwOS/aLfQHykAxK1QwhcC+e5TE9+4a/GwwGpVRNloHNOKgRpDy5wDr15BhvO2h7NaY4ezWTN5GkDRk4TbAjoti7qzn8ONBjUwZHl+CdUYIZzq6dzZgYOSvGhrBP+28uT5qI+LnYEH2hbc6oIFQmqwZ+VzWcbWNnxj63gb9NVnwvyxNb8Jpa25r1xv/ul8kiscLVJWTEeTkZ4Rz6bv/LQd3HmwFvs9nEaDQqYAZQASYo73Q6lRIewjQ7MlP09xGXdT0Rlw2iUYTTXLNqlwgxglzKMFhhIDmF5hkEZt/PwT5/RhmXvpG1uNzoWXD0146AIczn82I4ZjfIEnlEXII3TJCMyk5pNstzCF4RUcakCIrWCZNSkNfXr1/j3//932O9XvfIi8cwl8tlWYTudXuMu9BWj6/88ccf8dtvv8X9/X0hOOxqD5Df39+XcimgjlwPh0N53ZC30UKvnp3H71yqNShbj2bsZFpmx17LRpaBnrFVxmibponValX6bZt3+Q358j+25oD38PAQs9msbAyODzw/P/8AZPzOpJI+EiAgIwZZl8gd2J01OZg6u7Of2OdsX+jHpBKftl/mLMUlLUgCfTE+oNvcfpeRr8knjxO27WVZS76vA4GJZw7MJv8OAg52tmtXcFy1ydP1c6mZoEi1g3bmClgOIvYJPvfMcffH632dyTrD5H8TOS8Rc8nYxIT2mYznzJXn41+0j89cvXC78/FmwPv+/XtRFuUZHgDos24GR8Goc00XNuKSJ0rD4BG0s0hA1gHQA+cwo6bpL1JHIBgmZRzKH/SH55IdAQyAHm1FSV5onpmwSyrO+GiLZ6oxBmcG5xo1xk1wwdjIYij/QUS4hsCGA+C0TdP0Zk8ie495tW1bFk4/Pz/Hf/3Xf8Xj42ORC1mXAzT9Yl0gk00MOvSTzOWf/umf4tOnT0VnlOlYG8izYPzYBbYQ0c/cyebzS1/Rs5clmJnjKC41kc1gBwAADghhoG85O0AegOzt7W0J0nkLNkgW8vL9DCoMJQD2Dw8PvRIP12CbzMxFlllf/I0NoBsAEvDgc5MKsn9s1ZkP/XbGmzM6iCjtpd+5L9dIszMy9L7dbguwOhMx2LsdXM/fHsfEj6kQ4adc6woOn5kk2RZcnrRM3F8wYjS6bJDvSUn2e5MLEwXLyGN+ORPmfJNV9ImunPXRT2REeyzTHOBdEcj4Zhx0YnIta/azvPzA/SLDNXHtuq683f5nxy/feI6zeHICQcMLyLOhGhA82YLPvLAW4GHMi2utRO5tBkpQcB0/InrTzx2IaDsCzcbow6UoB3pKLi4HuF854NI3+uGgz/2ZuZgNmPsiKwK/p5z7vgC0x0ZcDoQp8czcX3b9eHx8jOfn5/IyV5dkzAxdysVGeBaZG++pm0wmcXd3F/f393F7e9sr5ZHpzufzHviYSCFfdO2sF4CC/UEgMvPODN7v1zPoo3PuA4vnfugWxzdjN0MF9LBV7BuyiI2xPZonM/i6iHNwXC6XMR6Py8bZAILL2gZSM3kTJwd9Z4TYF+3HJiGLkBivO0S21puf5QBPW9w+kwUTFQdG/Ij+2NY9zmXAzMEPf+Va+yi24EwMHWTy7L44yzWWoHf01rZtb/MG38P45UqXq0kO2PbBjDkmy+jOMjZ25ABpgpHbx719L/zDcweyfTmI8jw+N8Gnr65UDQb995E6Q+WerpJ4eOK/HfCIrHYQAh1Trj0uYIP29YAfn+V1IGQB3psQAQLMsEzAFWE6w/H6lgzQnGfh+m8CrRmH5YAh2GHsDMjH313LEHOG4QyaZ7t8Y8N3GSQfgBKZjw2VzMDkhdewMAay2WxitVrFarWKp6eneHp66pUxMGwzX8DW45lN05SXsw6Hw/j8+XP8wz/8Q/z22289VsnEDTKc6XRaCBRODOAx+zePccA8IQzoG7ZHhmigonTqoOSMH6LAfZ3x2+78LGeb2Jp1WlVVmUgDA8UWvG6MYIGukA96R87YQJ5odXt7W+zNwcdBnme5xOlMhEDrbNpVCNupMx50ReC0LO1LHq7ARu1nXEeZlz56OKNpmjKpioleXO8tD53JRkSPYNE3KiIcrjKha+vcJB6ssczRCzZGuxxMnFWhW2f3xpt8rWXh8h2yMfHyTFb7VNd1vRfF+jxn2u6/9UNfMzm0/k0E3De+p70O5A7S2JUDnbNKEzwH7LwmOB9vBjwmI+AkMDsMmQcYIMxOMMDZbFYc2IzNM8XsPHYmDCuXBxAwwY3SC4GUa3JZBMMxu+F62KXBMGdNNjSzfIMy9+N/nmeH4l4YpwHT9Xw7Dn+3bdubhUifc0ZhsIA5UWJD1pSkCXrL5TLW63WZQOJyIrKr67oXODBc1q15z8u/+7u/i7u7u56xInsDOPZAQOUNAl13KVmeTpfF44AsR35LAM5sAHGWwIQYyEBmp9ZRxGW8IpdfMiB5DaCJEyAHWSS75LOuu+zM4dIns1iHw/PbIpA5hILM3D5C+RTbWC6XPQJGxkHwcVCnzdiTbdO2akBEDjmbw96tA/zI5UzaRn+cIVHm48BHs5yd7WDr2IF9Nmcxbdv2NmfwNTnQeIzSJBYbop/0I+JcbXJVKPu0s0KexfMsSwcf3yNfxzU5OzV2RkSpkrjaxOE2WHZZBvl85JUPl1GvZZcmOs5OwQTrFRz1kixX2uxr1443Ax6pPgJlyjMPRLAeY8PoSTn9OcK5VqNG8GYwVjTPAAz4myn7sBbKfwCBWZHf9WZDcFZKv1ggnpkPbXQQtfE7I+YZPzMEsyAUZiOwcaNwtucyg0c+ZuQEBJeV6rouM23dt+Px/IaDl5eXWK/XJQMj+0C2Zm5kJ6vVKqqqiru7u/jw4UNZM/n58+f49OlTKeMR3KqqKjM+kbl342dQHLvzGJszDU9CAmgobVhHZCs4HjIZDodl4osHwc3sM/AZAF0NMACZ8EX0d/DnO8rrGaAA8ru7u0IEqHIsFoteyZiM0zu48AxnWIPBoJAEB5rtdltk5PIbNgyBxL7QFX9DKPz6JxNV7mfbMzky4HkpB+fjC5m08Cx8LpcsnZl6khV/O/ARpDxRg8+9+w8+br/3UILJKeVxZzT2d2dv3BMCgoxMWh1UTfBNvjJWcO3PSLYDZK40XesfcsGejWVcz3M5h+fifx4H9EFb8CMwxmTxWh95Hrp1ydXn5OOXC89hw36tCwbBFHQUwLR2jMVpvhkfnXOQyw3GYHC4ur5sE+Ug4mzIrJPv8qtFMmPDQJ1WE1CsFIzHU9atZCZc+F601eVeDN1jnNcyUPexqqry4k+AxWAFyMHaAQnWgg2Hw/KOQF7USfnreDzG8/Nz/OUvfylr7Z6fn8tkAIwa3XpNprOQ+/v7sv/lYrGIz58/F3mwPZiZL/rc7XbFTrIt4EyWE/Zgx3OJyBUEwMOTmxwMPnz40HNk7p3XEXJvA1tmz+jFVQ5vTI2fuAJRVVUJGH4GxM1+w3gF4GdylH0lTwbwC4B5HiDk4EdZ2lnetQzPVRBn7fzGHqnC5IzKIOv7YN8mvMgO28FmPH6IbJHh/ybtXJfaSLK1vaQSIHRACBt3e09Pz/3f046J6N49Do+xAZ0BUdL3g3iynlouYGK+inAYhCorcx3fd+WhzISsM4Nf7oMp5CkN5gb5Hn3H3xxrvHDCgdkxwAyS/rhiQv/cdwK5k6YZsT/n+4fDoegYfzDz5LK8GBt9QZ7EkEwQGHdXyZQ+2g+RDTpzTLcd5ETleNjFbuknfc7y7bre3XjOHAuBqKqq8gZrHgRaBaU4YBlluENGDxZqpqdZgAjO6DfXtB08jWy7TgOxQO1gTr5GThiakQSJwIYb0bzMNidPMwPaMDMxsiHAsDTfbMcLIOgb/UbutINTUx6ilPnjx4/48uVL3N3dxXa7jd1uF7e3t+WEHU8401cCJQl2MpmUNxuwncBvc4D1MUfncp5XVTJeM3vrFQbAfe6LZYo+/bvZmx0XPREcfXySV5l5frjXa04c8rmqZqSAAic5mDPfOTl5eVkvjDaiOScTmzCb8p4nBzjbO2Vsz3d6rB6zGefz88sKZk68AdBSqidYsYcQxm8d7ff7Umq3XbukbvDoRSqsuGSs9lOXhwFa6MZ2Xtft1wZh+xkYZ0CA//B9l9n5PPutfTrPRbni4CkXnptZClfWDT/TL/TqdlwqxOa6CAF2ZHtg/Ln/fMbnuYzpqQ4Dli4gn30SH6GdnESdzA06DO5MXJAb/fTnXde7h0d7yT+ok4dgLHSyq5TncpATDgEoIloHQxslEOjyO8+cbDI6slNhIA44BGkETP+cVFmq7zIaCNilXJdD3A+XTfPfIprXK2Vm6jHyuwMBsqM86xKOGbKZn9v2xufNZhO3t7fx5cuX+Pr1a9zf3xdgAJKl79gAATsiysKX6XQa19fX8fe//z0+fvzYSkh+84J1ROBEJ8gZNsjb0jNCz6jSoCfPD9tB/EYJl50Jaug3b7Ww/fF32vd+NMaG3JEjnzlwjMfjiHhZLAEocFna4MzzWJvNJubzefR6vdYpRdi795HRD2zCLyjlImH7CLfj8VgWL83n89KGbcrAiWqH2QsLz7xy2nNz6NFJlM/Qp+f3DFLQmRcKEWQz48lVGz6jWsHnLnM7Sbg65aRnGaJTV3AcjDPjQGeuMuUxuW3aILkbzLtdxgGAp7TvWMQYM+Pm+QDhLuLhpOQ+OEEZSHSBK9rEp7Arg/j8DMcxfCx/x6CNZ/zXCS93nnmVPH/hpIaQuR8DdnDAyVwW9IILI3wjSAfevOjEyMAlLhteFoSRiFmMAyGlQvebcdm4USKlQDsrfaGMxPvgjsf2uwB5PmyGMXrRTETDbhaLRQk+Xi3mYEcfmaejZHl/fx/r9brM3VEm4u3n3GO52dmZk5vNZvH777/Hb7/9VkpOyMilPBjEw8NDrNfroltsxodqm/VRkoxoVmPSV5eVsDcHJy5/J6LNpn0ficlOjSwOh+ZddYwNdpfLPwYi+dT+0WgUJycncXFxURIsCcnA7OnpKTabTSlvrtfrwj6yn2BbuRxlH/MYzTBt14xnv9/H169fW0zXlRXKf9gGwYk+RTRVm1zGRi+8GxEZWyfMH3tBCm0zDw8QyeAOwEYfGbNBpPWFDsxycoLLYNrxpCuB4Yf+nf/tQ+jFZWKAlgGZn+nnOmFmVkbc6CrzmaQYSGQige6cWGxzji2OrZaLExT9IEcAVpGtV/w7tjIu7vecO/LCPv6/Eh7ljX6/OSQYhGdG5ExuZIsQEYhLnhmpONA4EEY0CdEGyGbNzOJcM3ft2s6PE2PYRnyg04gmqHuxhtFmLq9hhF4BR79QEMbE303ZXfaATSEHEoFZksvK3E9CoF+wg/V6XeYB9/t9rNfrUiJ0MkJPzK3xLBZO2Mg4Huxvf/tbSXZnZ2et01w4OcW6hbEjA2+Oh2Fbt8djc2SVZeFgluckvLTfwSoiykZuL5zB5tCF7drodbvdljIdtkAfnGSZBzTb4jlVVZW9dJxTim854XkV7uFwiB8/fsRkMonxeNzyRycDgCnB3D6AvPjZVQGX+WADACD64ZIYc8H4npMLyYyKiH0Hf3Yp0v7u4EYC9qIbvk8ZFLD3/Pz80ypxAxfHI2IVsYDymctw9lf/bhZj+3OpzvNu9NtHrpHEXFniMstzwDfrdBwymOAZntdHv2ZQjokkHrfDMy23zPYYh5m55c5ldsa46ZPnFAE6PB97c0XBoMA5yLqAHLx2vZnwWKjClgQvRbcgKZU5SNIJyi0ECZex+DsG0hU4jLgwCJSPQiKiTHibUXB/nn9xAPKeQt57hgP7VA0zCjsfRuegQfuer6L8Y2M1A0ROjCOzVycNz+EZ7dEOMoiIuLu7i2/fvsVisWiViihtEvx9zinGT1Dt9XolkUW8BInxeBxXV1fxyy+/xOnpaZEhp52cnZ0VpI7DoxPKePxbrVatgI2cAR+sHCUoOanxOQCBhIij5X2DjMdM3BUKSmTYVJ4vMgvoKs/wN5fOaRM5kDjRA4wWuaMPyobo7OnpKVarVQvo5ABhlG8W59WPjM8JH714oQ2+cXp6WrYf5cMA8ENkhQysA8+t9Hrtw6IdtK0vBzSDH87kNUNhP54rTgQ+dOrgjz7sO+jQc9WWr+NFnot0/2nbr3pi7hom64SBT3uBGW2aVTnGGPhjj/TBi/A81+ZYBTDo2kaCLRnYI4uuqocTJZeBgIkL7ftZ/p3P0JOfkcmPWSN/z6C363q3pEl5wCvXjJRsmO4QxpLru3S2q+6Nk+HoDiYkCNemeTbbEzBeJyOXfIyQHCjrum6tREWBXu2Uk7IDH/3JjkuAdX3eSnIANh336SYo3YmbA6dhOciSseFs9/f38e3bt7i/vy8vbu332y9F9ZFX9IvyAn2jNMcKzJOTlxP85/N5SXYu76HTk5OT2Gw2ZSzI2jZEkvV8DitCcUonJfQW8fMJO3y23W5LNYG/EagIxJ5rykkMXaNT690B6bVynedLCEYs9IqIThlkeThIw5x7vV4sFotyfBt/Qz8EbOTpRMHleTfGzr1+EwPfdXnUbNu2zvi516AEWXCf70deVVUVVogNA1zyFAayd5JyJYK+2Gf53/7K9zm0wkGXfjkYO8ASw1xW9JhzHCKJAqKxx9wWtuEyq+Mdf/OzXB2zTXgM/t8lV55vmbjvxBu+m9mz5eJ+cBnMmLQ4kVs+WebolfiBXAxMvZYiz+N2XW8mPE7DoBM4C8bp0o6VgLPnh3ugCNq1+8OheYOyVyPhxAjBGdzOYHTrVWpO3LAcmBzJnEUYMAGzKc8NGplGNOjCCNp1dKPEXCLBiCnZuOxB4joej63SZkT7pYh5AQwLHhaLRdzd3cVyuWytnCNB+h+Jk/5j6BFRzsecTqfx66+/xnQ6/amkyOo+v7fQCdulCEqaXk1GkLdsCOTcx73eKO85TyfbDBgimo22yJbPsEXrFHRJADeqB2hgDwQub5TH1jPI6wJIHj+JaTKZlJJxv//yHj1KnIA3B8xsfxHNwih8C/9ikzVJzXNADuKwOt70jm1ZLk7WOTkgY/wHPRkIuqRH0j4cDmUeGTkTFzJjMMNw4quqqgVWmX7Ad20HyMIVKe6j/7TB82BjyMrjQ/cuAZK8iUWeZ/SF3bk/2D6/Uz3yGgYnTKYlzNL4l6eTnFTNqFxBsQ35XsvIYM/JyywcveSyLH5k2+O+DGgYo8fjShfXW0nvzYSHQozoQIQwBJfQELCdKVNWlxSg8BjEaDRqLXQ4HptXEjkokSwpo9lxUAyoFWP1+99YQWiD4u/ud2YTOLmf5yBjg8ml1YgG7Z6cnLTOIDXapByI0pE7TIe+k9gIQDjScrmM5XIZi8UiVqtVKY+RmDy/UFVVXFxclL4zPvo5Go3i48ePcXl5GePxuJQ1ASOeeJ5MJiUQ8gy/P8/lm+12WxyDEhU2YFsx27I+POeH3TlheSwO5DiknRvQxt/dbstRkg06Wbnsgz3l4EAAsq7oG8nS8nOgckVkNptFVTXLz2EMx+Mx1ut1DAaDkjDNFHIgd59IMMiR9igTDwaD1vm0lN6RFwAEe+Q5ThIOfE7+LkcZDEc0G8yHw2FZ3cpn2BRJAP3YNvm7mbNtxczPPkE/DHC9gMuAAxJgduTg7zI4MshBnzjlew0kzJ6QjceGfdK2f3Yidnzq9ZqTcRin53xdXcHueZYTaU64XXrl2U5gBgqMxz+7dEm7BlImVOiHioT9Ll/vJjyQt2vwfO63E9jBLCAjMC4zlVwORXj+GygfQdAm50GaFZJEbJwuAxDI7fg+oYWygRGF++yz2lyio/9Gu058MDaXWcx8MEaoOfN/LpNwqglBmSBIEN3tduVoMFZfcsr+4XBo7Z/iH32iPyw0YSM5rG04HLbeZoCOvQ/SQaiu61Z/SVTMGToYOEAhNxC/9w06eRnZOVgYoVo/vFWd+2CCefm25engCLDARrIjO3g5oOYk4iOdcoIGSFFOB9AhAz53accsxSuK+b4TjgMzMrTMnPwBeIzJZW/PI8EGYQOvBWWS1OPjY2dZjnvOz89bSchxAx/L4Neb8okrPBM5YGOAWsaW2S2g0yzU74HEzg+H5kBol9ydDFwG528sFHMc8/MzE8uVJHROvCMG5HHQd/RH/7oSc17VjV6Qp/2DvmRGllklend51Ykuywc7R0b0G5/x4r5cSSFZO5e8dr170gqCJWCR8Gx8FjifRUS5j7ekg0YxZDpO0DdbMgqyU1RV1Tq3EkFYSHVdlzkr+ouhEPhgPBHRmi/idxtQRuoowfMsGJId0kmWMXmu0XI+Hpv3uBEcjIw3m01JgAYBXhjy/Pxc3nDAMWEEMZbC8+wMAiIi5vN5jMfjmM1m8csvv5SNx2x6dy3fuiKZ0i/Kjszt0WfGRDtmdMiAwG2nIABg2Ofn5yUIO6g5OBCcADdOMGYaBjWuDiDfiGi9uT47uKsFOCZ6ZgyMC3tm3PSHZEeFg+Di0h6BHafmc29JYV4SWXh+kotxeesMFRsnYNswiQAdMW50gAyQK20gL6oxrtbQD69oplSeGQ/JhvaHw2F5/yaJ2f7nRJKZHvLmYAXadLDm5bwuz/u79iHHB/rhvmP3+CdxhZjlQG6AD/DmHhISoJQ27L/2A2zMCdnVAzNP/ubYS58yy6ItkxQnL/sYYzJIzCvNM0HxMw3MAA2AQ+KHWXomIF3Xu68HosRG6QnDqKqqBBM/yIZhlJWdDuHhXF3LcQmQtGvkeDwey5FI3lB9PB5/On2FYGXE4xMbMFYEDpp1WctL/POcF4ysK0GjKBQDA8N43Uf+kegwbg4bZv4DA6FkyUpQb0iu67owMsq1lDeRDRufLy4u4urqqpTCzs/PYz6fx+FwiM1mU1bq9fv9sikfp6OUMBgMCoMDxRrQsErNDm+w40l5ZOPXJtmpfbybjd2l9Ol0Wj7PpSIHVHTlN3o4oZMAXSLKOvU/AiBjcFDArmE5VVUVG3eiimhWwvpAdCcgZO/5RTM1BzvGik5ILtyH/XOfVz/CSPE/khZ98QIUbxGgXeIGK20zUs9sGL1HRCuROwYABEgYMGHkaHCO7NGV56XwQ7/6DPtxxYLyre2FMfT7/bKP0jbmWGB9OfD7+7SbE4ptw4vcsG18BF0blLj6kJOymZLtJDM1x3D0kgEjCYnkjqxdsaAa5+ca7DIexkwcwDddEcggmb4ytjw36uvdk1ZwDtN4Sk0EN1NKl0MQtCeQI9onjaB0dxrGZcSJ8G2QoHgnqeFwWDb3RjS1bSMuByv6jCBdFsCJQbgEk7zUmySLIQwGL8dpkQQ4jomDn+mXy8RGop6n4g0GPmCZ7/A2bdC3Sw454XOhC5D9dDqNv//97/Hhw4fiEL1er/QZNo2cMyt2/wn6eYGBnQJ2YdTKmJCJGTBOjn5s+Ozxy8ur874dl8yQs20D+6NdI07Ljv6a1TtwmzFn1Ot7GHO2u+fn51INgdFxDzo206PfsBe/Xou/uUzmQOyD3al8mHnZX43QPU9iMMIzKI27DQc/T5E46Rq5u3yNbSFbdOoFTdg09unSpf3eOqYfXviEjSBP5AhgI/Bm2WJTTlj0L5f/GGeei/LqWeSZ9egEYn2a8RAP6IOBoJmPGa9tlecgG9snsZNnuURqXzYzR36umKF/7B/WBxhxAndZ1SSKWIEMTcRMrvL17hweCAGkZ3Rt5GrEbeVkNOQAhAIweq+8s7FiJBntw4Y4MQR2YnTAqkuEjFLMRHmWDSyv8mSlJBuG9/t9ywG8yvBwOJRy3mq1itVqVZIH/fD8lNErTgvCvL29LatlvXDF7IbnV1VV+ulVinnhwfF4jMlkErPZLObzeXl9D+09PDy0NuPDPOmbkwoAx7rH6SxTI0DrEfliZwQPz/FhTw5KZiqWRQZKTmqUwL3CkMtJuYsZ0h4y9f3ZB/x3l/jNLjLYop28mg8ggH0RaBg7bdl2CSyMgeRvO+V5Dh4EFC/iop/owodP54RuAOQKBu2D/vm7Axtjz/GC8eXqAOPi7zzfzMY6g1m70gNQZTzI2rIhPpllkID9dm18xRUeL1izPzLerrliX7Z1/04bMHzrD5COryJfwLJXYNNPkh/jxXZt104w9MkVDvfZcd/2yO9mcl2VEPct35eTtO3J5dLXrnc3njNQ0CNlLwdvK8wGa6MFiXCfJ9jpsNEY9xjN8D/Bnz1ki8UiDodDQakeuBOakYiN02iL+ymj4ORmXR6DqTTHQVHCoRyIcq2gvH/MZQvPhaFk9t6dn58XuVNycpKBgY1GoxiNRsXgYeb9/ku5bzabFZ0ul8vi7JSlnIS9us2GauZhYGJnRq5OfmZK/O55VgOjDJpyosjlFOzOK9Bsn74PW/I2C8Zoxmm0bxCGE1JhMNhDZvSF/vgVP/xvZsTRWcwB0s/pdNoKijzLc90kKwI01QQu+ux+emz2u7wIxazHicp+38UIkSk+Y/tBztzvqourObSFvrqAkBdi4VcGQdiYmbLHZH0ZTDg+YJ9e3JPHYvmiC+KRF9BlcmC52u+ICTw/IlpJLoM+2ymyskycIMyEPIYsO2zjNVZvfXUtHslVD/sI/ppzRwYPHhtTWNmeMiHquv6jkiaT9jCFiGidaoLyjWBIDC6tWbFGv3XdHKMV0by6hN8puVBPp+zz9PTy0lK+YzrtiX+MCCSIERkNurTjckfES62fvVD0l1IjDGi328XNzU0sFotiIChnPB4XA3MSIxBGRHkxK0aKnAwM6KtfkxTRlEctJxJcRHNiDistZ7NZcWiCm4M4BktgoM3D4VCSJn0lWOTgORgMYrlctoJ5LscgYyc89AZK9UpMO1BmEy5x0S525mAGM4ClIycCKgkyl5ycaBkzSYEAiE6ciJCxgzR2b4e3jAw+CDu9OVcAACAASURBVFhewNDFZOmHX5ZLn7mQp5mZkxPAgbbcN5K757a7qjfo05UH/M3MjzlmTwVkYIGefLABf8vJwskeW/S2jF6v2f7BlAuLvogfZu3EPYCnbRDQ4oqH5cC4kacZqufgSVxU0BgHc+IZ4CEDA0EzIH42a8YWsBlWbdv/rWOeR3+5kDefEfOQHc9G9o+Pj60X67oa4UpJBiV+nhMq8qLKyNi8v5jn/9cMz0L0ykwu0+WcsaGYOAFO6yCFgh8fH2O5XMZ4PI7D4VDeEMDz/NZgB0ECo52l1+u1Fne4vOFgZjZFsDGCPBxeSqVfv34ty/xJUDAuDPl4PMb3799b+8v6/WaBhxXniVsSMfN99I0xWg8OKE4e6ACjMkI9Pz+Py8vLslmcjcQkQtggqAy5OPBNp9OScDkthL+bPTmhMAbG5Ffg2KYANZShvTfN7Am54aCWO/IBPZN42GzvgM7/ZgX+PaNUJxSXzYxQjSrpJ4HMc0+2Q/zBZRiewx43Mzkja2yHkjKsHjmRTAmORtwENC8qMXr2yj7kD6DMb0fAn9Ab7Rn5u2zJuA0Y0LOrMPTfqy/dJ5IM/m27wwfok1kyoMMLxQzWkHH2jQzwiWO5euSyun3E3+Mzs35iHP07Ho9lOw+fs5XIc1VO5Lni4DhngoEsrf8MQJE1OnbVg88dc0w08EMAk2MW6y14dgZcyNHgAf+l2sZ9LPpirI6D3srVdb27SpMHufxYVS+nQLAqkovFLR6MnQqBw1JwBu4hyPOaCyctDIZyIOgc4yPZ5L1VOdigAPdpu92W/Wfct91u43//93/jjz/+KPev1+vWxleSCI7gQIOD40BmtYyJRSMgc4K63ybB/1kXDgIgTpI/e+dOT1/ePH59fR3n5+fFYJij8wICjBPDYY7RTuqAj4Ogq2zonAUJeDGiy5PhmTF4PtSBjkCIExAgYGme+8uVhuPxWMrBLmnZkY3QSZBOWHZ80CZ9ckmOoOh5D2+FyWUjP8+lJ+5ziQ55uITjROYtDwanZgL+3PN7fo4TpnXLGAAWJAaAoAMfF/LmZ5egvGLVIMcA1vbGZ07Yjje0aXvxfQYQljP+m0uc3nZiW4TBMVZih9mq7QMfNpj0mbIsIhsMBgVMI0OmM/I4uCwTlw/9PRg8OvD0Ct91AvVWCrM3YqGrFbTpCo6f7YRqPXK/Ex16QGa52kQbLnE6zzgfdV1vJjyCvzO+KanLmU4wFh6D8io1ShQwnPPz85I4SGQ4mxdL2Bns8Ny7WCzKOYwuA3gVkxXS6/V+clRKpjc3N/Hjx48S2LyNAcaCEthQ6yXaLhOR9GgLdM646RuGE9F+hYfHQxsYJEd/cYr+YrFo7W3iTedeDOIAb6cExSJ3v0fODpcRmdu0Ybsc40pBLs2ZGXWtinSiwNZcqraj0643+dtWnBAc/B3M8gIGLi8Ld8najodurX/GToL2cz0uB4kuYGBfMnNySZvvZ+bqFXtmAWY4MFPu8cIk+uAE4niA/F1W5Hsuf2PXsFJAlcuTHi/277ecG1yUQCbwRhKxHSE77I9xuPQNW/EcmY+fM7NzGY+fHVMYuwGqdYMt8nzsCtv1tIZZsZOZYy0gxEnBvuvybk4QfAc9Wp4GYE6YJijcg96Qr0GuKyFOTOjYcc/TGujTVRX078WI2C1ViNeud0uaICaEyyAp2UU0K/Jc2iQ4O6gycJwiov0KHtNdTjwYDodl07URth3qeDzGeDwuzAXExHNZYu+9bvyN1714xSdvF6iql72GsC+eyVmVBAUUDONEqRiI6/z0yyUHjJux4VyDwaB1oLUDKo5BwHBZ0gZFssaY7CQYHN9HLpSEKA/Qvh2Jto3+clD0whXblC+ch83kOJYdAoPP7KarBEkwcNkbueT5JfqJrD0O95XfjVz9LC/qMQNw8EbfeYENffP4AH5mac/PzVtJ+NwlVYIbdurVeCQ8s1baZF4eO2Tc3E+fbJsOZPzsZEQM4MixDIqtY5Kvg7kTNp+5DQOYLEP65GBvwJXBWQZEDqroE5nSNjbkbSPug5MOfmKQgS2ZQXPlBEUsQ7dmkL4He7Ye+R7y83eRvxlyZkiZNToxZ1/m58zG+Rv/bDsmL74f+zMQdNnZANksG19+63o34dlIupZBG2lHRGvzKYKEZaEQNqzbONijdjweS4I6OzsrLycFCRjpGvETeAgmXpXIcUVmiizE4UixiIj1eh23t7exXC4LWqC8wLwdBkWggEUxZi4cgOBC/zEEjuuyg9V1XWRzcnISk8mkgAqcwJvq+Z85S4KZGZSNyUkWI/I8AzKlNMwYkDnPN3MgOPG/y4yAHhu/ESZtGCzwOSVa0Cty9yuEXMOHNSArgypKfQYm2dm9RcQonWDlDbXZ4e3EsFTYQUR7Yt3sxGwO2/C+R2+vMZDh+4BEJ2D64gThUp0DDXpwib+u68KOfeII38Gn7HO063lwLvTmYOlFFNgf8scGXTYzEPCBB4BX2vDcEv2qqqocepAZk30Ve6IPAASzbPqAXTo40w9PaZCMGTdjNuik3zm4Y7vI2mCWPmI79nF8wmwa0mIAahlxma27WuDj6sz4ANPWrQGVc4bBH33kclJ2VYc+4rcmEnmBEs+3f3ZdbyY8v+SRhlFoniw3mqS850Dh96T1+/3Cmtwee9U4VeT+/r4IYTgclolenkVbGPDp6WlcXFyUkxeYRxqPx+XlpU6+BI2IiPv7+/j+/XssFouyUvPu7q4sfoDx4NCUKklanKBiIzo/P4/xeFwS43Q6LQtzTk5OYjabxXQ6LYolMHJPfh8dBofjsvmcfqFwfjZrIWg5WHlxhRlsdjCXMpxscBL+d6kaB0a3tJcTnpG+kSyBALDlBO8+YkPYkxeBREQr4WLHmYk7SXgelb7mBRR836DNc05mBOgP3XEZEDF++gmbQ64ECtoi2BisIB8HBQILMopob8FxUoTlOnkRMM0QacdlNLOmXMLC7pAh/bcdOK5QORoOh0V+tkvLESZMkKVKsNlsWgCEew0Ac0WAn/MiF8aby4q9Xi82m00r8JuR8l0nKFiz9WmwRL+QCZftn/t8pBzJHPtwRcKJxsnbJ9F0zc3j47blnExoFz/P/uQ9t7SJzzrpG5wSO4ixBkyAXU8tMCbHqDwV4evNhMd8EInLgncd3EKipEjAquu6ZcAoiuDIfSRQnuG5O5cnCcIkRgyDTdSc2k/ymE6nZXkxRgojIpnt9y8vGf3x40ccjy/lNc6j5IxISqwoioUhKJMExekfh8OhbO4+PT0t82wsHpnNZvH58+cWE/JSXpdxttttKbHyXQKxF7uAglhwwnepd2dWQRDynJ51gvGYPRhBmhWyvBt7sbPY2TBU2hiNRnE4NK9McZnDyM8rfu3YZnFG+TzXJWCSjMtyDn4kQ5c6cUCSi5kCwYlxI2MHYtrBZnNAMmuj7wZyDhLIlT7wz1UEApH7YJnBkvme0bwXKJlJIiOzVgdKA1JQvWOCmRr3ME1CbAFwMJYuNux+1PXL4eT4wmAwKPPs9IFn25ZceTKoQ7fIKLMz2xTJgn+5hIdM7Gsl4A6a/XuujnghGp/hU1597e0d6MbPtXwyUMCesv0yHldNXMXIukdWbt9AAL27hM7fvMXDz8Ten56eSoWB75MPkIvZnm3fun7tenfRitEBD8lUHME4+2NgHPXF1gJKhAgFgeMAsBofG0YgIXkhnD///LMgK4LJ1dXVT6vxnPHZE0f/F4tFKaeCInzwMQ45HA5b1J6tBLTz6dOnsuSfhSTMv8FuIyIuLy/jw4cPpZSKsR8Oh/j69WtJ/L1ec3Rav9+P9XpdHMSMwQGtKHXQvFsM3WDEPrXFzmqmjDMdDofCHmGygAQM0HuD0N3z83PrcF/3w8GH7xKo7Fx5XomgjwzQKUER+0Q+/EwfPInOP9pFDyQ695W2kA33uVrBOIxUaddszOUagg4XDIC2GJfZgGXm8pDHY4ZmwOAgySIQEhzPwZZom/2JDjxOxKwytF0SpJ2snFj9O98zOAackZhzMo+I4p8OnE4EgAsqOLZ/JyeCpNmNmaoZsBM3Ad+swvpxZQS58r/bc/KhhI/Nu7yK3HObLkHaTgBq2BExITN37N3lQ0+LOCGZQZK0PA3gMiVyQheZ+QOIeI5ZGr4CYMl6z3K2r3kcr11vJjzPfdkIeKiDB4a53+9juVyW5EF5EGNiX4/RPANkfgjmxnyC9+SBJA6HQ/z48aNQXxa1zGazuLy8jJOTk9bpF17xMxgMYjqdRl3XcX9/X5IAzHC9XrfOg+z1emVhDUocj8etUsJoNCrs7ezsLMbjcXkzA4jFS9V3u115owNOztYKmAlB2GUsDA4ka6fH2D3P4n8uF5IQHIBAt0ZPDgROAGYGyMjMzokO23DpBMdwEjESJIi6hOt9YGZS3Osl9kb39NUsjHFTBsUGaR/bM/Mi4KBDHJSgwe9mGQaL+JOX8xtVe2EB46fP1hey6/V6rTGhI9rPduOgbXaKPzNu2s8BJwd2J24CJD5kO8Mner1e6RfjtAywI4KgS+g8DxCawTa6I3lYv04UGUBg+/jLw8ND660lljV9tTwzaLE8nVy5J/sVn5s5Z8Zk3UVEC1hZho4JeS+pWbwJgsEctmubjYjyXbNt4pLBovODbSgiSswyqOU7+RxRPnc51NMkrur4efixiVe+3kx4HCOG4Aj8OFk+b3E8Hse//vWvuL29jdls1jpAmY3bCBdlEcgIJCibC+Nm8yHP4/lshkYxz8/P8eHDh3h6eoqvX7+W4MsiFd4g0Ov1Yr1el9MeMJztdlsSrFeeOaDxO28CJ9mBXChvojRP0pNcYY6M2UHLpTMnC9fwMU6XlTEen+6PvKw/J0qSig3Fc0M8yyUsHAzDREfMjxop028bvJ3Y7SGjzDz9u4NZXrnH913yoC9OnE6oBGUYqwO20ae3tGADTogAJOvSoAVmhbyQnefGPGeGXnzmqk/jcBK2X1AWIsnQPn/3vXlxiROlE7xBALZGf2EFjMcbgm1DABLkj5zZCuMyon3RTN3VDINNl2jpH/13FcRAycmJQM2iOY8Vv7Dt8L8DcJ4z5V4SsfuL/M3QsV8qEQYmBoLYFWPDBxwLGE9OIr6QvwGRx2UgxkVsYyxMQxgsZzYI0Oezx8fHUrki7jvp0r6BpqcfbOuOVV1VmK7rzYRnpgBCdSA3i+j1XsoZd3d3RRGws9VqFev1uiQNWIgpt9tyELDjotjjsXk1EE7l436Gw2FcXFzEZrOJxWIRT09PrVcJPT8/l7eCoySX4ByMu1gQDjebzeLTp0+F2bkM4sBPEMPAbEgYDAGXtz4Ytfrlm7SNsbj85X1TXmSR2Q4BnWREcPUJFjif5y3N/jB4JzsvIDAwMDL1nBBBygnIwY3n5iRoNmt07KDOa2xAq3xuFoUtevWrHQxnyivN7Iw4sRMRfyN5oGsWU3lclMs9z5qZXi6DcSEH2qNfVVWVPZ78zYd5e3FPTmS0R+BCFrZF+y2BjIuAT5td5Vnk6ZN+AMYR0TpBBj9wMqMv7qvtGxt3MMeeXUEhURH80bcvB1IHcrMP9OKyuuevHCMzYMlt47vYAGzOCz2IjV6Wnys2/p8xArbdDnrKgDq/E9IL2yxngI/Ls/gOMYPqm8Gf7Rs5GBAbNNI/M0ju5R7kYGDRdb2b8Eh6PpKKzlkALPLgfXEPDw9xf39fFoTgNDglictIC+Oxgr1kHUFSDmQOAUaFwNnSgCOx6hPBPT09xe3tbSwWi1gsFnFzc9MqE5jRwCTN1sbjcVxdXcXHjx9jPB63liRntIEyuJfEZHbhshBKzkyGhJQXZ/g7RpkYkucwjJ5xVuQCcMB5CFpeAJRLeC7NERiZo+WZBFf6kUu27otRW0ST0ECELlnkspCRpUvEeSzYgPeTIlu3YdTtZOQAmtkz9g2TI+miT3RDguPKpUKeD7OzTvke8qbvZhwcaoBssQXa8Oq5fr9fWBaB1wG6q4xpm6Yf+LPRt8tu9NXBkWeQxHnLu+0hJ3uPm0oGh014usWBnkTmSoC3FbGGABAXEWWRnW0Um2Nclgl9dcI0MeB7tlumWTJg4V4zLydFno1OkTX34ye5ImGggB9Yn+iFOGYAShxgLMRHCAR+bcbqpGsdWEfEZj73Ku+IKPZAdc6ytNx8aMZ/nfDm83kZxPF4LPtZCEKwDhgILK6qXjZ7w0RYvOGFEKbOGKDLci6jsmCE567X63h+fi5bDcyYYG9MuF9cXJS3HTAO3uJ9d3cX6/W6ZZQYEYklon0C+HA4jI8fP8bf/va3+PDhQ4vGI/yueRP/jsJRKg7nORgQKmPiH0bG5y4xmF3Rd5e6SKr02adcAGJwNowGR3A52sHSDkQyB51HtJEiBlnXdUF9MBGM3uzaK7qMeh0AkJkPH3c7tlP6y+IAHJi2mGMzEkc/BFh+R+4ut0Q0K2UdGF0l8YlCyNeJgp/dJjJ0wKaPBk0RUfyNi0DEs1yy9FJ6KhwuW2FXoHxs1knW+j8c2u+N9N/or4MuQdTAkP2SBDn0ih0if9okQPI78napzNuJaMt7PB1rvNfYdu0g6ufZ7/yzkyC6JE6QQAwYnAixI2yecdsG7Ku0je0yTuKOV7LyfBIV6wuIC8ReV3Lop+My3yFO+QB2/JGFQ8iDMe92u9ZcoX3Wid92S05hDLYxyxZ9vXa9m/Du7u5Kg8yX9Xov819sTPWclJ0Pw0AYRkYoICcXlz5IZLC1iChv+O71egXhwSpAdPlECtAab/yG2RkV+I3MGc2SbKuqio8fP8bnz59jPp+3UHtmTmaMoC4v3jkem/MgnRwwZLMEOzhy9NFsnjtwUMlo3eUoPveiGC8qMbixUTqYYIzo34mf752cnLRYH/9gfi6bOPnwuZHia2VOsxv6wD1mGa4uGDgwdn62g7rcRwCyo4IozfpgpAAAkgvfcymJy+NycPZ+PIM6ByV8xgmIMWbWgJwZq5+VmbZLSJlp4G8EN1dkjOSxf7N26weAZr3l7TJ1XbdOe3LpKyJaFRhXevie5UsscwkPeeQ2fWizv2eggZx4fpaR9Uyc8Pwa/fFUkVklbdAvV8dclvbcH/J2vHDfvBYBAMozGRfxNvehK7453iIzpgmcA0jq+P1+vy/nhNqXkYurBfgPsccH89v3aOe1691VmrwChwGTnZmXQyhOEqABLhAxxkEQ4Pt8ns+MNCKzY+PMOArBE2H7/XVenblYLGK9Xsf9/f1PpRMMJ68uQ5Cj0Sjm83n8+uuvcXFx0UpyLk8abTE+IxcbkCfSYR02NhCo50xAkKwkBaHRdzbbk/SMiFyy9XgxIgK9k3hexODyhBOdmYQN08HTbITfPbb8sxmpN85n9oANOnAR7IzkjQQpM0ZE2T/pfXLuK/aMXeZJdP9MPwjkyJ/yO/0ChHk1ay5dGkTxM/+TcDOwMRuIaObDHATRq8tZTmyZaZtVgPa7yr9eIMKFjeUg7tWyDrwEQXzGbJ/v4W8cSu72iAXYl6seBhVmZTnAsiiPWEb/Ddq5zOw8PvuHYwM24DN/iVXoBXsDTJid5WpSDvBOEujcY6f/XtiFnfT7zepN7Dzbhp/H38/OzlqHkADa0VWv1yvv5vQqWPwaGRngdIFVxmfQ4iRs/b52vbsPz8Hv4eGhnL7iDnnCF9ppBTmpWWhGcU4wMAwMnPt4Dp9jiKwmtYB4pin809NTKWPybByfGjEOZ0c5PX1568Dnz5/j119/LWUCBxv6ZOV48tr/LAPkhmEgM8s0zx9RjvR8klkQYAGncdmI5E8yQO5+GzTPJDEw52Qg4vmFrvIP/URHJFPkZbDiwOGgQXt2cgJoZgUAo7wkHpYF8icA0E87KO26JJUDBXZlkOGSt53cOnbpmaSdmQjjJ8BgL/TRQdkM1swl6z7rPJfOrEOXaPP30I+RPX3Hpg0QzY7NpAxyfEgybVC18QXQtk6rqlngxcEO+LQDueWOrRkwIU+qJrZBxuPVuPZX688gx2CfPruE6YUmyKhrHgs7sN0xNu7Fvj0Ovm8fpY9eR+FkbnBgUJrbwleQHX5jUOQEne0Iv0UuVP8YN2DAfXHcxJb9HMB1Zshd17tHi/FgsjMLRJh3iohyyoJP/RgMBq1SoxdkOOGhRNpHCREvm8Qd6HiTOMnQK88YPJ/Tfr//cqTXbreLxWIRy+WylQxdv3dJkW0W0+k0rq+v48OHDzGfz0tfM5LGSYx6SFTMaRmR2AkJVBgPbfm7MGCMg3Kok4qTJkbMs11Con1kxqk1bJqnH67DMy7f79KY5diVrJxAbciZDTBeMzgchrkp9Gc90GfPD7tUSf+QA0EX8OKqgQOfQYttjP5GNCdV+PskSwMFBzgHboJhnpMgmKFf7NlTA36Oy2+0ZbADkHSJLM9H8l2DWmTGs9ymAw827ADl4J6ROGPgGbAb5EFbZhquTuR5KC8wywt5zMZta5ajx0dAJpa5CuQKjqsZyAL9chkseEVwrhjQP3Th/hnM5pXT2J1jn5Od7d4+i8/ksrIXuvF8/MNTPq5UuWrnhGMWneMVF+PwuF1FoZ95bK4g4T8Gzl3XmwmPeQ7oN6Wf47F5m4EdhTk+7wOjk0ZuLpsgIIwIg8AxLUAjfIL0aDQqAyZALxaLmE6n5XSQw+EQ3759ix8/fpTFEgjTGzRxol6vFxcXFzGfz+PTp0/x4cOHwv68YZOVXg4KGBflAfad1HUd4/G4yI8rGwNyNxrG0AjeICGzS/4ZFSJfJv+RM6el+FAA9Es5hxVRZpouA5plODnlgGDH8Fj5DDuixu/g6OpARLSSp49bQk6ZpaAbyqJGsdgwtt0VlNGr392YWRa2bwe1Pblkhy/keU905LIQ99AfJ0v7gsvfBiMkDwIifc/MmP9d+ncQztUS69PBhUDGeM2unQD9rkdADIEZMM2JTATG4/GlJOyDMAaDQVmQhJ7MsOkP/7yOwIEde+U5ZuCWncGA/dOgzRUa952/mdkbUOXfSYj2vaqqSikQ+ZEoDPwjmsPKkQUx1dM8GXSwTiCiPUdMLHPfzaRzNYN4wr0uD5uY0B79NSgj1mF3TNGQQ1xuBpzUdV1K4QYb+Xoz4VVVVV5Q6tozx4UZsR+Px7KRezKZFOPDALKAXMpEoeyJQgAM2IEVh6F/LrGs1+uSiGazWcxmsxiPx/H169f4448/OlcCYiie5xgMBnF9fR3X19cxnU6j3++XU1BQqBEFbeV6OzJDudzrkiDKcX+c2FnsYsTGd/LycqNpBx/miwjcbJLnpBc2z2OABCk7J/32FgV05BJgMazBoMiUhH88HssxbujM7CSzARwno03bA7+b+XIP/fPEvP9GMPMCD8osjAcUTpnFjAq9cVlOXE6c2IpLRUbesDkHVG/fMbPNpRvr3AidAGGWgQ7RMc9hbBHNG74NTp1U8xwtdlNVVUwmkxYAA2DRlgMWfuMkf3r68tqrzWbTGmdO+JSpHYfcL6pQAGSfV+l2SBzYHuM0o+HvOeE5cTjReJsL4/SGcfeB5GggxDOIcY4V+AZ27bIk8mOxG4vGWClPgsR+iaPcix3lhX8uTToZmjkjW4NiLzxDZ7Y/dIsdIj9kjnyw8V6vmYpxrGKtA5XG16535/BAXPv9Pm5vb2O73cbvv/9ektP5+XkZECUnIyXYmksALnW4/GXEYmT5+PhYTpzgf+bZUABK22w28fT0FOv1Or5//x5VVcXd3V0sl8ufVgWCHByg9vt9XF1dxXQ6bb0BPbMnFLXb7cpePFPu/MJKkioOYuP1gdO0bRCAoaEH5ORSnEuRDkqumZMk0d1sNouTk5PWQdgEaOuPvns+zjLIcxtOXN47yP5JlwV5k4WfjY6ctDFk+s73eKbLpAQLl9WwMSNvSmFmJ+jEYIz3uuH8Ts7ewOwyN/J00vR3XCaz3sxW+NxlHKNv/m6mZ58iuRhgOdgS1OkHFQtkhT/QvgMRZXuexfL+0WhU5Iwe8YGucj3+68VFTji8AYGKjm2aJOEqEwAL/0YObtef2XYI9vQRmRpYYI8GROgNm/OGehKAAa6ZtP2MSozZkNl4nu/2njUv/mDxHvGGgzcyk2VsAA5kQ1xBhmaU9MmVLSdBnoduDDSxVyc8xoPMzaTzG2IcI2H42KaJCGdudl1vJjxnShR2e3sbm82mGDYsqq7rVtA08+tCQ3YYgoHZiZWL8SO8Xq9XFp4wUPbkcdwZJYHb29v4+vVrPD4+lsUXdhKch/5eXl7G1dVVEbQRHuNxkOVVPkZZNhb659KTFWeDwnC4CFjZkY2WYLyeFMfwjDzNsvlHGdNlQPpGsDADdxmTQEqg8zyEHdSO1u/3C0CywTrI5zo8NkHAzfukbDfMa2Kvuc9cHqcR5n7/spfU5UTrnsDivUtm35aXWSN6RheuUPAdAFIuq1Lx4J8DiVfSuTKAnaFns0Oea592knSJ1cnVQcmAFTl6/s765/no2dWVqqpKUM7s2qAZW8sxgSDMz15Awxixl3zZLhz8sUPLhc/5m23dQCIncQMnj9VyMPh11ciVKFc3/DnJxXGWRGj/wS/cJzNP4gurXhkvcc2LjIjP2JftDhvy//TDMc8VDzM9P88LUYjBfh4kirKmAcpb15sJj5IaiYlFJDc3NwXtTSaTspgD1OygDXLxS1x9xl8uJXA+poM6iJr31fntBrQ3n8/Ly1NhRpz2wl7C/X5f5vYInjz/7OysbD3AkPyWdRsIK8N4FvN0Zgk52UdEKzAR1HBUG6ITK4YKk/DzeY0RxuM5IAchBylWLNIXM23rzeOmTSc4gjQlUvefcpIdD6fFlgjalJuYy6G/rgSwSAn2QX+Qk/XB/cjKgcxJifucFEhuBDaPh++YJWV5wcZdUjMA9D0uIbrU7vGhPzOlnDQcQJEpgcPMEMDj0rj77sCKviw/kgB+0+/3S2naIM7AENukDYJY1rmTFEGNYIn8SPgAawNPfh95GwAAIABJREFU348/O2kBXpxYaNMMnGdyr8+K5Ht8xyARvWEX9A1ZuQTqJGBmxO++7AfoyfOhfjb3O2ljC2ZjLmVm+2XMzPNhB57e8OX5U8eaXPJ1dYvxWr/YB234OZRXGZ/L+a7Y0T8zw67rzYQH4sJJSF4wC4Let2/fyndns1lr7smTjyyCMSPw5CzCdnDBuSaTSalL82JWFtF8+vQp/vGPf8T19XVZQvz09HJ4NHNTlAp4izgrvAaDQSlJDofDmE6npVTAFgX6bTRNMPRh0FYwY0ZuPt0jolnByLiNxKHkDsYOtgYVTp5OTjwD4zBTg5XCKvJePgzHQcVJhraZLyMRuSQIGgd18dolI2RsKJduuRgbZa3cLvJ3CdD7uTJ7QaYOIDBkgpjZk2Xn0qf9wWVXy5+ElRM+7Zt9e3WiA6NZBf0zmMn6caDwPBKyJPA4GLnvXiCVy1To3OyQvnnRgb8LoPQCnV6vV1i/F2dgv9gXdpWnOsxAkAdXtlH32QyHQI3sKelZ3lQ5XPJF57YLZIttDAaDsina9k8CzEE+oikHG7A5CfI9s0iX5vNcO/ebiRp4+7vuD/HW9kQsNSA2QMN/PHee77ed8b/nm+mrx26G6tKvGaOTMQsU0d1r15sJLyJKsK7rurzh9+rqKj59+hS9Xi++ffsWm82mbFCfTqdlewHGjSExB2el2XExPJgLRsSreLbbbazX69hsNrHf72M8HsfFxUV8/PixbBtgg+NqtYo//vijGBwbsh0IYaSTySQmk0nZy+Pd/y5nuNyBARAAq6qZt7PDex+ha9YEGPrikqMNASPLdXNkh1P4FHICohMlTv/09FQSvld3eRxmEvwc0bwFHGMl2TjY8bNfCGoUCiuEETlIIePMXsyyXFIxcyYg2LFzwrITGUy4PPZasHH5ySUmkhFs1qV8vpeDkINjRHuDLu1RxjOS59nea0fSp12eBUjzKmEugqQXCrhE5eBiwIVOHOgBBvzueS/Lva7r4r+LxaK8rBkfdNLkf+wM8JABJXbpZA+IQlaZ7eZFIcg/gyl8zCuTbR+ZzaF7SAElTJeF6acZLP5shuvSnZmT/YM5OrfnJGI7t5/kqgd/R//Yr8vnyI2KiBOK31tqcGJ/dfuMy8cj5kTNmDODZUzc47hI3/y3ruvdkiYD4XDowWAQl5eXMR6PS+cIYgjfdXkM04kHR2AhAgpk8YZfBQTyXa1W8eXLl/j3v/9dFj4MBoOYz+dxeXkZVVXFarUq2wa+fftWSpkOnEbpzMmw6pSk7hoyActlNStms9mUAOVgYybm4GzDoC8oEqZlRWPkVvzz83Nst9sW8vPqSZInQccBcL1ex2q1Kk5OSZZg4QSJk/gMPRA7Do5T01eP0f07Ho8F7MBgQb0uKWFHBBQCudkT8rUeHDjMOh24DQZsE7TlwJbZkPWG/XrBk0thDjTYRr//Mt8b0T7Si4BPAPPiFqPhzN5sW171SvuM1VUJ6w4/5XkGH26LsZnBOuFjl9iJj8uzPfb7/daxX05S9it0ZqZVgtVg0JKzg6pZjBNIBksu1aFT7w3mok88z7KkHfwMnaAX7ve8lf3TurGvm42T7Dylgc24gtbFsiOazfIGI06axBv0muesrXuzetr3HDUyxoc9XWIZ2ocsb2TgrRHEjcyG0bXnLgHWZvavXW8mPFZGoQy/nYAOZURb13VrJZ1XuHliFApqofA7pSIH+c1mE9++fStvYKAUeXl5WZwMAzkej/HHH3+UfXD0kcT18PAQJycnZV8czwcJWxEOtM/Pz4XlUJ5jPpHv+5QFvpNr0F0GaybHZcBAcII1c9ivZT4ajYrxYPC+GPN2uy0bjs2mCMyu/RPEvOoLp8MRcWwzCQdanMH9YKy5rGNWhYObjdmBDQTMCP1sO1JX8jPDdgnSh5/zfAc3+oKDowczcZdfzEbM1F12NOJ34skLtswUkePhcChz04zVjNGJjnn5Xq9XQI7ZooNcLon6wo+9BD+DB78B3dMCriA4sXNvTnaUzLy4x6DAANH2Y30ZXBpsVlUVo9GoADgWvtlGsSfbN89wIuAzJ3zk7jlMlzcBfrYDl4GRhZMj/mId2cZc8rRMnaQdA2grT2m4tE8ctZ86fuRKFn1zksbu/Jn1nOVqv3XSRI+ZUGRGmK83E95qtWoF0U+fPhUGdXJyUlgGgY8ymZEVncdIjV5dyuF7tG+GgsPb2KfTaVxdXbXmbFjW+89//jM2m00Jdi7BZMGNx+PWXIzRJ227fLler396swNj8Ko5nglgACTwN2+9oC2XKHPZiGAAen5+fi6LTyKi9UZ2l+hgIeiAIOcShtEWwMHzRQ8PD63VlQTHrrIL/9twPceAUZNcsnMZJdK/iGaRhxEiujRbNbtzgKEvuXRsBI6cjsdjsW2YKQHKds3FZ07ADt6MB9l63oJ2XXZCH9YTz3YfI5rVmOgFfRhFO2llxu7n0abHyt/wI0AaVRKYq4GhE7nlTTWhrutir/TDFSJkyX0GknkhjJO/QZVBn23PgRrdmD1YJ04wLus5Xhm42nexQfpJ+wYNthcnCWy7329WHvN7tjnilNt17HR7tl/HEPprZu9pAwM2Vztcms8JEB26ksH/9n2+g5+ydxA7ckI1c+fZrsI5/rx2/UdHi7HAYTKZxMePH1sGCQPJh/syKOgmiuC7JDE670z9/PxckOFkMmmhdVAlx31V1ctrI87Pz2M+n8dff/0VNzc3rZNRUNZ+vy/zdMfjywrTX375JQaDQXlbAoaN8CkZeT+SkbITHWMjUDP+jChziTKXajAOl7KYS/WmUW/rMBPhdTvuY2ZfOLNRso20ruvWsxwY0CnoDAfg+QR7WCLPQh/8PZd8c7kKx3M/+buTu8eSgwKX2bXLXEaH/AwSNePCsfnc8sDRAQJmEpTo8Q1/B9uwDhyczarwQZeMWHRhEJLnjCglonvrmmd4LgqdeTN4RJMM+JsZmv3C/k4/sEWe7wDqZOyFXYwRAEy/HNSyP2XbMZNHLi7ZYxMkfvwYoOEXYLvvZtm5YtB15akL9zUz8Sxv7rd/OgHgXwbxTgyOIU5oxA38lvE62XKPQVn2b1caMiOjrSwvly79HYM599n+AJDwHGP2uf864bFykYGcn5/H9fV1LJfLsjoRoeGAHOTK6QpWHgrJjk1nKSExiU3Qp3w3m83i6ekpJpNJ/M///E/ZYkDfTk5OYrValT6xwAVDZL4OQbJYxYmafjI+SoWUZY06jFLqum6VlECcNkobI/J1qcHyIBh6+4MZGsEk78OJaB8BxcpX68moyAwaWXmiGocEeXlJOAZWVVU5icbPNjvxZ8djs32FIOq5MMCGEar7bNnTJ5zO8we0Y73lxGm2iF2YoTvI8jcj1JysHLhciiSI59Ia47WjInPa98ENyAAbI2ARSFxdoV/MjfNsXrHF2GBCyMelXZgcKN6vPuIe/+zSnwGugRuyJGBRLgdE2Z4zk6VPmZG62oC9eKqB/9FNBhNui/aRtQGtY5gTVgYRfp7nxLjQG2PDXpw8ibu53M99AM6cEJkrtV1xH/Z7OBxiNBqVPnu6IAN6gwL338nKdutKlw8UsJ+438gHtuzP6D8lYnIK0y/4OTqzv3Zd756lSfDHGF1LdyD1ZTaGkryU3s5gSk9gYJO4S06DwSA+f/5cyngc+UUfq6qK5XIZNzc3xWHNalg1iLLZghDxciQZ6Jl+nJycxMXFRavGbaU50EW0kxTBB+aJYeJMjJv7+dmMhMSP0xgJ879BAzKy8jEQnAcn8BFL9BWd0C7M2AmEZ5iNOTh5HiiiCRZekMJ3SPTeQEqbMK3dblcAlJ3Fp7/kZO9ElpNEDlJ+HjonsGGfGWEi81yK91wNn0U0CZzLyJQE4vKn3xtGv3g+n2eE7QqIf45oto+Y1Tv5mg3SX54V0QBJ+kyCBJBiFyS8rCN8wnM2PM/JOuvL88Que2XZMkbbOUnYINGsnHhloG6dGhi5tA/bcVC2vs3cckLFJ7Enf8fMKMdDJ3r7qKeDctIiQeTn4Js+A9jgEaaX/QRfQNfEIsbvLUWu/jAWVq5CXJyQ8Q0netrB59AHsoAh8izHtrpu1kx0Xe/uwyMomYFYETg6S6A5t43vGDkaiaIwU+dMvREI7ZyenpZ9cuyPY8Xmbrcrm8y519scHHgRJPevVqvi0DDavAfHbGMweFnVZgbXFdhwWNf9HcScYGibhOj9O13oERnhMBgYRkmfnSBpx3MjBFAbvlFSZhv+u8fPXC/9RRYul9E/2jBTdgkzokGvbIJ16dt9s43lwEF/GGsO0NYBfTGg8fesiy6wQ3Dx3JYZnIGLkapZuR09JyDrGn/jOZ5npx36ZD9j7PzsuVUzCJJvF2h1UAXAmWkA0gw2zQTcnmVMMPdWFhIZtmu7tR9kluFAT/u+x4nPCcWXmY0TAX5pnVvutmnPXdp/bF+5AmLy4Dm0DHpdpkWf2Hhe1MNYGa/1zZgsd9uQgR2+6Xlf+4XHib06tvlgBmIB+YW/Wy6u+hD/aSsiSkXKydnsvOt6M+FRDvP8w/Pzczm5nI4SSFjllCfNQRZGsJzG7wzv/31aOsrnGZSqWFgwHo9jt9vF9+/fI+IFUbDSiufZWfr9fux2u1gul0Wg4/G4IKOuTYw2ECMgFJjLKlYWK0WNzqmZe5m0D3y18vIEeEayoM5sZGYvGERVVa25uczeGIONCwPDFnyEXA7w2ElEcxIDc4/WgR2J57JXknZpKzMWxuYgyj/sLa9+RAZO7mbCnsvwZ1w83wkINOr5Ey7bc0bhZqU4vJmEwaRtj8t7w5z4SGBGvl0ImX2tLnsaqHTJxIHQDMulKb7juXj0ga7QCX7M70bqtkliC2zNqz7pA+0YsNAHl+MMiDwdQ5kvsyonIycuEnMGHrRvkMT8XbZhM1Zsx0Agg9zMiPncACD7BO0ZlOftCvgN7Rks0TcnaNu/5/ANvPmOF5wZrLmdzHQZP4dNID+DI68BcPWB7+TtDb7eZXgMajAYxGQyKQjUS9thQkaZGQGs1+tyQosFked9yOQZWRNYx+NxKyHxnMfHx1gsFi22RV+8PcAnCaBw+sQLJTEWH1+G8cLYsmF7jszL4Ok3Y6O9XB+3vChnGvnyXYzZTmSZs5AhM2ujWJwgy9EO7e+b3RulOrDlNqqqKnJH39vttrTp7yJLL3jALgj2Lmka6SJbAiPfMZvHLkGy2+22gDc7mgMz8jErRnYZwTI+Jy3KrWzRMXgySAC8EFTMbA0O+Gd0bNCBD7r0ZqbGRYCm/956hB7s/y7bZVtkzE6u1hX30+Zr86YGGfYXLuJETh74qNm755ZclTEDsK/wXdswMYjfWejG2NBT9hPLxZUL69H2ZobpZOdY4WRjXbp92zz9yOwz+51BjpMPNpYXXtkG3CczSDNtr1y137jC4ssVnzynarDgPAMJQpckdF4Z13W9mfDG43HMZrOfDOp4PJaXqprNmQqz0INEACp6fn5u7ZtDUTmgctoKe+n2+32cnZ2VuT1QPIFpvV6XuQmEZgVm2n1xcVHmAwmCsAKSFgkwLx3P6MToms8JWpTk2Odj9OZSVy5V0Q7OYiZsJoIBmfk4wGUHQtZGsF6cQkLxHh2PlWdkZkLAyHOW3MfiH+8fZHxmrdiDg78dizE5WRIEjVqZZ0JG9MOAyIHasuvagsB37Hj0P4Mzs2zsBZ3RBjLAaSOizJHTb57FfBj2kdkQ7ebyFcnD8nbQxh+8StgAF58loednwb7N2DMQ8zN9AW7MzCxDM2QSnacDsq9xnwMnffX4LFcnfs/BsveUY8fwD4MqZMtYfLmKgC4yi2Fs1qF9LD8PuzT4yknFfm+mDAAiVnMf/XSbBgtOujkG0kfL337sMXmhVwZRZqiONRnURjSEA3mYKbvy54pYvt5MeBz/A2NxCWI8Hsd4PI67u7sW8uv3X94dB7q3QUW80M3RaFSYSE5GBFuXACl1wUhwMEplo9Eo7u/vW04WEeWNDnl+AEbnxOmVdxgCjobxIEyES+mO0psXJCB8kh0n03C5DEaf/UZvJzsnJyfKiIYZ2QgyAkYeJE3X8zEYL84xMzJTohTqTbI8z2U2AjKMGjkOBoMyn+og5wCA82Um4rYJMCRbWJRX2KEDKhAOmpkJYR/Iwc6NHjKLwfGcnFz+sfM6SLtM6/bpSy770Fcfvst9BIacOAjI2Ab3IAe3Q/noeGzOJXVSsL0zHicY2yHyQO72CSdey49xum2zQvwJfT4+Pha/ysHapUrL38HWpW/7Fv3HLg6HQ1ndinxpr9/vF+Dtvhr4vnY+qhmVE2OXbm0DWb+06/k0z9HZjpxAMuvNK+kdmwyMrScD7S5bt/2hP3wo+3pmqrTv3y0j94HtNsQ/tpP81+/Do4S5XC5b+7wscM9V8TAEWdd12UfHSjEzMzs5SmGgsEfmDHkTAkEd1Mlb1s3qSJigNKP8uq5LWwSRXCsmMFBa9AXizYommCIT2qYNHI/5NrOnLuPK8yIZ5XCZZdpoSdwuV4HgvXWC8dv5SSS+D4N10HD/jfCtHzszhpqZqzebEqwyA8Q2vB/SrI3Ed3p62prMJhhYbi4XMx4ndgfD7JQOnDgkCzQ8TnSNnRsURbQDhZfSO4B6DFnnDrLepsKV0bl1jU4YD5+xsMvlUAd7ns3nPN++Y7bjxJYXe/hvgDLbvANklw6dIPJSdPTlqQhsFBnj57SFXh1QPW7boVkZMYoYZPDvBGCWxzPpa+4DusvMl+957BHNHHhm806c+E9OHmZMfob75OkK24YrQ9aRbZT7Sf58RuXPAJUKXVccoi/4Cu0Rc7ya3GPJ15sJ7/7+voVkvMiCh8BKxuNxQV8EdAc2ApoZkxXhuTwMgdLCZDIpcy4YH22xqvLs7Kys4GTgMFMvbQcZEIgQqvtMmcnUv9d7qeVzLFlewm5UjgF4vhJD83ftUBHNPi8U6/KTnRFjoqzkMi7G6SSKkXljKZ8RjMw4nLyM7L14wPLJ9/E/gMOMzuXKzNqwgVwCycGb0nZmydieE1NEM1/A76wixumQq9sBoKE72jCzcuBwkuK1UjhvZnNG/S6tUt1ABi4lRkSx7YgmoVLlYHV0ZugcnUcwctC1TbpcZPZlf8XnXEUARLnM7eDE52ZQPDv/rStJsFDKpTTPeSJDz6PShsuO/txBH11ZP670+Ln4F7p3IiD4e56V8bp/tGOmw/fYx2zmbWaHr7hEi82ZDFh/tn/0CZiwTWe55Pu96hyZokcDFAPIiGidi0z/sXfuJ552VfrMJPF/cgN+TjWoa5Ffvt5MeCwC4VgpI/der1f2sh0Oh7i4uIj9/uUwZbMFaKYVbRToJMA9BHEESaB2u6BKhEPC2263LdZm9MM5ni7tGXXjsGY8BPrD4dByKgxrOBy2HIO+Y+Rmcu43RoZMPO+SkSXs0DLMlD+zH0/Cc09G4NzvYOhgadbgVZvWlcu/JEFkmQMJrNnOy9jpv8GPyzc4DPaIXWU2hE14LolEYRvyOPPCoogogdDBy8HAAQI7IkgyN4yzOzlm1ujg3Ov1yhwdgMDME5lZtsvlsqUDkl5Es4eO6YV+v3kDPQAwvxoHuRtoMWaXppCdGVFVVaU8CoihHS8QMnOwrTswes0APmf9OJlZF7Tnfjn5mAkRHB0T/OYJl+3N6LOfdNmFfci+lufw6CP6d8ndy/SxbduLy/AR7YVzmUniO/g5IAVWT2z34hz3kefnzzIAZDx5hbGZ+uFwKKdE2a5ph7bN1jKAzVUHX5lI+Hr38OiIZnmpa9qwqtFoFKvVKgaDQTlhhQHCvhwsTk5OyjJ9jNgOgGK4zw6UEejh8HJawPF4jPV6XdB1RuwWOnNv/I2jrtjwzvcIrM/PzVu7YUIuY6A0xgP7MKPl6nJMI34rFpZDuWq5XLbKYyjaTM5GYb3lIOZ7MDJKBaAt/kaiM7qlDZzFTk6/SDQOol4UZJk4cQFuOKlnOp2WgFRVVbEpJ0P063ISSJNxer6OPrEBF7n6MgjwmDLzwx8MTNCRmYCDgN8nZqdH38x9ZvCBHJwUnMwj2qVw/o7Ns22IZzlwmEVklkIfLAcnEtoCbbuPLuMDTEm0fiY2hS5y8kUn2ZcyOCI25X5j+/YZxk7VwfHFTMorC90H5JDL78jQ47K/0Y6Bn6sdtkE/ywtPDKCQB/32XDOXfcEM2okdmfsenu2xmNkSBzKY4RletOgkTF+8ad0VCMd52wE+z7OzjeQYmK83E54V46Th0gqO9PDwUBaWwLIQymQyadWXSRY4IKU8KDMDNeuxAxIUQfrr9boYPyem4DheIJDLCzg/wQj2wVj43aVOBI7idrtdCwHTXnYAJ/Ner1dWf9k4QbX9fr9srCfJ+u3mGGNmW55HQE5mGBiHg7CDXjZQ9E4fbBOcs+oAmJlxZg0ZidkxIpolyDgtzzdDddK2U+KQDmK0471SsFw7Rg4cBDkDFuQOi6Xc1sXa6IflgVwBMKB1SrPInmcbPSMjn2TDcynde0EVzI7gWNd10RcyoQ8wBZeuPc94OBxKFSQnO9uQWSIJjXstP8/5Z7mbmVjHyJkSOWAqMxmzwMw8sn6pNhhEeA4Jf8bnGKP75s/tx7Z9g0r6meVlv8KmvWo0t4UdcqEHr+a1/hi/gQnyyjIxKMcnkY1ZF/GSEjz9cCKij65avbby2qQm5wDHc+vcSdQs+79meKBpn2vojcAg5OFwGF+/fi0oJCLK0VSUPB8eHuLm5iZubm5iOBzGb7/9VgbgRSAImHKhURcOPZ1OW+Wv5XIZDw8PsVwuC9OzoRFYPnz4UFjJbreL7XYbo9GooGrGBUrlHwnHCANazsoxWCJsyQkTB3EQJfi4lGjDNMV32cJnQ3qVqA0WY/IqsC60SGByKdRB3o5Mmxiw9/phcDZWl274P9fWMWLG5ODl44cIAA7gZpye6OZ5XqVpW7Cd8ZnlZmZmmXqS3I7o5JMBG/Ly67EIqi7ZZ9DCOMzC+K6DnrfzrNfrqOvmFV68BcRydXCynPicAImf8TO2hAyMoM32DV6wDQMM7NB2hY4j2qfyOAF22TfA1X2xD2FH2T/QHz6FfN1fP8PB1YmK3x1kc3nWdtDF/LAZg0Fkbjt0CdZjch+65OB445iC71gXgCCARNc2BCc8bMJjwV7NHHu93k9+YXZpAJAX07ksiuzok4GM44bXHXRdbyY8NvBREik3aUUNdXs+w5ApWcAAF4tF/POf/4y//vqrHNj8+++/x/X1dSlL2kh5nk9md7KhdLnf7+P+/j5Wq1VsNpsWw8PRLi4uYjqdxmw2i4eHh7i7u4vtdht3d3fFYM7Pz8tYWQSAYlAGiBBjmk6nRTZ1XcdyuSzbLXBG02+chXbtKCBNlEXgshGbRXDZuOiXERQGgdFhUPzvFYJmxEZMgASMz8je4MLyMis2y7PxR7T3C3luKiIK+zH7gMWzWMpGbychkbJ53HMTyDCXfpChHd5zDV6p7HE6YZEYHEA8LspntiU/z4nZARy/MIggkHmhi+dzvOk9n3TjpfvI1nbgFXCUInku7WC3ZiOe92LqwtUbxuRSJHZFv70SD+CLHTjxA3aQKzLMCcK/OxmahRNszbTQL/3JsrLM8BlXHBh3BuCAJU9PYIuee6bNvPI1M2H3y/7gJGsf830GjPZ54gr98fPdj8xqeV5eR2Awgb7cbmamlmmeFsq+RT+4LJN8vZnwvOAEA95ut8UI6NR4PI6rq6v48eNHq0P7/T5ub2+jrutYrVZlfwTnXs5ms7IC0yUsJ1eCgScw/SaDh4eH+P79e2w2m5JknXRGo1HrjQNONPf392UhiwNKpv0Eutls9lNt3qwvL8UfDoelT4yFI9lwUPqEc6B4bzJFnh4bv5NY6QsAwSsvPS6Mx2iM77KqlPuMqK1v/uYFNHZeG6sZvBOzA4xL1pzG4sUtZt8EJJ/cw5wqskRmDj5eCQawMEDIbA6ZmqnaqVyiMdIF4BAsLCfbRp6HcPDHPtG3Ga6TAfexF5WKDGPxXKEDqdlr1rGBl1+P471NZjVmgQYr9jeDjLw9Ad9DVwTlnLgYh1kI9uB7LOPcF7NplzIdWwxcSIbWvfvpxWokZsZmwG0WY19yxaOLndo2HJ8yy8sXcsjMEv3gv3zXIMbTF06c6NiJDjl5fGamfIfn5f6aPXp+PSd6rw5lTPizgTjjtJ/m682El+eXHOgymp/NZrFarcqS7rOzs7KXjkHwokivilwul9Hv90tiygjVZU07M6XUv/76K+7u7oqTkgwo6fCc5+fnmEwmcXl5GYPBoLC8/X5f5uyMFFjMAnvl5H5WrNZ1XcZnZ7ZROdl5IYONzfMp2WDsNAQPHNXGROLEYLhcTsnPJPDk0omBBwwQPeSg4EBko0O/RnyMke+ZDdAWDMXOYnTIxTipMvCdzGbG43Gr8mA58LlZsMf/WnnMrMBgJJeULGszSMbEnBvMyQm0qqrW63vMcAFWlCKRme9HPshiMplERPOamVx+cwWCv3sagyDv49Kc3LB/I/rDoTmJJZcGbXdOXAaQBk3cQxxi7t2gMANW+gdYdSDF3tEH9uo2HGB7vWb1rMdrX7AM0IsTg5MPnzlBGxjZvuxr9ttcBjWQMsDABl06te5gxaylsC9aFgbk/NzFrjIQtv3Y94gHXseQ/csVEICOgSxjy+Vm5Np1vZnwjsempENjHPrMoAgu8/k8FotF3N3dxWAwKK/WYZn/dDqNjx8/xsnJSSk9Up7iJJXJZFKM8nA4FMNhLoZAERFxdXUVDw8P8eXLl7J9IpcYbNgRzTLt+XxelP3w8FDm/TxnORwOYzweR8RLAOegakqZDngokQRxOLy82oY5TpJzr9crzzKDdJI0YnQyIsjhhLzTbL1ex9nZWTkQGKNBFi5Z2ngc5IycnEyZlCZweFVmNkYzDozSJYccZHEYM24c1sjf5Qwcwe/x4jKo7cfoAAAgAElEQVRq9fwAtmDHggX7e9aFA4715KQJQMmlW/zGP3PxfAJs1o3lw3MNDMyEIqJVFuUoPDMHJx9sF0aKn0VEa94mLxBySdpzZsjGDAEf8Opc+yVj8Dw0VwYMZkYEYJ7jeITtZaDSlThtrw7MBm2v2RXPyAt6clmVWEC/+MzkoassaXkZPOTSYWZ7ZlZmdjzTiZHPGLNBh5k3fcoM3uOwHtwXt52ZbZ5WMaCk3x4j9+fnkfx5rkmY2+u63kx4BCmjSiNjSnMRL8ljMpmUDeinp6dxcXFRkAUC5c0Gt7e3xTE4LWW/38dwOGxtNrXAGTRbFf7v//4v/vzzz7L4xAp2ECYBsyr0eHyZ1zs7O4vNZtNawHA4HOLy8jLm83mcnp7Ger2O5XJZXnC62WxiMpnE+fl5eRszyYETPqqqect1XdetfYQcREviyIHDKNTBmO+RcA+HQ3l+RjzeVoATuKzm5MD37EQO7LTv72TmlstAliX99OkmJDbQN4Ef2Vke9Ann8JxQRLv0gzw8Xu+LzE6f7SqPPwdSxp6Zj50YeUZEq6SVgQ1tMR/J97ANnstctZErAdFl5OPx5Y0fZme0RbkNEIn88bOczB2sYFUkPBIWciB5Yk/Zbj1WAwcza+vYCTSzGKpGTvr87O8a6LpsCBiwjszOzepzkO2qDKCXPC/N2PM/vks7fJcY5/K5++7SKs+17eXSseOg/cpytlysg2zXsGgnyJyIzSqdXA0uHD/sF4Ak4j0ydexxHqCfBqXWO/J47Xp3Hx5OxcMdOBy0D4eXPXGfPn2K29vb6PV65fxIBLLdbqOqqsLkHh8f4+Hhoexzg6nMZrNYLBbx5cuXWK1WMZ/P45dffmkFy+/fv8eff/4Zm82mRdmNvHBQgqsNFPZK/5gHGo/HMRqNSp9hnv1+v7yyiH8EJtgMC2ZQgKk6z3QAJkFgpGYjDoAYOldOOJQluqi82TibjM2ojMpsvGZbTpxOCK7r29iRjbcGONhbLmZJfhVVdkL6BNAyqgWhOog6AFhmRv/00RPzVBCc6PNnZnVedQkjxi6Gw2GxCQIWDmn2aPZLPx1Yct/NCJ2w0RljdzWFM0wJPMjPDKwLZDn5uTRJH4zAbedmZeiHdgGD6BJb5jKIs1xI2Dwbm6Jt2zBbGJxEPR3A/4BRLnTpIE988L5NPw9bcgC3vFx2Q5Z50Qb6ddmui93ZF8x6Hf9cHcoMzPZEjDQr4me/8SUDIYNj2wt6A5A5Eb2WCDPQMcCxX3hBludfAfhdwLzrejPh2ZAZIB11wGdQh8MhJpNJPDw8lPk8GA0MCSbmEyEoGW42m1gsFtHv9+Pm5ib+9a9/lbcYXF1dFfa32+3i3//+d+tUlYyybVSj0ahsmmfRRy5DMA5KPpxOwUZyK5gETbBDWZTwMFYbLgzWhkvw5NlGxIyF53rxAnOJVVWVeUIck/ZA3xiR282GlY3ECdsgwSjMjMqoCn1w0jzMAHl4vCQbO4HnCmgrl08dOOinS0YORIC2DCqQr4OhmTWBEGfNqy/pCwuoaIfx8D8gh769JluXeBiLgxmyNPI1+vZl1sP/MCT3MaLNNJyUXBLGtnPVgCsnZP+dtgzIzIbMPNAt99E3L4zAvw2IDKLMCuir7cf2i1/52C+Ph3YcsJ3Inew5NCCPHdvxmJ2EnJw8RUL7XHzHendffaiAZW3GSJ/8HcdObMDMlj56TNgNf8+MK7Nm25Hjo2XlfaqARP6OHi1v9OoEa2D52vVmwqPDPJwAzzWZTIqAttttYUDD4TB2u12sVqsioF6v2TiLkRFUMKK6flnEUtd1/PjxoyTN4/GlXMPm6+12W9gie+b6/X6Zw/ACi4yEzSwIJEbuRkEEI87z7Pf7ZfuDg1x+Dom1ruvW298JHBHNPiJk47JJLuuZGWFQzDe6fIlh2DiQr5OJ0Wt2YPqTA3Rd1yW4+37+5sU7DsgkOK9oQw7uLwmVe81uHLSwSdrPZSv65eToYOKx2alILCQ72rY8cnkFB3U5j0DtOT7rlvYYo/VvUGE79XzKa+gauTghwf6dRGFU2KPZUWZV2Cn2435mtu6g40VUlKwBn6wJsK5tN8jWyc2JsOvQAINWt0P/DD7pK1URdO4TTJAd7Je+ZNnQHrEAHeXkjr5sR55HdUndunRi53kGfOjC3+dZtjODWbPDzP7Qd2aPMEEu+uDYZ9+0bCwz680+7aTp9nOJ0mM1aPZntuOu682ERwJjlR5G4xovBu0zJTlxhRIV9zog4ECspINtUeJcr9elFPPbb7+V1ZWTySQ2m00LgbIak/o+g8cgHh4eymkUDrqUPoyY6CcBAcWyDw/WEBGtFaQkdBbheEUbfbLRMS9KYjRrcWmCwA6jxpAjmlNbfHKMAzL3wyx9bw6cLj2zSMjI03sTPWazCcbAYgpKxlxs+Od4LoMQJ0UzHxwJBJg3OLuuj03yWUaRRsWuBLg9Diy3vFz+c3t58QffRw62Jf5mMJKDWi7Hwiqxq+fn51ISt414taKTBfKBidp3u0rlyNG+48UAZodG8A5Q/M3z4nxm28sJgfE6wVlfJCZshH5FND5r+XtcOaBaB45l9CsnAoMoJzTkhJ8ZGES05+HQJZ9jczwjl4gtl67yLn3OyccgBHm4VM1nvgwOu/SM3TMfnBMvY/eqaSd4y8225O+ZWaJT5ExFLpdgISt+Bnp77fqPztLkQWy0BiXSGRyDVY08mD1VdkKEx1sHqqqKi4uLwtB+/PhRWN1kMonPnz/H9fV1qx+UFUnILisa+dqp8jwMiRKDzBuEcdqupOfzNxE+f2Muz3V8FIgSvSjB/XYJAcbpIGBEZQcDXNhg+W6uxdvgzW78WQ4EueTmE2RwKPbFHI/HwnrMPpArpTmfkUrbJH+eY8dwOQjZeLO2E5SZAXaADbJqGNl3lUcsJ35Gj1QUkKuDnud3+Jvl6gTPGNlHaMbF6mb3AYZK2Zrf0Q8yQi7I4enpKTabTez3+7LnlXlGqg/2LWTOM5A5fXHg538fI8bfsVvvkUQO1qkZE7HCScSB1sAQG83le5fasq9kRoteacfgi+fmcSMr69NM0jHGl/foZvYa0T210FXmxG5cEcn35sRCH52MsLlsS/47OrD83L8u9sn4vFDMTNTxwD8zLgNEV59sp/ZzA1Lb3mvXmwmP99DBwizEiGYOhg4xv1TXddkIy/J5n1SCYeB8Rp/8Gw6HMZ/P49OnT2WLAyXLiCjzaFVVlfKmy14uYRBs7RQYytnZWXFY78vKwQo2ulgs4ng8lvIe6AQj7ypT8hxP4mcFuczBPCPKz8vXKbNGNJO5yAaDy6dVmLl5EQu6M5vAsFzOwSBhxfQtI2B/zvgdsDF+r2g1As1Ahb5btziDHcFzYv4ceSNHl8S8qhSdGXHzHF8GJvTXPsHYz8/PCzAAHPV6zfmmBiauejhpWp74Tw4OBHQzegdv7Hu73bYOvjbLZsxm9rnE3+v1WkmePrCYA8AT0VQaulbvIWPPN2WgZ+Rv4EmSwJbol8vVTiQEbR98gJ0zZvrkpGamZcaIXzkJ5ZKsE6WDtUu8+IF9G3u33olVeXN1Tswu6edyMH1E1p4qyOsHiD05WWbw6nhg8JbZtYGSx89ntGUQ58Uur+nF5y/TBn7t/ZJd17tHixGoWVgCK4LFWBgMlId7wyuBkvIKyNCnQaBoSjfD4TCGw2FZ+ILyxuNxnJycxHK5LH1FWXzHwieQsJk3z+UQJHgxrEsovV5TomMzO+cWMheJg/FZLrOhfKNMo1uMgJ8xYpf5/Hcnj3wyAv1mzLRtJkSCs7y9oT6XN/L9fCc7BIbPMzBir2blfpI687iMA/ZMW5TDI6Ikedqwszg5ZMbvxUQ4nwOx7QFbIrghG57N880yjOh5dl7Y4AUm2NTxeIzdbvdTUs9stdfrtd4S4SRpUOfkgQxJlMyxm5E6SNMfJwuXmAzeuuybvrnsS9/9ffTg91satLikh1yIKd6GYznlk3z4zKyDROPkQRvWJ/6DLukTNkfCJLGgJ/s4Y3Jy5bJNOIbwvddYWtfV5ZtODNlWXdI1o6Pf+Xm0mf+OPGjHfoGOs33YV4g9BrfYio8k87OYTiKu0X4eq22263qX4Z2dnZXN5kaVpQExP5+qwv0ENoz17OwsttttYUoOWBHts/Tqui4J7+7uriSl+XweFxcXcXt7W+bnMDD6QbBFsINBs/mbeUkbQTYixkaJqKqqsr/QjvL09NTaoA76QAFmUz5KDOd5zQDNVox4I9oJ0hQfA7DjZwTGs+wc6DQzJpcykSGBhwSQEbT7mI3PZRju65I9c4Wj0aiFphkP3yWgI/tcIjK7c0A4HA6x2WxazIo+eSl7v99vzfEaQHiMDgz5hZdOIi7ruP/c69IfAdBo3mDFy7Trui5g0sGI6QbG5p/RC4HbaD+XjegrYzMrt31iL04SjM+Jk/5Z78jIfc5xgWeRxAGDrJCkHOykjM2R8HxSSQ7u2IHBCnblefusH+vbyRqmm9/daJYD4DO4dekRIGT/8GWikZN7Vx+dpMzus99k8JJLtsRXgywDoi52a5/gf8cZYqDPhnWsNCu0H3Jf11aPfL27LcFCQyDeu+Tg7yDB3/wm9PV6XVY47na7krmNxobDYUwmkxbzo6QRESVxUTL1yjaCAyUz+gJjQ8gkJZKXa8Fmih6Xa97sr2I+iEU9KM61cc/zwRb8NgYHKZc0rEyzUdgSQc96wdB5Fp/nv5sFOAhkx0C3ZpkZXTuZOqlkZ6Gsh7zsJGaOyBVWg52RYF0usjOA/Ix2Xfow+sR+7ZQEVPpr1goz8pgyOkbnXu3nMpud1IGLRMTcNHLJ7w60XP3cLnaKbff7/Viv161nuuTn75uxdjFFvou8mQfku+gUUNjVL9tCLiciAzMb+7TlYPuzDbgcD8DMTCm3lasYDrp8F3llsJXbcGUJXRlk5L5wj1mfdYVsB4PmFVBm6GZLBg2O05YNduVx2qdzqdgkx3p0XHTcd9+wbQN7dOPYhkxI0HyegaWTMv3ILJ2/u8Sbr/9oWwL1djpDo3TEqx/NYnAEzqxk8FYoToTAWIlp5OJnRTTv4Ov1mvfK5b1OJAbY6Wg0arWBoXhRhxGzy2pGFiRbFgLUdV1eT2QUj5wICpaLnZ6Ek5lzLnFh3CQpBwKzqq7ghzyMNkFjmTmaTZEcWEDhsxHNZM1YeL7/TuA0w+Eeb/5GJpS8fTi0kyhvFEePRsUnJyett9ZnlpydAzuwvrm8aAnU6lfpMDaP22zOz7Wc+NnfM3vz74yZpG7bMIgxO8Pe8Mvz8/OfDjJHF/iJQVZmItgVssMmGLNtO8+R5YSZmR62zZyi9ZDBFgEUNO+j0AzQiCn4ITJC1/zM3838Xf3JvsjfPQ77UdYXn3FQAhfJxfHIJcKu6kTuD+0BtLI95jbpswFKl/0i58xa8T9f2LDv4bnIzHORZvYGpuiEz/E17+O1fvN4u/rw2vVmwsPJjDxem8BEGAgBRFFVL+/EY5EJA8HgvFmTDdV5MzVL/L2sHUOrqip2u10Jgl4hSf/6/eYwaTYiR0RhEwjYrCizW/pCOYXXCcFejQgdoED9j4+P5VBtWIo3AhsRM2YczKUdK5pSFnI30sJZMCwvoMCIKNV4/saB7fn5ZUsHwcWJLTsa9+RExD30BZk6+VGWNrN+fHyMxWIR0+m0HOOGnrz82cmdZIQuqqpqrV4FnCEDzy/aWTxeBy6v2suoNZ8zafBA+y7t4byeB6Z92HAGefQZ5oM9ABb2+31hOev1ugCFfFSfA6ETKWOFHXG4AWPiXuTsJG9W4/5lBufPDLY81+W/YTf873IuQM5+ga4tf9utk1YuxfE7srfP8XzHBv7n715DYMDjexz0c7XEsuBnl3cN1lkX4Tjp2IXO7BsGN64u8R3Po1km/M1+5ATuy2CNdvPvLqniO+jBNs2FfLM9OS8Z2Bu05+vdw6OzERKccVAexDJzO5BP0oDJuGSQUbgDj5HcZrMpWxDW63U8Pj6W381ymC9wwjwej2VvVVU1+7jyHJoDgFEbhjwej1vv5cpLv83InMBpH1a12+1Kn4zajJaqqjlxwGjXzBlDLYpMq7NsGDBnkrrLCjiT315MAPXB0VwEThuZAUwOVl3MBb0x5+kTdMyysREnY5iqbcl2hC16LsiMmiTjMiSJOyNdl23s8HZ6f5fLSY3/7T/oC/nxDIMVMwnLFDDpkmP+nsu9yBIZbDabsljIYwcc0CZ6d5Jm7P1+vxwPlmMDurKM/NZzmKfncxkvFQhAC/3ibe2Mkefh5y53O+BbtvZN69lADXnZ5+i3kw6+n/fFIuvMfFxVsJ1xr4E1bTpxeIuA45QToJNFThAZYNJ+12pSxxPbqqc7HD+sa8cevkfMcpzOSd82Rh9zYkS/uWRq9s1nb13vMjw6xpsGvAePQEppL6MCOwcrLWlzPB6Xk1SsJO/dIzFiyPQF1kGJkcBsB3fABR3bMGwwOI/nJk2jHbAI0oyfJGhjglHxN940gLIpuSE/ltJ62TdBy8G4S5lOSj6gOZeCcNhsgFyUOZyQcHAMCvmg4yxnxmcnwGDtEAQ0Sj0wTmRup89zZ2afRrgeJ33iMyNzo2gWOnj8rhzYjnF+H7+FrnPQMrBAJjBpVz5s92ZSXZcXW2R5Glg9Pz+XcVGJYE6rqqqy+MKrTl3+M0JG39hlDkweA7Lju9gtz3YSQUYGpfgcz3VVxXZv22VlsZMDSdwJ32DIvoQOAU8srMvVA/rnKQUTAZ5jluU+d4Eisz/fZ8ZHG5kNe7Uy95pdeotIBgpmvfzdjAj/y8ze43XS8X30GXnnUi59dgUu9wfZkVesK4Mqy8mycl+6rndfAGv2EtEkQdeqXfai0x58xMvqJkp7Dqg2Qic/AgOJyN936ZEyJ85K/xzYeVPCdrttMSWEipCNELOzYVj0DwVEvByxNp1OW0wR2bCCkzKR3xFIcDIii2hvOPV8AkEApbrUw/lzfvWKkSb3m505SdG29YPM7WwulxI8kYvHz2rOzF5cFvMKVsALJWaSoJk4Mqct/pbZEgEVObmc5nIVAQCAwhiNphkzl5M6zyPwc1nGTkqWD/p3IkAfZqCnp6fl/Nns7F7ogU8a9Tt4nJ2dxWq1KiUk77fCJ7B3ZOSyPIvMnMjMSD3vzXMdBJEj/WL+jaDmchnPhfUzPleLkBPbpPAZ7NxAyNMCZqA8lziCvWTQ4WpPZoX83eDRINFgCZvx9z32bAc5WdAvv/GCPnm+7PHxsZwCBWsEFOdY499tn3n8Zmfue06EXF1+4SSFrTqeWX9O/tabVzVjT54Seg0wcr2Z8ECqnvR0wkFBJCqjrIi2gbtUgjO7nBERRVGsrCTZ+tmURFi6HhFlfgcFMJ8HwrVhWmHcg0FY8EadmcUwh+iFIGaRBGDPD81mszg7O4vb29tyNBqom+0SVj5G7CDHGMw60QOgw2jQqyG5z0zPbAYHtdEhB/eJFaZmvxgj9wI8cHDkYKQIqn56emrJzgADp/BK14gX8IQdRDSnZeTVpma89MWspNd7mdtgYZMRJWMm8Zntuayd2SX9yYjVFQbs27aNv/A9z+HxGeP1c21z9kkzcvpBIENn2B9JzYDKK5kNJtxPgr7LgRENKEAvnpNyYLesYYfIEUCFTZtZGMwQR+iX++mEkBm+5ZCv3K7lZxma5aNDnpH9hjZ91KAZisGHZew2rW9sGTk6qaE/Hznn59IfQCXyz7JxfLY/oUcnWdteZrz83XHV3zf4dOkUuSMb/ud79ucMrF+73kx4i8WiGDwPpzxHwMepMDaC/+PjY9mCkAfFzyjBg8wJx8HT5c38NnEzRaOwuq5jsVjEfD4vyJ+/2+FAeC7NOnmakXGCDO2xN8cBxgbvBMFiAOYgOSXGicMo3sbvxJWXyNt4jIi92CGieUu0k6LLFzZS953PchLk53wyjA3UrMVOYZbA2Nh4OhgMYjQalT5HNKe5n5+flwDEfS6PuiRMMHC1AaTIeAAfyNoO49KYg4CTnwMF7XkrjcFeTgAOxplVYYfI3IyB8bGi1c/FVg+H5kXBlh8XdgDjOx6PZeqC9lyuz+zW861OOta9mSzJy3MuXpRmvzRDRR60bebqdtEr9+ZKEn30SluDwFwBcSmfsWVgjGz4H5tGZw7IBpGOU9xrYGX2Y9uzH9tHM6iLiNZh77YRM2zswECZ5/K5FyS6BGl/cLyyHXicBvK+/Pd8Wd+ObZ42cDUBe3ztejPh3dzclHMuvXeJrO83LDMQnND7iKwcvuOfQa8o3Alms9nE7e1tjMfjci6gDzF2YPP8iJfdYrAIw6gSoRHw/D2CR9dB0C4DuXTlN0DY0L0yjEUVGCBzOyiYfvs+GKMdzqgX5uVk4ySJkbm044SHvJ3QeA5GmZkLvx+Pzd5GHMClr4h2GYog7b1nyCXPkfBuQsvX/epyEvrL5YTuVZHoyXMKTmYEGAMjI1yP08mPuVvuM/JEVk6+OTE4yNgW0JdBpAMydulE5gDhBVueuzGQwtac9GxDDi48i7G5fOftPvyfWZafaWYQ8fNK1awXLgNEjyODYAdkfDovHEM/BuZ+dgYf2IvBmnXhv5k0mDFlXzKQykkZ/VlvEQ2TMvPPdoP/YD+MF51hLywo8vQUcc5gDxvM849mok6IGbxnO8iVRMZhkIE92g7yHGBOvPl6M+GtVqtiVO5AppceHKeqoAA7HwZ2PB5LWc9GxGAdWPf7fSyXy8I0OY5sOBzGdrst531iYBHtIEky2m63xXm8Iz+juowcEDBzTryaaLPZ/FSKY38ghonwXWIiaDGnYlkwfpCrj2/z4gr6jYLpG3934mcrhRFyRLPlxIHGzmYjy4g9O5M3bZOk3U/Lwokrl5rpQ9fiGq8qNFvEiRkT9zAvSGmb/nJ6y36/L9UIByTG/hr6BXjwN/pgtmtZ5e0c2LcTKL/j3N5AnWWD7B2kAKS2NdpnQRQJxCCDMRu0Wvc808zQ4/T43E+DG9uLGZrHzbNpE5BKfx0kvSXB4IzfM9tmfA6y2Re4nz7SB2RhcOQkWtd16/Qm7IbtT27P87WOoS7Dml0xjjxvabsxCDEbR972J3To02gykzMgcBzCbz0WVxsy6Px/pJ1XcyPJdq03ABoQhqbdmZnzoAdFKEL////ohB4kzfRMNw0cDcx94P0SXy1WN09IFcEgCZTJ3HZtk1m+j8F3Ps/OzBE11/iH89wxzn1dPjHt+o6fOjx3aSGoTnHCXAhshGfCGzVy3wxPGWjmydmhZTAY1M3NTXtLulMi1NTcMWkkyuuGLi8vO4jYY8FwWQlomGHtnKMSR7oIlZtmmB9jYT4wiNTc/f19W8cHKGAXe4SNIrUVl9/b7bat8cN4WJko6mMQjLw9Lu6TkRO/kydEaZ6f+Z20QIH6nCeRCDTAKDhl5lQrAm2nCi28c4/HyzXc34jURpxzU/FMA6NKG0LLDXrxo4K6HUGfQTWyxrhyP/MEmchULLQhajY/uc71O+uLHRpztMFCtqwDBjOuG2a2wbQ2XYzM2U+1L42Za8R4HvSyTfF87CCYg7MPjNdzZ3yMxXKD8zBAzOdaJ6AvcuxUI9+Z3m4WY07OfFgXPHc7sqqjjR4Mjo1Z6AtzS3vle/K/O9jNd8uFQYnl3DV41/dMb59vR2dwZ6eWtUPr6f/a4YGEV6tVJ01gr88DzVQGaLQMEbkGRUTBKVCnUGCw2PsQ5rPH52AwqPl83mphOAgUBYWwUFrAbDD2+2NtEAdGdIFhwLk6lQqREQwiMqcPM2qwsvuH8Tr6ImKh3TyjKa71foqOBhh7GmanIf2d6WYHYSPNeTaymUqA13aM7ryER+5EZWMAFHU47O5v6RSo5c6Cb4PkaBt6I3d2uK4d9qVL7HzMR0da5rEjCqd+uT9z8riNdi0n6BQ082FHw3NtTNAvI3xH3SD3bIRgXPwNmHCGwIbYtU6+ywjecmS9YBzoDxkiIlc7WvR4u33tgLYcOO3LkfpgevdFRXYipiHPJwNkO+Lv0pFaPr22kOtyuQl6Y4CYTsHg1zoHD5wxSEdhGni+fIacpYNGBt1VbvtpGvVF39YD89OAzjRMXUU2LUMJqH7m6Dh+6vDW63Wb5NnZWV1fX3eE0KkUpzFoJWZyTgExUb9TzZP2a0OIKBE8Upmnp6f1t7/9rabTad3d3XVqDSxc5d6j0ag1PyBgRlM8G0dHLY/GiMvLyzYGFJ4d7jFyKKBfzolAEGVZkJkzSJgdX3gVkxeaVh3XJVmo3V0FvZyOJfUD3bOOyTUoNzVFPjfdGYu75ux0eCa8dUSSuX+UAD76Gr85welM6MzfdnR8Dk3YYMAKQFrPxoH/Ob/veTbo0NGy7i7SPM+Ooert+whNCwMjpxttkDA4yHBf9OEUITwBmRudY7C4H/xEtpiPjZNTp2lwbSCZj42sgQCGDXkyPQ2SkWdHJOnU+N/gwudZRjKKdkQADWyffKRRN/3slDIas+F2BJ4RKTyznru27vFl5sF6TxbNSyzscJ1KdPRrGcj/+ZuNKXxNZjqgO8GA7Zgj9L5gifGljmTa0zqfmZP/c4RHU4q3/+KBTAoCwESYBiMOh0PbwNZIvi+K4zpQ/nA4fJNCnc1mzSjMZrOWbuSVPY5+WOzryGswOG61hFOg85TOyeHwdT3adDqt6XTaMVo2iFZUhNzOwp2fZhzPwhitVqtarVZv0De0HY1GLY3oWgpCQFt9ojs7Lf+YZ36eldoGx3M8OTnpvPDTi+hT8DGcFnLuYRSe87Fh4G9kx4DG6BV+4ITt4IjKnV4kakYOuFcqJHKHM4AONj4ZYTIOzx8DwPxzkwCjVEdAjNk1HAMhnueoA6Oz3+87b0qHpkn3l5eXTqdxIvccT1W3/JAGHJm3LFVVx3BZVrl3vnIsO6ehUy4/sXFMfXRNjnEzJnjR51S4Z6YbOc/Rb0ZbyIQjOg52Qo8AACAASURBVPPN9PT4/T+2CUBhI2/68qxcqsLBnGxb7DCdDYC3thvWGdMXPmYmIR2px2JnxVzTWZkX+YP8It/mswOMnx3vvi3BaI3J2dMiVGkwjf6ZtFfwc2DEHdJiJIzmQEGJym5ubur5+bkeHh7aUgGK3TY2bEc2m82a0WbcriFMJpNmXHmfX9XR6CUCsmIg1IyRMZgGONz1et0cr5sJVqtVTSaTNy/7BAGiRHbCnGcnXtU1CBYKAIOdgnnnvL5THxZu8wRkiZHKupWjCfjrLIGRqFE8imG6OtUEjUejUWtqIVqFNvzGuNnAGsE6CjFvkVsbHI+Z+7rGg5yQAoe+6Eqm6NALDEgiecsg883GMOaZEY7rdDRy2XkhA33RL+fbmNv4JOiwY8uowuCA69iezDslbTabNi+XF5BZaOoNFjjfz+aZTp0Deg3UM+JBL0hhO3vhiAzep02zoXeUhLO2bHNfO3lnnPgM2lgf3fhEacJgI+0y8+DZjswBY5Z7Z96Sf7YjCSD6AIJlxxF+32FbStCQdjqzBQYgdrB9xz/1tgQIyFonBsvkeQhGjckTCTj9RWhsg0eX4XQ6bUKEwGPkR6NRQ6HeXWE4HNYvv/xSq9Wq/uu//qszYdr9cSa+zoIBo2azWc1msw5TjaIRDKcULVhG2zwf50EtFLq9vLxugMzrkLie+VJv4XDty3OycBhBMXYjuETDbrRxqjWjbxs0p7Dt3OyYTA8rmtHzdrttb7Bwnt7pRDsGeIJM2jgMBoOWtrQTtRHnPszL4zYASGQPrQwU/HzG6nSwjacRqhExRg65dkSZqSIcgsFC1n4cAdLhSHQHT9ix5eHhoWN4spMU/luuXNPuQ/ZOQ/K5jVQe0Ma1wOFw2Bq2oIP56BoiAC4NJOjfjjqjrwSRdgIeG/x0Ctt1qIxYvJQDZ0KK0cEB59gp2NFAE8uogYajLf63E8DBpzPib3jKONFDgySP0YDR4Ig5OxgymGJeXOeIlejdWT9nipBxOqyZp8G3Iz2eYz3vO37q8HBEXluGE3t5eWnRkBGdFcVGjHvAHJAqysPk3LwCImAcfe3nVa/LEH777bf6448/GiLAiJs4V1dXVVVt9xXXNcyws7Ozlt4kNejuKyN1xmjEY2RjobNTQrDOz8/r+vq6pdeGw2HrROW5s9mss5Fv3tOGK+syjNddYRgirrVDM7pjLNzT6Yf8GyPtVwihEGwsTs3GSNHOwcj5R4qabz7GuDtV6TlCF+QZEGBjbN440k2a2HDaKcBTZyfspNJwc6QztfG1cjuK6KOHI3WMCWl6v8bHCBnD42jO9VHTwA7bxt3G2Y7RvGUTdKN8pzRNE6dG7Qgd3SWIwglaNwwmkFu6rR212cHhmBwR2pA68ob+mX7HbtkeJn0dFTkrkhE9z7ezdC07IzrGauDl1Lab3az/tnvmcV9KGlm1jjmSdzDguXJOAkjkwXwwnzmXjI2BL8GTn/9edFf1T9TwvMGu0QMbraI4NIagEDgKCJApG76zAENA7o0gIvhWRBvUp6enur6+rpubm/r69Wtnk16UkmvYbswojYP5QFAUin3piEpxPggxaNoGMoUJx7VcLmu9XrdmCRwCaVmYx+L9+XzeSanYwFmADSYs/MzRggcNHY1BH4TWjRQIORGr74uR8DVOm9mhXl5etu/8DkX4mFGKFaGquzkv463qbuhsOcnzM3Xl9+b5PHjrSNfO1Epvx5A8sdO14eZc09BHAgrGm+kw0xlDgYwD2qqOGRGja6fQsnvOtDIgYDx2fIwLJ+vrnMWBbl4zCp0yXeeI06CIZ5vvBnk2rLY35nsaaZ7pDbINthMYVXU3205AxDiwEdDYPEeWXdMzUAXI8T/0Nw8YF8d2232PH/dOx0gWJp2Yz6HG7MjLWSJHzt5EwXU1xpm2EN7AC9ME55ZyzjXOznFYHw1UfnS86/AuLy87xsRCstlsWi0MdEYDBY6GVCKGGhSEMzs9PW33YfAnJye1XC7r9PS01bNI9R0Oxx0KNptNu/7y8rI+fPhQv//+ex0Oh/YuL8JrEOlkMmnKSGrLgpSOAiXN7ieUmRRMol1+jHpBj/P5/A2SZwHrarVq67jsiFh8z2bUFgQzG/SMEGFgHaEaabm+CA24v42bo2ErkhUoFTedEEs1AEGuqSS6RZgTTXKO58MYoK+7Jnk2fDVI8TZ5TiNZsX2PNIKDQXdBNjxno2VHb8zHzgk6M36cnw0s/HQ3IPRPw8G9eFN88sKRJ8/MlLfpbD5kapJzrT/876in78WujB86ZfTB8xypZXTi57kGio6m8cs0vWXOmRc7cw5nQvx8R6dOQztis05lZoqae6a1nXGxPmTzHDSAl46ektbpmJEVAAP3Y16ObG37TU/rRUaDtjGMxbTLrlTmldGgAyhnF6qOtXXkjCgTXvQd7zatOHJA4Y1OYfBqtWoKxHds31N17JqkSQUBPBwObW0H9+flqkb+TBBEAQpBEAaDQf3222/1H//xH23nkkTu6/W6beLs7lArNGnGRAkQFuYxP5iYBsY0xCjk5r84TuiE4OKUiUCoxYDeqcU44sTI2SlBd3joSMJCaqHyfBFC5/P5LqNHK6sjm4y0HC1kGhQQxZhtUFAAohWjSgSduaBkbl23zNrAc41BCjVSngvIYk7ZaOTzADbpMBy1uK4GHTOCsJHhYPzMB+OG4WRunOe6pjMeZG0wdhge08WOmGfwHM8tec090CdkxenGBEPoD9egE1xHtOR0o3ULGmN/HIU4arVsG+S6Gc7zsi4j526+8hgSLGQUjowD6D0GOyaezTlOLdqp5HyTJ/x2qhUZgC5ps1I/U28M9KxnBhF2gtyDsVj/8AF+mTAy0hdc+TwAIDQyuOf+PzrefVsCBU1PEqHBWdBNRUoj0RPpuUQjEL3q2NEIoYicnCZh7Rb3cHqDphfqYTiMqmr1w4eHh+bwYD4C7/d4IUSgL55P+geHm8zkewsckasjnT4hB92fnJzUxcVFM1bsxMKYWICPwHA/Nwwxj0wVISzp2OwEjGZxJE7dGQg4ajAitcAaXTJPO9/snDQQ4l6OIHBGVg6fz32Hw2GrX9lJgARtlLmPI62kJeOzsbYuMFZ4mvfPVAxjPD8/r9VqVev1uoPK7Rw54N3FxUXLUFgO4dlut2sbM5BqN6+RVUcE7vrDGIOcmW+mpuCXeW0HgENHx5ymzvoOY3PEZbrxDIADzsTRmp2OU10ps46CXEpxZJqg3nrrSIWxG+RaLznyGYwbG2Y9NV3tmOy87dTtJCx/fo4zE8zDsubx+3zukUClT9+drTHg4Z4GReZtZipyPAbk2Goyh8582M786Pipw9vvX9fxeCE5AwOFcZ7DaNJzyXAYyQCteFXHEJ+IjwiHYnNGFBCHhhd+GAuC6+YTnF5Gr4zFTtBMYJ5Wsr5ohYN1c30Fb5iIMyeKpYtzPp83w359fV1//fVXa0M/HA718PDQHKOFg6gv0WfVsVsqUxqMDyFP4+FroYHTVhgxOxzzHlkx7/yMbBJwxGbaGWVmDQJ+OUpJmcoUF+PHcAKAuNbO50eRL3Tza1M4UHojVHjCM7L5ImXE0aLBQ8ocAAJZGgwGrfkL+sCDbCawgXGtyTpdVW/4Dy8ZIyliMg2ULzxuxp7ZEtPcdCYytR4ypyw72OjaKePcjPwdCWe0YNra1hh4pdMzYLTDTocJAEbvbTOho58FvziXZ/E8vxfPzicBpL9z1yi8wq4lgDfdLQMGFKlbDmjs0Ax4zUvG1ef8ErBzH3evG/gkSOo73k1pegkBisEGziZCVXVSbDDYaRArkJnn0NbNLyzI3mw2DbHyPCs0DDAK8l6PVa/pzNPT01osFnV6etpy5jDO6A6mbbfblqrlO+Y5n8/bc1w3MC1Wq1WL1szw8/Pzzhunuc9w+PrGADe0gGK+f//e9txkg252ZyElxLmZdkEwE5Vl9IcBYJxWPK5xagf5sOE1kLFi+Ho7sdz5huu9Ew/RDMtSEm3bwDEuo30bVBsuaniOWHxvO0gDHcaQkYMNuoGc5d3yiqEhc8GesUby8ATD5nrYaDRqUSyZD2+Uneme8Xjcnom+AEBYEuQfxomu57iYP4DUNTecEnKYmRxHvwYarqvzGXM3nw16oStGlGvSWXgpB9dnVAD9LeeZPclNE3BgXuKDLGS2wCAPWaSmXdUFYmnsDV4Ph8OblDq0trPI6JPz4H/qEzQwX5ylceSXtgB74M5ZzsOhmx6WoYzSnGlylOuaoHXdkfvPoryfOjx7VYTZyNUozyjBtTqY6HQH1/blp7kGh+UIyM+kzsYPb07gc48J4iwWi4ZGr6+vO7sTgEgZk1MndvZEoC7oJtG5hgaevreaO8J0tAqNUB6cx+XlZXu7QqJxou3NZtPZsqsxWfUA04woCqfC+BzJGy2ijPP5vINGucb1Vn9OKiJTfSBrdpY3jauO79gjQiK9ZiPlFJnBjh18RkpV3b0goU06xXRyKKYNGmNwxGqH50gm60/QArBjxI9smi80X8EbaG7jAPixAzk5Ob6zEccHfZEPaO3sCvNy1G2EbYeZ9RSMKXQ1gneTBHR2yeP8/LwBSRvwBGPWPb/7ze3qXiqQ6cTko3XdDsHPyYwDkZYbbzjHRhiZsJPyfGxTTWf0lHvZCTmd7N+M2cDKMs55ZDaYH2P3mA0mHD17/tDUAYYdmsfm4MAOKnlgW+85cG/rFWPPKLHveDfCc2iP4QFdmLkQZzA4dimB9vpqfJznmp8V0Wt3YKKjRY+RzaVBuI4YISBR6Xa7bcr96dOnGo/HbccTG22UCIZDSNMEY42TtVKMx+O2H2cj9slJZ04IJU6dZxjV7Xa7tg0Zjv78/Lx1r3rHFn4jSDT4MCYMptMAXqcFjTNdmXUtaMzcudbRPvRBRvqiIb7LFIQFFsHOZgSnEVE8+ENWAmeAorteejgc2p6oRpZWMgM+I12nvYwojeLNdxtOnDzXE/3s9/s2XvMNw09NFyDJGBkfBqKqG43aeHjtHDzHoaKr8DU3XEA/E9XjYO2gGTsgJ6MV+I1M8nwDOWqPthEGWBkJMG+yN2mIbVTtkDxmp/Rtv7i304N9YMlOAPoyZ9sR5oxM2G5Ynh0h26kh/66ToW/WZTs9n+doy7Sz3Jt+jB0eOBVpvbLM+T7QztkWR5DWPwBXLktCN3iWHaABWNY68/ipwzNKMkqDkBZaOwKjXWpPXGeETTqHyZuxNrpcawNhhQR58NnJyUlbOA5DMQw4PZgxm82ao7XTNtFQOuf6LfhGeszPEQ0OKxsAHA2wxo3PeZ4ja+aO8AEg1ut17Xa7ms1mnYjPKNgRh527lc18S0FkrhyOMJK/OHCMm6MtBHI8Hrc5u15qZMe8Sf9CGxsRznP2AZng+XYMTqFwHkbb6zOrjhsv8GzPH3oZIDj6duckBtW0Q2FRbJC2t4kyWudv6Mkc0pA5TeSI5ezsrMmfUbYjiP1+X+v1uhNZ2fh57SzXO7NjZ8g80ykkLW2gna412LBTs9FMkOqOTV+Hzlp37KTcmGUji2w57W0+Om3rw/YLuvj56IyjwqSXU3fWPYNP7ovcI0d28gbPnrdtJ7JqW+b5exzoX2bAHPR4PmkvXWu3LYQezoAwR/7HjrhPwCA179d3/NThERUxONeIUrEYQLa+Eu5bID3oFPz0zhYWIq7M/3NvxgsacFqVYjHCvV6v244mHz58aF2hCBRzpGieaYNEF15TZgTLD4YMpkIvxuPGnES9TjFYgb1AH+ECDOBIMaJ2XAg35xIRGXUZwSPU7JiDMrs5hvQYMmBwgey4VkEKNhUk6xTptJEF1wqYOxEQNEskaZ5k6s9O1wbB44DvBh7cEzpYkbmfU/KMHYNGdGREz3NwuDynb6chRwuHw6F1IGc0v1qtOtGXddSpM9MHPriLkPl6vZO/c1MEvOQcA4yqo8NgXHbAjuDsoBN4oPvIlm2LZcuO2LzMSB7bgv7bcSAjdgKMM8sFWQrxOchGlgUMti23vs4O0Ok/R6/Qibo+c/WOWRy2M9DTjsz2LIFXAuQ8J2XGKVGfw5gtC6arjwTf1qOMOPuOd2t4GHGIuNlsOkLm0B+ng3Cx+NvRGIM2UqF24KUJNGdANJ7DOq1MQTi9RC3P0SWKZBSJwUWQUVajBwyWw/Sq6sxzMpnUeDxu6+Us1A7HnXrASNsI+DznqDFc3NdC6JQz/OB838tpJ6NulozQEeuIE+MBvauOgIajrwPTRiKfxzl9RpTDf/M9YMGRqMEHvDAidJonUyk2qpyf0SbnZo3JSNJRC3/bARmVOlNgJQWcQVdSxVbinyFoyzC1X9LbdgSOYngWdPAazT5Dx/MAsYPBoL2phGsysrCDci2O880Xli3YyPVFXJketrzYpvDclBXu42yMHRLj9zi9gwn0Mj0sA27OseF1tsyZjNy4IGmNc3A5BBlzNsk2Mp0mY0OXsQ/Il6O7zBgwHg7bcDtZ7E5GvY6MAYqmG/bVNLdDdIDD89P+9DnbHx3vLkswAsW4oaC5q4F3qadOhlEHYcAUOxELjJWRdBYMyhqKGcOEqW3NZrPO1lF2Js4nPzw8NOc6mUzq+vq6k4bDCPJspxqMtrifr+W5MI1zzRh31Rmd4hjSSHC47uK0Es/GSNNhx5Eo24gevrDwHeVFIV5eXmq9XrfIysrptJ55ZId8OBzeLLJn/PAP/tv4mNbZHDEYHBs3PBZoyHlEscyZ8yxvGVE7irLRdjRs1J/3Zjx+hkFIRgFGyx6Ht07jHhgBL5InGmPsTg+6vvOje8ETy6kNjPlhZA5fXF4wjxyl2PFhUyxHBnKuB1GT5fAY7PyYB4eBBfx0ucAG2XLo7QOdFkzZtswTobjPwEA1nYeXQriZxePIz6CrnQB66oyDgwmejcwxB88NOjqStO1yaQB9BKRYv9Exg26Pn3E6Otztdp2lGqkv1mPz3noHbzKCzePdlKZzvGYwiBUPnUq8XC7r5eWlLi4uWhHZeeTD4VCz2axFgLnWz28QQACdQmNMdqiDwaDG43FNJpM6Pz+v6XTa9qdEKEkHsb5wt3utfU0mkxoMXt+e7oacdGxVXZRmg066DyZYWGEEAMIKkPeHTszT9TgEHDCAQFoYOQ/HghFEsN35ZyOXtbeq6jg/nOh+v2/0cr0p8/1V3YXlNgR2jAYANv6Mz8bN50GLvtQaz0CBOJfnAS4chXI9Y8PgOAJwFAGPjZL53/TGwHK+69KeI/TiM2ccEm07NYScIpcAy9Vq1aGv52haGoRZB23ITBdHW32pY6et0+hBIztkN415fI7usCvIPA7ImR6ct6/ludgobJdpZpDBvCgx2IlYXriG+adTdJTiA53JTARjhvaWKY/P9DO/GKebUZJ/dlYeX47XIJHO0sPh+JJsR5E/0rtM33pM5o1BIzxJYMB5fVkEeJFj+tHxU4cHM00QRxGEqF6AjmHAIaK0pNUsmCayJ2A0ipCacAij32mHESGdSZTnNKPrNozh6empdVNut9u2P6fXNUFw0DSF/arjO8pgllMP3BMHw1yoa5rRFnSY7jw5ygYyzY5IOwUz34vxXeR3PY5dPpgfDhZDgbDRhMT/p6enLYJkDs7nQxOjL/ifEYEjTDcf2KhlFxrXQTdHEG6c8Dl2YJyHkjjitFPMVEtGt/A7n+Mx9kUR8NNomTnYKGW0y1htUOGXI0b00lv15TXmFZ85svK+oNzDdZaqY/oOWnBONl8dDoe27d90Om3XoMdkO+gbwHbAezt50wba4zQyk8O47ajMP0e9jowA40m7PrBqMEWN1u9CtCw7zY48Iv/osp2Vx4t8w+++7EhGoJznehf8TZm1XmKz+cwOLuUnI27m4gxORm1clw7Y90qgxfwIHLI8YFr1He86vJOTkw7aIQqwA+OAgJzDPTCyVuzB4LX1GMN9cnLSQRQ2OigMxOA1QiAqK+RoNGpr0UgvUG/DEaPURjwYm8fHx5pOp41ZOPXpdFrj8bjTFp7Ci3MFDVoYUQoE6fT09S0JrltyMD6UHMeMEXG04IXbTt0YETJXb1GGQYHe3j+Ua12/cx0R5ZzP5x2e52FhtVDa6djpgyAZM+Ni3IzdNWT456YZAw7oAl0dNZB54PvdbtcBM16jZANpJ27wZENlhTbfoC364DQOY0Pn9vvXxqSMKKuOL341eIAHXhbEOx7X63Un0ndmBNl0Oh0+2eDCd4CRm1KqqumkeW05skzydnMcoLu101Aj04BoG0n4yr3t4LIrM50b/MkUndNx6Xysz9DZhhraOvrlOwNCA3qekc9zLSyjIn5jw6gPp/Oo6r5XMCO/vv/tnH0f88YpVTtjO/6qapk7UpZ2tpYrl41otuE5fQ4MEGwQbf380fFTh0cakfSVjSREMaEggokyHA5bWrPqiIT4DicE6iNtBjry4GGOjQ7nsFOFoxinTGC4u8twjjhUIxOIl6gHhUchjCxgJKkcCxz0rOoWtz0vHIfTE4kqbWRtdGF6phmyGcERig1gVb1B7nacNtLPz8+1XC47b6SwAPdFdtAyFcZzMD0Y93g87jQz2Ng5IoPe2XTk6Mg88hwNUHyex4hjtmM3quYaR2Be9Oyozal4jCy6xLnMKTMGPIOxsWbP8nFyctJeDYQRgnbQJJ2V6ejo2AYxHT98RLaYS1XVdDrt6Ec6LpqlAG0ZYZmHAFwbOcuxsyc0XHnNrR049PWrrlybtbzyfNsB2y5KBpYxaMFn2ZTie1m30BdHMR6vMwamkUG1ZYD7GbSk7EAv6yr3J3uTmRXuw/itw9jxPDezB+Yd8uvPrTselyM+y6sjwv+zw2P9jlGFd2gwQqzqbgLNBDG8TktYCV2TgmAIE99jJECiZjKCwLio3y2Xy94UF8rjZ7jWQPsuUay70SzQyVi2PmPhvNEcTPEcQJMWKNMlUw4IvlMXjNGKQAR5OBw6Cse47UjtcAwG+M6RNmkaorHlclmz2azRhPoe8zWg4X8bdn6SRkapzNsK62YkGxIfGJZE0swLvkFDxs4zWabCq6u83Vsf+vdz4ZeNCzTidxprAIUjJPQi03DWI8ABtAAwrtfrjs54/vwNgEPuBoPjDkbQ3a8TslG3wcRheZxEp3yPXBqIDQavHdWMGfvhdYCkVeG3NwS3rHhOTg3vdrtOGj6BmeXA35kP3Ju/zQPfA3qif5Y/y4Edm58Fb9I5QRsbc54NYHCE5GjQtca81vLoZVXYAoMUgwDrG2N32t8NRC5bGPygI7Y9OHeDD2x/ZjRsh7mXefGj46cOr6o6Comw22gZVRoBJeJNRTczUBYMrg0tBDGaqDoieaetEKKXl5e6urqql5eXth2XU4GPj4+dugPXGjXwNneIhxC/vLy0dMyPHCYCyC4oTqMx5+12W8vlsjl6mJbt8kY9FkA31ligoSGC76K6hQXDgUHsi1BQYMbvvDwdoDS1WIE9VkcYTou6BmU+8r+RHp85m5ARH+OzowSJEk34XY0cBg1V1THQdlqO2E9PTzvLM/oMFiCG57me5CNp7+d43uhWImZnFbift+XyM5ytcCo1swJc48jWqNxoGiMJ35Eb6ISucv+s6aELdtbcHyNMhsZ1RMulZc7ZBXQuSyQ4pQQqjMMy5IwPDswNe/DZBhpZhy8GtB6P7Q/yB+h3YGAbkGCbe2SZIMGW08T5f84bnkFz17n9TGidepkANOUemU2wy3kG6o7qHABl9Oc5/+z4qcODeelVmbgHndsW2UgmWrLwmggOlTkXwWAynANh/JkZf3p6Wjc3N7VYLOrbt2+dLdEYA8Vlh9WMfzab1W63awX0w+G1mM6uKTzfUYLRxXB4rBFRmzKtRqPXLdcWi0WLINyIYiFzrjrTEuYJhtkKzvmpyN5lxVFfChBGwTy1w91sNm+QNvl6xgyYsYPgnhgDjxuhdZ0VXhktG4T1oc/BYNCaaiyvGJ0EGER2zIXDdWLGYGfjtB684zD9OM8pdBv/NAKuBXnjZ/PRqaDMKNjQ2DH1ofaUGWSfce73x3VW1k3mZzAELSgrJCDkO8ukIym6tk1DAxgDQhw9JZPRaNRKB04Vo588x1EycsM97UiRLUdNHrOf4cMZCMbuTTj89gzrlhvcrM8814AxZSzp1ecoM+q0fFpG+6KnvH8Cr4xA7Qzt5HxNjt0238/zvVMmDLxcz+s73t1L0wM1euKBHngKtKMvK1zVsbMLpSb/n11C7hKsOiJPFMnKSViMEZjNZvXly5e6vb1tjsoNN44oLcCc51C7qrvMAEKzeD1TXKxnI73ktBUCiIA9Pz83hbUjszLaATEu091Fcqdv7TQ4H6XPXd4trLmgk9/O+dtRVVWHluYtc0cG7PgtNycnJ20PVcuWGyCqjhEDz3JNObMDPuC3ld6NGqz5hAZOwUEfR8R9UaYRrtG40bNpDW+4JpU3HQZRmmXFkRefs4G2+c59GQPjReazvupIyG+vsM4bTBmocC1j9hKmZnxUEsEJcw9o7KYwR4fQ3bLHubZDdtbmp0EOfHEa9XA4tPSuo8EEKZyfhpu5OkLEvpiXPNsvQbZzcnRo/ifQs6xbtz3P5Bc/lj+DOoMo88IpffTKEZgdLbyw/3B0iNzYqTsqteNjLr4eeYUeGUjl8e5emg6rIfbhcOy64YCxfuUKBt5MPjk56exdiVIgDAiphZs0x2QyabWx4XDY2pltsIxQBoNBffr0qVarVS0Wi/rzzz87TS3ZgUrU9/379/ry5UtNp9MOQV0Ad0rODKnqbqLs3U2MNDlvv9/Xcrms8/Pzthfmj1B6GpyqboeaDa3pznkIIZ8ZldtpW0iZgyMKd/hZQKGrIxAE3TUNngE9HKVbyEH7dnhWFN/LNLKicS8MO3+Tkr64uGh8tdHx/ZB7nuXo2HphYGGDxpycJjLocUTpz1wXwWnY0NnA+DxnIXiWHYONNOP0/3YMrhtzvR2QoyQ3h9kIpaPxeW7GRwAAIABJREFUeH0f8wuHmZESfEL34aedV6a4bIDtmK0T5pnl0nV8AAhygUN8eenuXYuMulbu6CrBKvdzc4rn5YDDsu45onu21b5P2irzkmDDTtAgOu9j2Ut7m88z35x25ruUJ2ifMmK62ZGbTglO+o53d1rhtz2zH2ghwAgbxVmAOcdCyDOMZHe7XXsjAM8lNYWDJC2w3+9bGgpHg1N+enqq8Xhc//qv/1pVr4uo7+7u3nQGkWenJrfZbOrbt29tKQLODoK6Oyt3UrHRq6pmUNfrdaMlESTpF9b28VkKlyNcL6tIo8r9ncIwD2wsHQ04WskuRwuoHS4RPGkvG43czJoamtF5omSieyIoj9NoEaTpyMmOzxElcwdtw+usJRrZGwnDH/jlaIQdY+hmQ0ltBG08vLzAUaENn8fkqA5+25Ak6IHv4/G4NXkgNzYgjn7QXZw1h8GKDZsjRGcDPF4yIvw40nGE763aGAvnAUSRd4NuuqrhNfpu+UwZNxC03Ns2pYMYDo9NWKxbTQDpSDsjMNMZx+msB/sC5/gHg+ObIqqqNf7YaXOuo3RkLrMQOFKcITbL4CD116Db82U+tk2ZrcKO+39olSDecsszmZPl3UEQ87HfyajOoCCPd5tWHKK6Q42J9BlMBBbi9SEojDvXYURc5EUAQDJ8h8JgODId4+jr8fGxLi8v69/+7d/q+vq6/vGPf9Tt7W1v6tBKvFgs6vb29k1npCNKrkUpfL0F9OLiolOYxun5e5ph7OQZoxFrHhY+lpEwf4QfJ+FuRKeAQMt0o/bVoGzonJr2u8fgP9EFC9ot+BwsdbGDcerLc+AcOzMUAB5Yxiy7Vd0OYtOH79LR2bHAV+btCMk16arjsg6DEq8PZEzw36kheIzOeG9T5sZzGa+dn6MkGxTXm42gifTRHVC+jZNp5yjTqVbTxAYU4+X0LDRyvdtgJeXb9zPd4BVdpNR3nSEwIEIHOBI8WG5sz4bD185r9BPQzf3hifsXkFlHvZZXdxzaKUAvQB/0xuGg/wYuZNR4jnXA9O0DWA48cIKWN8u17TE8YQwGRn4u97czN62RL8CknSu8N60TCPqwXXGzVt/xU4cHM1jIbeNqA2HhNMOdqmKSbne1kDFwp9u4h7cVs1IYmcJIRxHcf7Va1eXlZf39739vEeF2+/o2cxQ31+A8PT3V9+/f629/+1sHlTBXR0H8RihpdAHF5jvnMC4whwXtFnALlmntuhc1Ti/nsPCwTg5aQhun3bJbFf56TjYwVd397VB0pxS4hv0rQZ8076BQoHWWAPAGCxwTyoz80Bnp1JmRaiJC6Ih8wEMbODt0K5SjYzdJee4+py+iwFjbofqZBl3Oiux2x7cbIPt+Lr9Na6+bwmjh3DCydqjmY0YjjNGgCz5wHc7HDSKAKf84SibSdQSBDDJW5kZ6GbkGmBkoEtFmitAOxlkS089zHAyOb/MwiEefcdxef1vVfQGu08aOjO1wuMZOmHsBIpiLlxU5HWpgkbKGzeGwPBtEcp1tAefb1tgO+N7+3nPxuNBD5Nn3SQfM2BwdYkucQcuIFr5lFuRnx08dntdG2Jhst9u2o7sNhNEaxs0ChqBitHwk0R2SW2hNcBvdNCqO3na7Yx3w4uKiLi8v6+Xl9f10GBYLCQLB8gPqL6YBxsMo3QS3QXUkAq1gNGib8RtpMXccu3P8nGvFQnBwqBZ2IzHP0zSzMtoY8hlzgHaeAw7RYzQvubebgJAlZAGjMh6PWyrZBXHGaeeQDs8yaMNv2TFgs7FjfnbKrvuk0eQ5RqMGFjl2zvX4kbPT09OWmsd4bjabRnen/D0G6J4d0F7faT3KFBX37ou60FMbJqdKoRHgjWewDtUAlGdghAEtjrSZD3JC+tnGvy+6dSOVHZIda1V1ZJjfWaeCZtgE6JUZHj6z7iHrtgUXFxdvol9np8xLy0/Kckba3N+1Ws/NPMtAhXFY/y3f5ov5h1yZfgkm7HysSz43Awjrsp/plxE4sDJ4SEDmTEff8W7TCsQw0kKw+tKCRhB2DhCfwUJ0C7QFCcGF2LzPDiNAQ4mFDQEFNfZ1WM5mszo5Oan7+/u2INWdligeaHWxWLRXtcAwWqbTaTh9aAMBCnbdy4oCokOBUPg0bpnegUfM02lk6AhPMqXgdDJGyuCCOdnxZa3CSuUIxDuy0KB0cXFRNzc3Leqzgfa8MWzshME8nPbyuWnAs1MPetj4WkYNmoxq7fQt11XHVvjsoIOXdjqWTeuF58X9MZjQmRohfOKZPuCFU8HupstyAnKLjBGdeE5EGowp0+Ses+vl8IOaJs93ZMQc4U8ucOZ/Ul12YE7r2zGlHSKqNRgz6DafoBmH58ZhHvo35zldCxDlMzsiHCGRqp07NgGgh365nJIRnu2l7Y+BmK+FptCM6Mi8cbRmubOt8/fQNOU5D2TAdTfbJ6+15N7YKM6zPKSDxWb/nyI80gpZeLSQ9KF5e/Mkkg0HSBcFd649hbTq2FaOQzNzGAPOifE5LTGbzer8/LzV1Ha7XWehJ0gVY41zSlRjB4RBQZg5x5GhUwpcA4Mzx+2cfjoY7g0t/L/RswUC+pAecFMIc3Pa09EY42e3HRSQZxDp4WhN7/Pz8xqPx3V/f98aENgybjAY1Gq1akgXunAPF+qd0oFfw+GwGdhEdW5kQOExzHb6AAVo6EYY+OGUjMGalcrynGjf6wqTJ/ydEYlTXKR8XVPjoJ5EuQGZgCd2BjzLeuXoBKeEjGCEmdN+f3wjO3KOLrLXqQ2PSw2kWU0/5swm78iBwQcyiVxn5GEAnnueZlMD9LSemX/oJHKE/NoxW0YzcoXHriEaKBk0OiK1E8RG+QXG8CAdv+2m67sGOhl5MXcAhW0Ysor+M194gNyQjbDOWOaRFztayzVgGIBkp2X94RrTmfkSQbt2mWD7/xTh2Qs74vMknaO2wnMuBsfKstu97mbiiTrk9fq7RDWkO2h88K4X4/G4kzY04qCmNRwOazqd1nq9rslk0lK02YgzGr2+SeDq6qopJtczVwu1Nzk2srKx8pseME44cN4Cbtp67katBhxeCuCIweABIcKJ4GgHg0FDl45KUVqUiC5D7uV8Px1gfhYOPZsMUF6aXZAFAEhVNX7As4zYjMytzKa154+BSEfl+fh8aGFFND/4rC+9x3PgIUbQkQznOFWF/DjCRJYT0Rp0uGaHgXSay0YJ2nKtf5yShFcAIsu7DSDAbbVadbIIafAN4Jizn+XoPe2F0/921ByMw3LryM7zhyfmg8E0400H60jMzhj+Q3+i8R/JlyMvPmOuGGrXQq03REHw1PdAB73W0Clq066qGmg0AEM2oK/Bs+8Bfe0XeJYdqQE7R8q/dcX8QEYAAe7T4B4OcjLa/V87PE/KE7XweldrC3o6QIw6DsuoKA08xLfDc+qN83n7Ovc2MvXhNE/VqwGczWa1WCzq4eGhhfkYdYTQn02n07q7u+sIEc7N3VsYBRhm1GUHPBgcd/VwoZrroBl0xfAYlVlgTGvo6B+jSs5hPRMpWl/L3LNhwobeCk5jAjzF0aFcTi2lrDAnjD7PgbZGyF5LZwMMEnTjAHJpx+VahdGg5Y7zuK8dYNY60pAeDoeWNXAEn1GTI3n2rH15eWmA5/Ly8o2jZP7IiuvhNPk4qoROyJzlj+u5J5G/a0XItK9NnsFLAyin0wykGKuNP3OBZxjVbE/PLbo4zzRJ/iK7noNlz7xzpG5Zty5xkEI2Hbmu73rTkzFZHwyyiVaxKY4isQMGBegMtDBYd1YI5zMej5tcZaaD4IFoH1vrDBB6iWPmf6eFM6JPwAVf05FadpAn5sA8+iJKlgIx7/+1w3PrtBEphAeVM0gbZIfKMMKhtncc8ST7QmJHKp6QhcLdYkaloBWEym/r5gWx+/3rBrXewJbnnpy87ol5fX3d1tT5SAEzOrWBZvygs0yR+HzTwnN2uthpAiN1p6XsLK1UNuiOMLbbbXudh0HGdvv6eiQjTs+J62lUcMME/GThrg2BnYmRop2lIxiei7LakTkiAOG6s9jGByNiw4mc2BhXvX0jfYKGdJgc5qsdo+nGnHg+nZZPT08NaLkT0w7EWQx0AUOG4eRc7uMUHQ7SwJL7O5qwYXENFH4zdmc1TGPbBngMrxKEOXqzTJtmqW9c6w4/alPmhZ9v+jM3r83kxxGneen/LUMcyS9HcraXyBc88Py4h5cRpZxhiwEr6by2223r8vXcGL9tmYG53/Zip+/oy9cwlj4nZ+eemRODRuQCfrmWZ/nheYBbO/pM3/cd/9Q6PDsmG+EMK218LQQeOOcnukLxQfRZI4R4jgww7JvNpi2fsIIZ5Tt1AfGoTbEo3NHW4+Njjcfjen5+rvv7+/ry5UvL64N8jHr5sfMGEFiJmf9kMumgJBtEG3IcCI4ARjt1wbkWDGhmAbFBQfndQOImH+aHED09PdV0Ou1E5IwPg2qk5Uj3cDi0d/+57mDn3qfIFlwb/nTyTmn7nX9uynCKB4QKLaGZFc7RKW/k5jsrM/OxvjgCJxpAdg0abTAc+ex2u3p4eGhbnSVytcGBRjak0MppaQNO6535bZRtQ+tIMjs6kSWicde+iRxdT+X5piF6YOMHLZAt671TowYRtjtO+zrCwMFkqtm6YdDsCNNgwVGdf9AlZAzAb520DiIzBly2E8gkgIJ7IdvILroGHbCbuWSDzte0OYzHzt46aZ3jyLqo7Z8dPuck8OS+lkUDGJ7BvTK6RxYMKG1v+453a3gIXBIUoeJBRup2Zggvg7MC+FyMLwNGwbmWgrwXOpuRjkiM1BmnO5N8DzaY5l6TyaSTKqB2x4thXa9AcKj/kY6A0efn553Np+0obJQt5BjYqmOrNhGnX5Ca6H00GrUUqWuspjHGC164VuaI0Mida+mSdRrQ/MfoGW0ZDeLsbOC9KHc4HHbWDV5cXNR0Oq3tdtvec4h8GUi5qQOkjqIYEVrpTAfPG6XlejsZfmdxvylSFNdd1zTP3DzDs73WCH47Tel0uKP8k5OTzgtyrRN2whhOZI0xOsXqzweD13Z672sKP0H/1BiRdxurx8fHFu07dYXdAMBxLXS3nKZDTmedUYLPwYkiD+mc7MANwKwjBjN2iJkOtSOGlgb9tmfIPSDk5eWl1uv1m8wCv5kXcmCQZ7l0zdHRIjLpF23bGbj5xRGo6VtVHd1LsGdaWM6Rb+s+fLHNZ0wGJZZHPj8cjstS+CyzZ9C7r6zV9PSH39RxManXvxgVmIg2MDaqEN6E5UhmEe2gUNyHcVi5LKQQ13simhA4bIhmZvAOO4jFNQjYy8vrK4a+fv1av/76ayeCs5Gz4hnNGDUakeX4EtVBN5yGnY8dsiNZC4hRkZ8FH1h/6IiHlJpBitvd7Xim02mHPzjJquPuJI4S0qlXVevepGkGEEAjD69PSpTXl/p2x6kBxmg06tQicBpEhrkcxAbP9EUmE+k60+HGLEd0TuFlcwjn4Oj4m1SUETxOHfrsdruW3XA9i2UdnpfpC6hwGjLleDTqLiewITTIADjlT0bnyBGgzN3AgFFoyW8+d1rbjtARnXWPcfGdU/BpC3wt3/k6PvPYfH/kEt5BH/SMJjXoi3xZfg1EDFJtV5FhOyeegU7ZGaHrNOWt1+smA9gcByn+H/1A1yzf0MmyknYGPljXrS8GlZY/y7tBGn8D+GlkSxkDPNoe5vFTh7fZbNo6qs1mU6enp+2FjU4/OMViVEwqAKSFM4NATmvxv5GiBRviWSCMwHje4+NjJ3LgvXaMMxd2c9+Tk+PLLtkDEgO+Wq3qzz//rOl0WhcXF81YMl52CrFxdARsIWDs3jFltVq1+YDuUSLmRF3MKN/pM0e60NlKhlCZPj4QeoSdebhp4vHxsVarVc1ms8780oHDt+Fw2FrrMxJgbDyb8foVKjbyOH43VzgthUwyBvgKr4xOuTfPtkNFFlx/ApWa9lXVqY0668F9jbQdyTqFVXVci8b80SUbWmSD+XEvp6pZ40j3M4YRumPUHMHY6KUTcy0HmrrDD6Dh9KF12/PAIJnf6J+f4/Sn5cnXEGX3OTyn2RwJODJzV7PHA09t8KETsrDf79tWYwZjtlcGBgYxTkEjl3bQjN/lCjt6g7acO7KCDFp3cjcSnoN+c083jDn9zvy9LtT6xf0csTNHp+p54YBLPZZzBwi2J9Y1796UmRrbih8d76Y0GVA6q6pq6TA7n76IA2PqMNSRWYbCWbBlclXdV6uQ5nTkaZRgh8v/RCMI08XFRef9bTYm/D4cDrVcLuvbt2/1L//yLzWdTjsKY0fsueW9rEjQNmsTrKtCGFEY1yuojZiGGKjD4dDZOcTP5O3d0BhDRKOE0wFG7izQx9HRTWgjDOpHTtIpo5RGoTZqOBPGATIlekmn5M134S1Rpl+NguFxKg56eEx2Zq5b8Rm8sizz/IyiMSw45Yz8LWsGeEbZTsvYeDE2Azho6ZRp1jJcRvD5HjOyvNvtar1ed1LqNi52oI7eHAkgi46EAFzQHv016HW5wUAKWU5akxaENga31g/XrlL2qqqjZwbUjN92Dx7aOfA81kCa5nYqjiLRN88zAwKDC9tIX4M88QzXrgeDQXtVFLLG2OgM5sishaN6sgmmnX2DZci22NGbo2sOaO37MhboZAeZTWSu98Nng+k83l14DhMwIkZmNhZeR8KALRh8ZmZCFK8/srBhaKj3WEEdyvtcxmXngBEcDl/fhADjYC71ovl8Xsvlsr1lwcjocDjU7e1tffz4sa6urmq/37f8uw1hhvI2Bghstprv9/vmdEjzwWRQFdfb8Dv95mcY7ThSAR3t96/pQu5HjRIgYIeFQXK6jr+Zo9NABibwhR+nYm2UGS/85xkINjLlaMXztkzYoGNAmUNVte5Hd+s6zcj4XLvJtnkDIZ6dcu2Ulc91RMCc0jGgyNAC+uVaPmdaEjDSJESK2saQz2w8LK90LMMzaoWMAT4xxv3+uD2agQbOkLHyv+nrNWe2L3auSSsarRhzviUcmnveNo7WT19jWWUMCUqcUXJHrCMwAzxvkAHY5DBgtqPDgfKdzzOvLTeZMXHgYXtg3UpZdH0YWeVejrAycwXAwFYlDzMgYEwGHQZgpodtunXE+mj+mLd9xz/1AliQIwPNG6MYDNQMwKDg3CyARhEOybmOe6MoOGCY4BQJBtSGylEdhFkul7VararqqCjn5+d1dXXV2sFBREZ35MG/f/9el5eXneaIjGp5PsYFJll4iJAwJjS3rFarJojQyVub4bztiC2ow+Gw7QGKoIzH41qtVq3hJo0OaU6cozvXDodDq3O6sxEAxDkWUj5zVOHaB7xqQvj/jSp8snEnoqRGx/lOazkdZhllbnZSGF5SNHZaNoKZ9rY8ZdYi03D+Gz3BQBOZU4+wwnr9E9ehH5YJxmvjDq+hWZ9R4p7WLZwONHx+fn2VlcsC6B7AARkx/XEo3Atwhf1gXJRIkhfMyZGK6ewonHORRYyxu0Szxo6NsSFlzMiO7ZDBqKM+R9HMyTJku2h+INNcb6BhucnNsJE9/5321/Lt75Eb7xTF/KrevlmAebukwjW2+27Igv+mr2196tLhcFy/a7vosoflm3szN6eeOQ8AxPOzoczHTx0ehgVBsxE2yjTaoLPRrfNGuzDCkQiHdyrxOUzEqVU7QReCjf4d2SC4NF7Q8s2zptNpTSaTms/nzWGQUjwcXnfyPzk5qe/fv9f19XV9/PixfWfm2ehCQzOxb4ykF5z+QvExhKPRqDlJG4KkYUZ0pKeIkm1QnQaFPjz39PS0RUPQyQv9neq8uLhoCmSAZAGHJk4VuaZhp7Xb7ZrjJyqxMfS9HVHBN4Mvy2iCJKdXEvG78QmF5F7mOdcYKXMNvPa78IzOobvnAlpGPlN3qKHhsBnner3uRP04pKydO3KxvN3d3XUcFbqPcfSLl5k7zhIDg84gVy8vL20pixeOZ+MEfDM/rCsArExxZ13QqS07PINp6GDHydgxqJyP7GHTcAaMH1q4joQs2LaYh3ZGHOhLX83UsmqHyn3992g06nRycziNj/4maLPNYUMK84F70oTDel3v2pQNS45oyagYuDMO65Hn40iT3wAHg0XuxVIYzz2Pd3dasbKbURkuu7DvzyGahYGJJbNSGDCOmZpgknYuCCFvcbDwcy9HObw1AQKenp7WZDKpq6urWiwW7SWmIBWUZ71e1++//96egYLQuIJgIiBuJ07aseSBdADGzKlIukSNCp3OdfSKIjvCdCRlZ4Ow2wBCS65ztMDnToMwD6Jkn5MO2cKdkbnTvszT6VdAwXA4bDTCqDsKc8SJkiQ/XO+w8bWsEMlwv8Hg+EYFZxKsjDac/O9MRsp21jLscAEZTvF4fjgk9AJHZV0z3U9OTtorsah3OTq4uLhoQBBHSi2KyMlGJtPdCYDhibMjBgluCiLqS2cDfUx3gxbGj9MzCEo9M21t9DOqr+qmzU1Ln58ZFesBDtoOztHdcHisP7v2xz1MZwMW9yJYvjx2b5xh/U/Zsl129JgRVZaj0B9S5u6gdCBi+lsOTk9P2zIaOz5HqMyb3wYp0BXn6S5q8wCd7Dt+6vBI8YEkbTBJtTlkNfKykYLoDN6hbkY1TvEcDsdNRiG+U2pujLAQgMIy7bhardqaO7ot6Yo8HI5vU55MJp0GD6Otx8fHenh4qL/++qs+f/7cBMsC6P9xlE49eZ4IGmMCeVJbA0U7ijRidATpaAW0xXPtDFyohsZuyjC6dtrF9Tlox6t8vFMFYzBvMxUHH10gt/HAMFg5OUCRXIfAe4ykuox4E2hB5z7kzMGcTGc7OStn1bFT2cDEQAUeGrRwndM0gCGPmfE59W9Hblk3WDT4dE2QLAwRDPdJp0HUZt4R+VQdd8IfDodNL1nDl5s0eH7o5MnJSeclxPAYmvF815Qsp3aENApBS9PIumd5Mv99L2TGaTT00tcZYMJLeAfgtZxAaz5DXix3BkY8207AKUVkDp1Hzqxb3NOpdUdgzrBAYztE22XPh78Zj9+KQPbBdsc6YBsILQ0mLOcOYDwm5MNjMx3zePcFsPaeTr3wP4RE+GwMjPoQxEz/5OCNCvneaN2Mc8oHAT09Pe04HP52fe78/LxFcfP5vNXP3I02m83q/v6+k+bzvpCLxaJubm6aoafG5Hk4hebDwmL0AkAADQIyGBdKT82P+RIROSVgpAa9nNb0GPiBnk7jorROFbCQ9fz8vObzeU0mkw6CJ+JIQ52t3K7JwWN4YVlCDqBzGnkcpdG76w5pHI0qMTSuL8MjzveaRYAJYA25NELtU2ZH4sl/I2zAnD+jNuUot+rVuEyn09rtdo1Hfj46UtXt7HUXI6kgGlngm9NTXqDt+9vJe47MAX4b0EBzZNqRql926y5iR7I4Sxs+121c/7J826Z5/AbmyJJ5zYETJULlWqfZKAVQj+aA1nzGpuDQL5tFnOVxjZHPHTllejrT/9gX39tRkO+BXLqkhP2yrXcWCX65IcglBNPAYN4BAtfw23pouTHAcOqUeWM3cvtHH+/W8GwUMDakr5iAQ3vqFUYX9r6u31hpTBgY49xwRkcubGOss35llOI0Hk5qvV7XarVqyj4YvK7bw9nYeWY0slqt6vb2tj5//tyiRKdeEchsL7chttJVHbtiUTqej4HwfHHMPKOP+dDL9UJH1fxtwYNmtHEjgPDeKT5SG1YeBNtOhnHByzQ4XMu4qb+4iO42d66Bl6RXql5rXBZ+5oey8L+dIeOz8jMmUjAGRU7TMG54T1MGhyNynu/mDxtSooSMGtE/5sh8QOl+0wcRCPwBmJiuRF4Yf9ZXUjekPk7NGNCDPFg/+6Li09PXzdmp8yDzzJFzrdeWZQ6uYbG69dQG2nKGjmRqsqq7BZYBiXlloMi1zDPT356XwZlBm9OKOCCn8NEZR2qOormPMyDQiPHaxvqdmI5cnZ2AzmQuGJfPNcBBbjOLwvX5N7x1UGLdy9KAbZABlQFW2jyel9kG9OVHx7t7aXIDIweYAJEx8kaFKVQ5eCNOCIZDyvQaBtbC6IK6EQyEylQNB0Z2v39dVnB3d9dBdaDT9XrduiN5LkgSo7pYLGo+nzcaeTyMEeIb4YBQnAJh7ChsRrpW/ESpVjgrE0JCWoWdS6AXxhYaQXsMldvWieIOh9fUL4vweT5j5Hcu7k0eGfUzJp4PoEIRTAPfDyNRVZ2dRdxw4qyE6WqE7MyB5ZXzZ7NZK+QzBisoAMv0ca3QERC1RxuYNPqANUc5BniOKOAr4IUGJxsa+LHb7VqWg+U3pinLU/wOO+SWtLVTh8wT+Xb0gV2Aj9RkAUjopzMzaTOsR86COPIDvEHjbLIz4HVkZl2DRpyL/JDyQ1bpD7ATdDnH94afjqwM+lIf0q5SN00jn9EN1zBn09320LyxA0SHDOoZX0by2GEDAR/wA1AHHaqq0c2pcWcZeL7BrOXdNou/CTz8Au+MHPP4qcNjAl5nYuPqTi6MsBd+kq4wQ52K8nMQEBS26u2CW0ckEIyJm7g2/hgPhMeEf3l5aRtHU2tgTd5isWjP4xU6jIPfOE3vPpChtdNuVUckZCOJ4zAysTPDwFqRMoIzLR0dZ47bjjAjeFqica7+jiYd5MEbSVsw4XvVccsw5m0lynS0ZQ2jxjyJYIw4kT8DKQu9jZxpZacGfd1+zXOhuceW0YzbvYlAjFxtrGxMGAPO2eMfj8fN4cCzjPKdKXA0vdu9Lg52x59lar1etz1RHx8f27ZkpEiJDjOaZx52LJmiZC7wyjUs638CNXgBQidat92AV0658WyMMxkRd1PaFmR06ejZ4JL/MdrYpqpuFyG09Ritj665YQeRE2e4kk+OymzcneazQyOj4Aioz9nbsdleQFd0Dd5j46CJZcAZKZePsA+eH3KKjPn56JaBpwEtry3zy6ety9vttvUfuC5qnuXxT0Xdp3XuAAAgAElEQVR4DMDe06G0t26yUPM9DsfXe2KcD5ES/VDgduOMIxmn+6ygPJ8iulERSJtuzP1+X5PJpJ6fX9/K/fHjx1oulx0Ey3dGdDg1pyM5MAQICUx3hGGk42jNkbIdVVV1QIVrBiiglRaD6SgJoOLdJRD2RNWj0ahFd0R6RDwokediwXSawdGso0IrHDzn/1zwzdz5zPNAMftQp7MP6aRM56pjZAe6N1Dgmsxg2PHvdruW3iZS5T7oAQCC7zCIRFykPL23LOPD+PAcO4yXl5darVZNpr1RsWnG/wBAzmV+HvNkMqnpdNp0jGYvDDTOB3Djt6072hqNRg3Y2TgDcF3zdSSQ4Bc5swPw9lXIT1+KzHRM+UMmGW/WgXCqT09Pb9L4TusNBoNOPZ97WsbTedvR2ujjUExvg2CDK8tpzt9OAlqi9w4A4D/PgQfeocZj5jsHHU65Ihvwm3Gk7AHaXJrBgXIussv8semAHGdY/Jw83m1asfBvt9vmfByp2aM6dDbqBqGaASaUo0QjJs6DGBhSlAVjjsNJRIbwvry8dN42jmAirHZkZ2dn9eHDh2bUMWBu3MDI+dVCtN1yrp2Yc+XZfYdjtIAgcPzPNm5GQh4PAMTAwoKG0UEoQEXD4bAhfUdr8IpIb7vd1uXlZc1ms0Zbp0Y4x8qM02RsoFErZjo6pzkR3vl83nF6KDTOnjFYSaz0Tvk4aoHGyKZTKhhUR1qOUpA1aIaSexE0c8aIG9B5/aMjNng1GAwaQHIGARqlYrPB+WKx6HTdIs/WMbZgI+p096EzOaenpzWfz1v3sKMWZMvpOV97cXHRaO6aMbJsuSeydbRvvceBOvXvZzuFhkz6fICQyyRpFO1ksBF9wBTdR4dcc+OctId20sgW8oN9Mu2QJ4OAqmPjkfUFh+ioDj7vdrtO5GM7bJDmJp1suLGttv2oOmbFGJ/BY1/mBZnhM9bv+o0tHLZFtgX8z5hze7TM9uXxboTndEk+fL9/W8TH2HuxMYy3MOR9vAcdRtqFUwjpSXtiVnAUy2jOBix3Dke4nHKiZuG1LUZZy+Wyky7g/k4JGuUhEKBmCvCeDwwjavV8cWaOENKBum5pRwQYAN2jgF40Ck0wIKzFYpcVv8/OnZJ2OkZrTok4lWT+W54c0RsI7Pf7FlVgyKyEPNfztEGwU3b0zf9Eh1zjlLDnYXTM4UwE5yQK3m63bXf3qmpgK+li+UJeLy4uOh2UfOfoEgf2119/1R9//NHRRS8VsZ46kuEzp7WRZdaqoofwxGlU73fLHKGZDZyjFPgI700PZwZIkWXtzc9hjiB90l803EAzeOco0VmJjAjRC2dHiOxyWYEjMwNPdM6G3A65qjrNbvyfJQrTkHE6kwH9HekZFPl/Dtt1ZMWgyvrFYbDtQAjnz9/mkyM/6Gz95VrTyd9zLY7Y+u60M3MnE/ij493No0ERNpb+zms5fhSd4Zzc6WZmIHiOVqxATtuw9svoD0eHELghBCUGWfK50QqKA0KjBZzrEbjlctkM636/bx2eTqWxwTLXWXiYC+jZb1B3+tERiB0LTQVuSID5FmoruCPL8/Pzms1mrc7CAUrifHadcc7fztYpMhtfI0U7Muae35tGmbJxBGCEbCPKHM0jd7DxWd4bNIwc8KyURZSR+1qW7Sgst3zunSVwcnSbAlaQZWQXY7DZbJpyp4He7/ctUl4sFrVYLOr29ra+ffvWjCX3zNcfjcfj1omJ3JKVALhg1M/Pz9sG3vCavx2dQlcjazekcR20Q97tjAyCnBmCf2kI7Si5p0EKvLee2zDDT9e2bNht+K1r3M8y78wJMu1IFJtiw22HD28YozMFBu/InetYtlEJHHm+AYoj3pRzN+3ZhjuCw9lkwOGgJvXfqWfOtVP0c6CnHbD7O1y6yagPcHl+fv6mU9rHTx0ezCYdmERiktkujRAaqeS1/t8EZCIgJQTfOXUchoUbZOg0HueasNwPQ8D5MINxEWazCN2pltVq1eoa2+22VqtVG//Z2VkjuFGe0w3QDsdp9E5k7GK80RHCyX0RJtPS19g4O4JNlAyvWUhuVOnzSXEmnbgHY3HEaSdvvkN/rq/qpknsWJmn5cQ8hi5Geh4/xtBKyHV8h5HJWgIyglza4BooZUqeexlgQGfzDieXBoP7sZE5SwVWq1U9Pz/X3d1diwBPTo4vZD09Pa3pdFpnZ2f18ePH5vxwbLvdrpbLZRujx8Y9kCPKBfCT7kHrkw0YNCYF6tQxdHfKEFo5cjWv+AFAmOcYOdMTvSEqpYmCa6A3Oui5uw48HA47AN2RsZ2t9c7AzCDIESQybztnfck5o+dOezvKsjMxyHPUmA7K9LGe83mCBjtaADR71GJPcc7oP6DHdDF45znoiHnF3/v92/1umY8dvzNtCVDyeDfCMypBGNIA2fnZGCLQTp2k0NrZWDksYBQluZYaBEKBMIAAnPaqOr4xATTLLhAZGTgPz3fM02uKuL9fHvvw8FBVRySSbdapyBYWp8lQEiuBIxCiW+4L7eABApn0tmBzXhqYqup0U/lePqzglhU7W9c887x0DlYs0n85N6dyHPFwZOoFJcWhO9JjXh6fUyaMyfJvg8X4sh6SkRjjthJn3ayqWrQFDSwD5ut2u62Hh4e2DZiNxmw2q8lk0jpoP378WPP5vC4vL9u4DYj4DW1wzIA3N/egZxhkgxOcjTsrMWhkZDBkXG/jbSeRBjejC3TW6WL4zXMyIrB+YzOYPzzGhtmxIKvQngN95LB+p93jf3QFoGDdTNvDdSwPqXoF3bYl2CgbeP8wrgww3Cvg8Tkz4SgaOYSeqYfWT6eonfpEz5Eplw+qqrNExw6TsfoZBsjYFz8ToJ72yse7TStGeIfD8c27ZpqJZkFz2gwmOHRF2SyUiey5N5O0guR5MBL0YSTH4WgQh8W9GQdzNOrP2guKDbqpei2+LhaL9gzqeI7QMKJGJSgZ9QdHRaa9adiXwiBC4x6OFqCZDSV8qqrWQWcHwfMw2o6ucA5pNKxU/O8OqqyzOZULvWmycNowlZR7M/5MMdoYOI1m42wldEejHRyfWcHsaN045M5WPncUk0AHfpgnAA7fc7d7XW/09evXWq1WTR643lHgdDqt2WxWnz9/bveiazMjHOuLDaMBIrIKTaAL8wMAe8E/3zmbYIdXVTWdThsfnDZ1dIGOGfgZMBnYIf+ZXjQwYo7Q3tEb35NNgnfoq8G3x2NeObr383B0dn4eG46WuRmcEU05UsrMDTrU12nLkTTzS6U9XqdboY1TtBkdOhNn4JD1NdsT7g+/uCffw3PLjmWIoMNjQ0bp/PzR8U+9ANYI3JOGqEyeAbouZdRrg8X9GSz/WyCoNThNYeNt5YAIKE+iSIwa9zKCZ1x0cTIW5ooT4VqEfb1et7G4rmfDRqqP8cFkp1Cgg7ucTA93AzoFmggIx2RDg9I6BQwNXVvguTiFNDTwyQYDoTY/LSvZVu2aIPfOGoVBjtNkWYdLZacbkCNrBx6bjUfKHvO0ceGZTjfbYVHz5TOnXPoWMTuFjYHwIn+Dg+FwWMvlsr5+/doapWygnfa8ubmpq6urTuqSVnqeRWnC5QpSd862vLy8tI5FO1bG7UyN9RG+Ot0En9Bn6Gr5N63dK+AUN0adazILYMdkeYVGnoejVxwfPLM8wi/22bW8OOLBhtjmILNOYRrUGwDY+ZnH2DbXRPnOgQD32+12nT0sfV4fOGTsaZ8MXj1nnt0XfNjhW685H9pafnGOjAvnz70dFcNnymW2306f/+x49wWwFNgZtKMUIzEeBGJzBJHI20aeSUIsPLcXoDuqgsBO0VR1C+lOSTiCQnCIZg6HQ3sNDQbACByDwGeuO5jxRkS73a7VOah5OKohiiHyYFwItp0+htFKwbiYr5XQaIj/GTtG2NE097TybrfbtuDTSpht93akTvPa+LieBq1QSHjr+bsbz4DKEV1Vt3bJ/9AK5bdzZe7Iox2SIwCnTKAlRtJzgIfQN9uz4ZPfhYg+AXSIqqxn0BFePD8/1+3tbX3//r1ub2/fNI/RYEQz0sePH2s2mzXZw/nYeVOjI4vg9zIic9ZZnDaGxg7MTs4GzmCOe/HbMoM8MTb4kTpm3Xc0hXxZxpiDMyrYggQ5yLEjOZ5nuXD0wibXGUUhuwmiE+wjQ9COH4w+qWOvsQQs2GaYp9jctFPOujAP19UMnNFD10rJhO33+9Zgh+1w1gn7xue28Q560gYiY8iA085cb3uVvoUy02Qy6TT5/K8jPBQwHZIXIjoKMHExFJxj5toAI5BOmdmwcOAYjT5hGgSmfucaIIKN8jmFZSGws81Q/vz8vKVgXMtD2O7v7+v6+rrtu4iDYP3fcDhsi7ctbMzRoT20s8G34qZxRiD43IeV0vT0nJkrPOXluEQkpMUsE8wBR8P7zIhyETqiB/iOEXx+fq7pdNoxchhdzjWocSbBxsQgChq6Vtln3Oy4qt7uoWkgZkPAucg1ho90HkbctKmqtvMJ90rjx5tIcIDMYb1e159//lnfvn1rKUkOxnlxcVE3Nzd1cXFR8/m8dfISybmOgkySysJwupkEGcnIwDrslF7WXqqOuxtR37MBc/rLso4Op0PDiXI422RwQmrO0ZzBB7TO5rr830s37HgdgTg9Z5DKmL0e2KCOa9lwwKAQvjvCQw44n/Ns2O2QoQ+fUwv3mx3Qe9ti7LlTwXaEpn9VdZahYOtsy1L34KcdmEGu9RceWf95PvLG/LDDrtsNBseVAD86furweDUQi40ZuAWuLwcOsYwKHWFAVJC+ieWJOqJzzcjEhEAYUkdk3JO0ImNFKDE2ZrYbNfj/5uamRqPXHUe+fv1aDw8PzZDTNLNer9vc2Z4JRVytVm0hLjR5enrqvI3AxXajQ9fIYDyfZyRrx2kUaOWAd454XIDmgHZ2Nua9UwoWbDsw17ES4YHmPCbznu9y/twji90GSx4zRgSaW04zvWLjXHWMkF2HtcIiM353nEHd6elp69DEWMEvxsf4AXSWJzvBlAd+39zctKaGzHpYBwwSXDNE5/y/owB+kE9nBjIaM++xDeaP+ch1jlgchXn8nM9z7cihBeekrnBfnLQjDsuMjSRO3UuuOB/gZqdo29bnuAGN1h/LrB2XI2M7Utu+jHz9mraTk5NWz4WuAHxH14zf9hIQ4IiTuZCtcM+DwaDnAV0sG9CM65mj9ZkDOjtaTCD98vJSs9ms01md0X7f8VOHR23KxtIpngyLiQaZAIqDsCXzMnxlkvb+MMapM8aA8nKNn8F1pAM4cDBGgd4Q1cbHwnV5ednp4jITSF9h/EgJbrfbmkwmNRqNmtOzQmAQMyXke6PArj3isImskmfwxo4PXjgVYIOEEL28vHR2RMGx20hYmZmLhd1CDl8ysiE9gsPFwGSdzP9XVSeKseNwBoL7ul7iCAx5dYSAzDoVZAdjpJpRp505MgZNoROpSH7sYJwKrHpdX8erqRxRQIfxeFyTyaQ+fvzYdquwfKQjMtizXAEa4BFyA22sh7m7ETq93W5b1sRNPY7e05HZkDFGUv9uQzco8fOc2obnrn0lwreM2rkacFhWHI1nF6TTpXbM3IfvPF8HApm5YlyWR+uSdc/2zvqX9tOBALLnnWwMBF1jtj7jIM0v6MOz6XrnfIIJy5l1n7FDI9djXVIyqLG9YIxuagGAWP+sL3m8+8ZzBM2IBia7/d+CzQNd+3B6yM7ODtNe3WNAoC0kFh4QDEzkPjzHkQz3X61WjTF9CuL5MrfZbFb7/euG0Q8PD7Xf71sUPBwOGyKfTCa12+3q4eGhs6aLVCxzR7lYZuFmCIx2n/OqOjppnHOm3zjP6JcOyHQmpIHTCXKPvqjZKTDm5/Ql6cys2yUyN8rMqM9Ow8jdNDLKRhaMjLlP1dFAZkRq5wAyttFzJGQjZ7RqR4I8AoK8dtG1nqrqIG/oulwua7VadZSepTlnZ2d1c3NTHz58qPl83sZo0MT/OHocCtdDq+Fw2OrNXiYBKETHeBmyo9s+GqYDsANkXMgatUPLFPcySDb4xOHxDEeW0NH2h3uResPoOu1t3md5wNcZUKNvthN2zpl94XrbF9so26Bs9GNMpCa5zvxyr4SX1ph+yLNrZzzLttdgxylo21/Gis3q0zVHwi7X2C7zHJyd/YtlmmZDO2D8D47dvPjZ8W4ND6PjQrkF3ozMoqEFxetkPHkbrURVfO9duU0MCxREtGHkb6M6j502VjPSYbeNOtfP5/O6urpqu67gkDMd4SjTG7ReXl62FJSjU8ZCeiLbbsnnWwhPT087oMNCx3WgIdcWcfx2MDyLz6EZc8mUF/UgpxW94TK0dHrBCs7/jggtD/DKUbq/z6gy5QE54nzSWRyO0lzHYq52vAZwjJmohueylo7d/v2CXhylnb3vx64mVa/RHcAJxb64uGiRz/n5eV1dXdVkMmn8G4/HnV2EqCkayLmb1tErtZ6MCtFzRwqWC/jn1C56ilNzmokoGhrgQG07uB/yBD8zi+EoCr037zOblCl7A3menelDvsvn5mHb4HSza1sG2ozdOtvXXWzjbllmjgYBbqCyzqXcGcg58jJg5FpnNxzUWHcdTTJmwBPPN8D0nPwb3UndZlOFjGCZs8eaEfqPjneXJdgwMxEGD3MZuB1LTqo9UCibKAMG2MjboXpy2ZFkhWNsjN0TRzkYkw2t74Mycy0pKOZ5enpaHz9+bGknDKTRIBv4EoWxjgbh5yWzTs8YAeOUk26el2nAvFECt1BzX9b48SxoTmTsHz/PTsa0xmiBvFAo098RpMdu1Ad/q46LhfnbTszRi2XEf/NM+GHn4jQZ8mn5os7nTAXnOWvAb9eOTU8ro40KkXVGACwWpyHq7u6uOa/R6HVB+adPn9qWda6/8TvBxW63a2l1Ow622ENWeH4uLXH0Q2RhR58y6nSqdQsjhd7ZAcJrpwHhE+Oz/GI87cy4LvXc/OIAxGCz0i4gv9wX+qD7OGynz5w5cL2a6x11m0fYEb5LOjhaccRkIN8XZfs76xg2intznn/n/RmndeVwOHRe+cXGAmyYDy0SvKJ3prnTyPyPHYDPTrmTdXAg5FKFdeFnx7ubR6O8DukTSaTCmBGHw6GTHnHKzOku1sBlJPb8/FybzaaTkrRRAf3AUGoaNr4ILQYHBpgxCMPhcOjUl/jcadXZbFaz2ax1z9kZQwMrQNXr4l/SUrvdrqbTaZsT80Cg9vt9c1oc3hB1NBq1XTEsYGlgmGtuDeWoB0Gj5gXNnIZBuLgulyC4bgbdqfc4isH5w2s7QiJcy8/p6et+o5a9lDEU1a3ujJdnZLql6u36MBujvijSad+MhpBxg4pUdDtDPreDXywWtVwuW3Q3HL529v7yyy/1yy+/VFU1xEs9DflcLpft+ZvNpjlutokj6rL8WD+N4HHO/t+0B+BgzOHdaDR6U1sFFMFDnum9ak1np7oMqh3lWK8YA3P3XKwD6YScTTK4yXKAdcFZJe6BLHI9tDEQsg3ivvzvDRnSaTNm2wwDRsZvG8G1fetFcxmSIy/zug+A4Oxxzn1ANrMpnqsdn4Ejn6cNs1w4EvZG2/CT+YzH46afSRMfP3V4fQ7B6MnGDWPnUBc0ZZQC0jJyQ2CzMEnNy7u7cE/uZfQHk52eGA6HnRcIPj4+tkYRIzIMpvPhTm3hCBnvly9f6uXlpe7u7tp3dG9WvToZXg6LgvOalaenp4bsh8NhXV5eNoWlnpepj6ojiqPYDDIk7HcKA165MG/HmoLmmpgBjaNCrvdWWF6KAE89VssHn4PIHBU7beco06g06ZDjZF5p0P0/BzwHCDjyRD5Ju8FfxuRIHKNkMMbngBYjWIAXcvz09FQPDw9tB5WqV0A1nU7r+vq6Pn36VOPxuNbrdXOaNjRehsN8oRFjdqrdPMCZGTBa7vKN347OoJX5lZEmnzllCJizflpWvVWgjR9ztzzvdru2mxHnGSwbANq4G9z0ARt+DEYdkfl8+MB9kWvGadmvqjcRsx3P09NT2+TCY8Xm5vl9wM8gDHsG3Rwx2lmmbUCmbeOrun0DSRPbD3aw8jtIieaQf8uiaWMQ6GzOyclJp0eAeUH/tGM/On7q8HAIhKwoSHpvfjKEtvH1+XzGQlyI7iUMEJsJpROz8mVUAuoz+sIweG0c11R136Pncduourvx8vKyvb0gUzq8Xw5nRPcZqTAis9Fo1Hak//Tp0xsHxdwRGEcqPA8BIdLiXISJuZs+VjYjV+jFufCG+1jBHOFkVMN5RBt8ZxlBeJ3WYT6Ojrxe0s02NhzD4bCBIoCDG2occVj+vLjX3xFlOSIjxQgffL6NueeDw8saBI0iu113+QEp7/F4XJ8+faovX77Udrttm0XzG9BEKhYDYeBjYwaIYozZDGK5Sx6zro7xOwWe6TIDHniO3KdRYtNxQI7rx8gJ98AA+03wVcfNrn3Y6Juv1nf/+Bzund26Bg+WTa4jAuP+tl+O/vi+6mhvOKeqmw60vtrpmSboSmYbOAAadniWVwMvy7IzNbbf0JYo29seMk7PF523HTawSLBadezGdOoemeU53sCBz93jkODWx7s1PHd2OWR0DclGksMCZSNjD4yRthLaqYJ6EAYI6Dw6xoIogfvbCSNEZqIdRs7ZkR/XMneYNRweG1ju7u46eX4cHfNlrK7zML6Hh4e6v7+vzWZTv/zyS1uQjZPCICCcKAU0pA0YNIfyGTCY9hkxMVfTB34n6gOdmX428KBz8wfeGJRYcB1VodhZp6nqvsuMz127YxxOKzFm/2+FNXCCzzgURx9OYeGwjSbdfGQAAg0cKVVVi+q8QNv1oPPz87q+vq6Li4taLBa1Xq/bjyMVp6lwcNRV/M42DgyfAQ48ROa8ITR1FgNRNwdwTzdNIKs23MiVAQ/AkefAX2d+7FDtTLnWNTnbjJSJzHIALJwiteMw6OIzg8YE+AbejMmACN7aWWP77Nw9F/MqU708n/nkM23LyHA5s5DzTZuQ0bVBI58xhozI7fz63ktn5+lgB9q5Gc5OHYAEEHczlX+nzOfxT0V4EIb/eYAdCJPwb6fgMC5ZX+I813zMOCNRns/x/Pzc3jgOIexQYaYRNcYJ42dU5ajARnC3OzYBWPDOzs7ql19+qZOTk/rrr78aAgUJw0QbUhTHuXVa0J+fn+vDhw/18ePHzhZDjMlGFNqQKoPOOD4Egvm6o9DpOMZruif/4GmmT4jAsoa32WyaM7NhtJKRBsTwPD+/vieOorh5iFMx4mO+blmGRgZidsp2TkbYdiCMzUpkeXHjieXZh6MpnBFjuLu7q+/fv3fSktvttm14XvXqEL1u0w4BmXSdIp0Lka7lI+eBvGF4bbCNmhPcUnpIHbWzw2Y4yoEWWf+1jDEuRy7IO3xCZnkO6UfPzUDVTsyLrg3m+uwX5ZRMkWb0lsDIOsXfGeF7TAYKto3Z/JEOxw7JjRupN6a/6Y782gn6WdYLrnHWCR44ECHqMtDNyNo6Yx1iTsgbMm7wT4MMkVwfGMau/Oh4d1lCenqEzEgBgXC0YUF4D/kwKRyA7wuR3PiCklUd30LMfUAO0+m0YygHg+O2M5yDsaWtG8Y4GmC9EI4EIWAc8/n8TS0DJwytXBfEuKGAMJ129Lu7u3p4eKgPHz7UbDbrdIv1RdM27EaDTrGgQJxjRXR0AN2prfUpL/dyKgNlcY3JhsHGAnkC4LArBPOxzDE/p0cMREzz3e61nsO8jb4dWVmubMxwdl50z/P9bPPaUabnyNxsQAeDQf3+++/1xx9/NKfOGElr7vfHVC/0d3euo0jG6G7aqqNR2O/37Z5eA0mKdDgcNnROVIiOmr7MNVPFj4+PzSgTjTj6wSnaPnicjtY8HwNpO1LOB8z53tZXywNAg3vbKfRF7n5mdlG6NoscOMq383fUZ74ZELivwODCsgR/TQNH56apI2BHo8468X2CNNPPnxkY8BzbstSlBImev22MedQHbBgj1wK0EvDj7Lln6kLf8e4LYG1g7b0hOg92iGkH6DoQv51KMbo2Ss9o0XvCoYx05uAsyf+ytohnPD4+1sPDQ2simU6nLbpwWhNhPBwOrdvTUSNjc3pzu33dIu3Tp0/NyJAGRkms5KZZOqXd7nWx+uFwqPV6XdfX1/Xrr7+2ZQxc63fWoahGNaa993xkTBSA7ZgZg5XBSNY8wTk4IkYGfI75B/LyGysOh0NDbH5mVXcfVxsR5uqahNGjHSr3IyXnTkUjfKKgRMUGE8iE280NNKyE0BinVVV1f39fv//+e9tb09dsNpvabDZ1cXFRp6entdls6o8//qiXl5f69OnTG/Tt+Rm8AMJoxmGMaZTSEWUHoZ2j9cPgFfmDxugBTga9BIRAE3hr58ocDAIcsfl/87iq2stvbYQZkyNbgwXmkfe3DEJDDLd3Y7KD43xnYExr5klaG6DLPbxrCHqVDsoRGPewXbbTr+qWfzLda9oRETEH65EbRyyr2CwDZ+jvFDIy7k7UjGg9RvSAYIBzAWN2wOk/CGBMix8d7y5L2O26C4o9YHtjh+6+1rn4vmvJxxoBQGBP3CjfTRp0dW42m1osFm+65yaTyRukD5EcWaaSObS28bOzhzZnZ2d1eXlZ2+22tZZTC3FakmjG6BmgMJlMmrFYr9cdBPe3v/2trq6u2vhc38PYOD1oo+DUKHOG9kQCdjI21OaFf0NzkJcdkTsbzae+uhydq4myoTHvWIOOKK4NpkGDDZWL3Miu+evzrazuJsuUFDwxcnaaGrlhK6/R6HVLubu7u/rv//7vur29bc+GJox1NBrV1dVVzWazenp6qsViUXd3dzUcvnbxIs/eaKCqOg0vzM+ZjJRBdMpzseEnurejsPGmPgiYwuFAP4NdN3PZ4EFf8wG+w3vk0J14fA+INnh6eXlpUZMdqGXO4CgjPJpxfA7jNM0Nyj3WqnrjWISMU4kAACAASURBVAyOMezpvJIP1nsDCq7hepc6MPLeMpFzDYL4G3k3HTgMRPqiYI/N9tARO//bViZAQE7gZwJT+Gnn7hSznZzpwzh/dPzU4YHQEAgU2YpkAjh9hZAzCTuvVDIYZEPVBnhyXGthQ7/b7ep//ud/6unpqa6vr9v9n5+f66+//qpv377Vy8tL/frrr/X58+e2u8n5+XnbYRum0BXkrbcwGq5vcL3HDap9fHys8Xhc19fXtVqtarvdtiYDBNqKbRCA43YkMxq9drKB/n/99de6vLxskaeNXEYkRrMYh+Fw2BY003XriN0K6DSKkRXpL6c7veZnMBg0h4eCA2ZI5doREzEtFos3jhYD6U5Ko+is2/H8nBNOz92Fni+OmWtRGDtf0t+miQ28FX00GjX6/vnnn7VYLGq1WnXeJO7Ozarjbv9EuzZUyAXfucsY9O4IAR1CThmf6+BVRzDq7x3NeemO54dOMH4iOIArdWx3fjqtBh+5J+ems+FZfGZD6jWHjt4MwIkOoIEbKLingTBjxXl4s4u+cTAW5mDHhr1Ch9F138t9Dc6uOPLk/3yeHZ3na7uSjse2hvn1Rf9c54ydsxjp6KCbZYL/fdg2ARjhGfQzwECesUeArAS/OHnTyw48j3cjPATHnt5KkGvknEYh8rAQIxhe0wFB+4rPTqegkKPRqDabTT08PNRms6nBYFAfP35sr0r5xz/+Uf/5n//ZiDaZTOrq6qrm83l7f1jeM6NQHJ1TDggsTOCwws3n8/r06VONRqOGfm0kN5tNEzZe1YLhqjrWKJbLZUPR3P/Lly/122+/tR0zrKxOCTE35sD/OHJ4YkdgxGQ0yWHw4g1+aY+38bLAGQDxTKdAuB6H4+ceDofmPKAB0QrRFM8w2rdhdRTt1AiybfRoNJlpyYwWLLt8Phq9vtZnuVzWZrOp79+/N7kAtfJqJMZX9VqHnk6nbX/M29vbzpvNAQ0ANR+J1heLRY1Go7q+vm5zMr2djnZdjrlAo/V6/aY5xQbaka/BBbpEoxgHJYm+lCL3z/Q//yfgsZz4PsgomxsAjJEl6zHPRPcYX9UxJexnIje2aXZwtiGOjK1D/E0U5QySHaKdUNKX65BNdMIG304JvbQzhY/8bx23DqTD97iqqmMDDYwz8uWwQ2TM2As7UUofAD1vMsK4XBPFdjFWR5N5vLvwnNSL61zk60EqEMMGlAFAjO1223lzuNNTbkQxMZmYd+A+HA6to20+n7fGB6MB0O1oNGqGBEex2+1quVy21/lcXFy01x8hQBDeC6MzzQUtSIvZaVxdXTVG3t7evingO+0HnXkeRp6IzEgHOv7yyy9tg2rAg1Eths0b6iIog8GgRZ4cNnb8j4B6bClYoDHOc9Trz5EHeGKlYxE+wo9y2wjz491OjFaHw2GnvR+59N92UHZ4KBMRCkCEqIVr4T9/OxsAsHh8fKxv37611DpGPx0E9Ec+P3/+XB8+fGhv5Njv9225CmlfzwF9QYeYDwZms9k0mtqZ2DFCB+QbwJDpYgM9O3d/zliQMY/Nz/UcbNAzwjDgsdxynVPQGYXgMFarVb28vHTAmCNqZ1Nsg9yha5Bj5+voBhq7s5WxuMZtXjgaN4hwSs4RcVV3CYrpZtBhcGtnBf/53HVog1HPLZ2V58izzGt0gsCFZxrwc57BAnR6enpqETuZRMoDdsrwARCX97N97jvebVrxA+zYHAGh9BZQCG+j5yiQ8yBCbqXFJJxm4jME+fPnzx3FYlf36+vr+vd///caDAb1+fPn+vTpU+clnbxcczQa1eXlZSfKJHS2cYHoRiJ0b1pQcdLj8bg1IJydndXt7W1LmyI4iTxzviiejSmK/PDwUF++fKnZbNaiPdavEO1Y4LK1nHu5luOI3A0n8AQaJJ/tnGwUndKyIrvOwj2sEAZK7LzgNAny4lRnon7vHJIyCV2sLI7oLW/mhdFzOu39ft9qdWwRZoDDPRxhfvjwoUV2pN1xPLzQ9fHxsTVa7Xa7N+n45Ad6iqFwVE2UyJhI8eGQySR4KQS0sdGygbd8cA6yzW93F8OP/Jx7cThy8/+ZEjXg4X8+2+9fu1+dInZXNGMEmFh//bczAmQJHJnZeTE2Ow/oiCPEftq5YO+4H7JrJ8X3fMeyCdfxkW1n4JBlPvc4TXPbn5TzjIaRBXQQ3trG+EhAxricsUFeAJpsP0iGwhGwo23qfMgxNPrR8VOH5wkYXbnmYcYZLRhF8rdDbwieKT/OPRwOnXc42avTrs/6LdcNMAqfPn1q0eZ6va77+/uaTqeNGJeXl20uRCM4w5OTk+ZMHIXt9/u2Hs+pMxTBArfb7WoymdTf//73Ojs7q+/fv7dXEkEX1w5hFAqEAYb2CJdb6y8uLury8rJubm46qURHMPx2OqUjAHJwzMuGM1MVKCBjs7PieiInpx1wdgilo06jV6eHvFEth40q8mBhNzomM5BRQFW92QUFXhi9eqzcxxEoTUq3t7e1WCzq9va2Y8QSqUPr8Xhcv/32W81ms5pMJjWfz1uECt9pUvr69WuL9J+fn2s+n7dMBfXYw+FQDw8PLfOCk+rLsrjWSgTqJRScC11cN+Ez+OnIwA0mNvSWIWhnp4DMmN7OPji6shMgErDzsI0iYuf+Va+RrzuCMbgZERmU24BaZj0nnu2sgmUR+2AH5BSo9dKRsgMH21bGZHpZpww8rVPIEDYlU5aDwaCzpVjyKfnpzAeybdnweYBM7gNIX6/XHRpxL9fN+yJS+J/pVfjwo+OnDu/h4aEVyxMdOHecxp9zzAQz0+9ks1DAeBici67tMJmkmURBfzqdtiYJUnw0bCBI0+m0DodDi/wGg0HbJgy0S30QxbcxdvRko0/DCukq7wVa9ap0IEIMEoJhI8E1l5eXTVChEeMiAnh4eKirq6u6vr7uOD4DEyNLdzeR+rRRz1oWfDHSRXCNxvscBaCGZ1thjfa5txsv+lArDpnnM0+nDhkjaNEGCvoQ4QCWeAaybjRPw5ZlfbPZ1P39fa3X6/aGA55rRUS+UObD4VDz+bwBqrOzs3p4eGgggXmh9OPxuDmz79+/12QyaefxTObsCMYon7GApMk+ENF7/axl0FGy5cepOEd+8Bf5J2JFR6hZO1JxGswRpG2Dn2Nb4bIHY0IOLaeO0gDIlhGMLDLgWrZrn9ZXdAO9J4K2fYJmjrRT3u10HMEaqPG9naFl3RGNHW1GmwABPsMxZvrTNXVnSazX8Nr1TDdkeUw8xyUG9MpAhfG6PJUlCGTFGSR44vv86Hi3hpcpzayVuADrhztENjExOK4/GPnt9/vOW3Tt+c0oR34muJESRHOzBoLg7ks7JOaMo8Qg8OOw3+lAzndjBy+J3e12bSH8/f19c74psKSTjKSMHhnfdnt8KefT01M9Pj7Wcrms+/v7urm5aSDFnXpO41V100HscALNrOA4XzsMRwoIsA1HGikrrQ8bKtfpOJ/vkSlHm1Xd11eh6O5gtDxyvsEN96Kman4eDsdXoXAvaLbb7er79++tPgtAMrJHVs/PzxtPDodDS1d6uz7klPGwvtS1tOVyWYfDa73248ePbV7eCg2jYj3BQKCHNuTwJIGsoweDDoPcBLNcw30y7Yo8kTXx+iz4Y0OLTtjgOSJKQ1x1fKMIskg0BxDGyWdKMW0QcuBMFPc2f30N33MNc3YWy/Jo/WBe6YDMB0fN3OP/tXemvW1kR9suLrJEUpvlsT2TBQHy//9REEwymZnM2JJtiSKpjeT7QbgOr77dsoK8356oAUES2X2WWu+qU+e0+WAHx7MAGuuPU/Vc0NwOnvu9vJHpTctQn9O1o/WYR6NRKy7iedtm+w0DK6eE/Yo1njdPnrq+6fB8Aobz+gzEwmKi+HucBkQyEc18oz6MgMN+K7H7xOC6HQsDa1wm4Hr9WDhCBSBFBBRbPDw8tLcZIDQIkA0iaMSHSjuN5Yiy6hHtn52dNWO6WCw6hQ2TyaSDcmxcoD3bIJxuXq1WtVwuaz6f19XVVasU9SuXGDcGEJ5m6iHz9vRpA+HFZyuCEexoNGpI2pElAmyjBt+gv52aHaKdCm3wuSNbnIYFnzbcfn5PpOi+UVB04fLysj59+lRXV1dtLdQy4UMBiEAYG87PKRqvZdnpJ1hAxkibzmazJntOX8IHshs8n5WwzBk6Mj4bPPTEoNfGpw9wOJpBP0m1em0VwwZQdIrchssG3UUv6DF9MSa2vjgt6eyDbZDHCQ2Rdc8DeXG0Zn0wP+Gb55RRl+0mz/iwe9tG62HaQOZgB+qxOo3ovqBJRm7QzQe2J0+s+9YP2vHYmS9OFnrc3Nx0XlPmObAUMZ1O25Y4bHMCSrJBfG6Q9NT17D48oyJSMxDKnhVDweD9vw0phjzz3SglDs/EcCoFY893KJGZBvG8hoEQ8D1Geb1ed06DGA6HrZiANxnAaCMx2ia8NpJzv45QYCRzogSddUGiSBDQfD5vY6ctp3D6qio5lJj3plGezmnzCA+RTQIYI0U7JfM1kajnzOeZrsgKWCNVFqlTqWnPSurPHWk6lUr7KIN5jUzzPDJR1X2Njp07pz8sFos6Pz+vxWLRQdzIDgDDxTfT6bSm02lbe55MJk2eeA4eJmonImXcOMPr6+v2xg34xfyhM7S10Wc+1k9H7qYvtIV/AAj03bzKNBY0hT6sl+LIM41mPU8ZMOhFnpzhgU5en7VsoTPIl7dHGJTnmqT1zcaUcTgy5XdGzdizTAV7Ts5s5Tgy62CwYXo4gnRkbxDhLIWfNxh2+T/92oEaXGTkZZsBnfALTveypINMZiSPnYRG9iHYZw67qOoWwjBnbzHJ61mHR+dGqq6qcpUYHZsRCJR/u/rGDg7mZJiPQsLQvn6NnEyobJu5EE1tt49rKsPhsJ1w4j2Czsu7CsxRG0SGYU4b8LcNGMLHO+AWi0WHaUakHLcD/Vi/AwEluoM/X758qevr63r79m2dnp7WbDZr/Q0Gj4U8tOWopy+lYrpWVedINyO/7XbbziVlTuv1utGaiC/BCQbdCNHRrQ2IFdXgy+k2ry3TlvlB2hle+AQH+E3K5fb2tj59+tRSvnnEHX/bSNHPdDqt169fN9qzN8yR5WKxaKk+UuI8P5vN6ubmpiaTSTu7EieEwXEUj37YKeDoSc/yrOntyIcxsA/Q6yi0y/Yi+vBvp6GhB/x9eHiow8PDjp4DeHwUH8+aZ05VYTcMcpiXDXbKhR29jbQP0+B/y2nO06lCf2+ZsA0zrejH4MLOn4v7DTJTdwwEaJO5cnlc3GveEGXzPM7IGTEDMfrwnJ2Rg58Gm7STUbH7IAWNjjOHTJtiZ/b391tAQvRI0aIziHl90+ExQC/807iZyj3e8+I1CiNsHKeNhCMVI1KUh/uMtDabr99btV6v24QTmVBgYubTFpWZjtqqdidgMFfmmEUgEB3DzvdG4Cgpa4nQdDabtb9ZS+M9ckQ+HC6c6VanfEh52eDe39/X77//3t5EQPUqZ4n6WK++yjvaQ3CdnkHo2TpgIc7Fbs4WtXNNZI/SWcnsuJAteOOozoiTe1OOkD3Wc169etWKijC4VMBSkHJ3d9eOinPqGzphJPy2Zb+eh+iOCNtvRDewoHAI58s4mAen0vA9PKMPR4mkWeEPUT1rHqSN2f6AkXNmBN1C3p2q43t4YzqzLo1cOop2tGGji51IJ2nH7PVNRyQ28vDFBtNyyhyQYy7WVr12aWfi6NWg0Ov4drA2+imfjpDQBWiXkWpfFMuYrCN2iugW9tYBAfLBsxlhep65lGQ6GGyl7TaIhZdUy3q7iB07c4Z22NsMcGyz4SHzdlYmA6G8nn09UBKbQSFETMpOzUiCQcAojCGOwyiK9u0IEaTcd2VjiWBkSgNCg0rzNA2nHHJNCePkPngm0xkYEv9voTGCAxF5/NCPcH48HjcHxqb6y8vL+vLlSzOA6eh5txoGytEz0cF4PK5Pnz61SOPt27d1cHDQEL3TJfAwFZ/+Hh4eWqWrKxRT6IiWUG7vBzOIsdCm/KAATtUgh6zbbDab5iyqdpXAluE0PlZ61kB9gs9TRoZx4YBQVtaP4OdkMqmzs7OO0zDPMqWPk7+7u2v945iJODOiAkygWzipzWZT19fXjd7OWuCwLM8AU8bGPFKPLXfsYTNt4QkAyo4h9QDHYFnjckTWp482vMiHZce2wjJNhI/80F5GQczfmYkEkxlJMbe+cWATzGuPK4GbaeBslaMm2yFHYhkN2lnQDnOx84fv6KGXsuxgnYXqy/axV5SN5Iwfm5Zy70wgdp++nB20baVPnkWW7Qf6rm86PIe8pDdwEPaiyfyq7h4+n/9nprCYDXNMOATOEQGG3FWDOUErLgzD2Nqouhz74OCgc3ZmpsowElYMHDZXRqc4PFcP2VGnomO0ieoODw9rb2/3mqMffvihbWrm7Q/Q5ubmphlDFNRvxMZocNQSxufu7q6Oj4/b+gaRCHTFWbqUu6paeg8+ZXGN12KgM0jbEWDVDiBYtpABaGn6ER1DJ+iO4aUNzyONAApze3vbthbgPBxFusjGcoGM2XnRN9Hd8fFxvXnzpmM8MFjQwWtt0JAxAHzevHlTw+GwvQDWDoYI9O3bt3V4eFjb7fariMXzhwakjuzMbVicxTAwyQgr+ZOykVkQb+B3etAGn3ZyjZix4CRsnDPasd5W7cAS7QCYuM86CWjncsSTspQRGZ9x2eGZF9yH7GPXsCOMz/tLE3hwj9dZzSscjdfUbH+wTbRpx4rsp7NMAMxluw2dDEh8fGHKlCtoidBTvizP8LNvvszVtiqvZ7clGKn3hcRGbpk7TceIsfFahavrkoDc58jPTHPRghnqcB7GOPQF3blowTl90KTTKU6jcC8G0IYA42hDTNqGeTF2pxJgOu1Y4WezWb1586alPH/77bf6xz/+0d6dR8GEQQdjIfIbDLoLyFWPr6wZDod1dnZW7969q7OzszZ+V3Jmqozog7llUUjVbhHaCA8akNblfxsgn9uaKaqqag4FObF8ei2BsSIfoD/vg0SJqJZFplmXBaHyjPtziof/OQKMwwD29vZaNGHeOPK0TlE1nPK7XC5bWhO9gB+0gbODhoPBoO1HpdIS2jm7Yt31GomNcwJLr70k0mYfqp2aU1VUR6PTVV+/0NSXi3CQx7QbjMP0BDwyN+bBnO2k0o75ntSDdMjpaA0iuGjPtqIP/OIQPBcXBaZe0Tb9ZtQOPW0fbYMTeDrqMlg0T3I9Nx0ofIf+/I1e4eB41hGqI1o7R8sJ+zqdLicwYtzc33c9e7QYA3FePYUL4WCypM/sFBNlmpEuBUc57NT88j8jNSslBhKja2U2Gk/n7PUnFIS/bVC8+d6RqucCYv0W2oSuRkFEV7THPIjmuJfCh/fv39fx8XEtl8v69ddf68cff6yrq6uv1lNIcTkVQQqMKIK1HapC4RuG2mtVOBCPHdoTbdk5Ge1agWjTUR0pOyLVg4OD3te9bDa7dSkbUyNKFJ+IFgWjfaIQVyzyPFEIPOAZp1tIjzvlgkPi9BsU0jx1dGcZwUmj1E4FQtvT09OO4fr8+XOL8vk5PDzsjHG73bYKUZydo3loAj8wRgauBn1pfJgLc2StE90AVBrwYLTsFOAvxtRG0/LsNGSCX+QBeckUHM9myjCNt6Mu667tTFYGphM1GLL+8Iyf81iglefuCAsapS2zTFneoJ3tkudhG2XQmvoKveENtoH2zG9n5OAZAIto1PNywZCzb9zjiBK9h48+K9hBkqPPvL7p8EhHISyJvmEOSuPKJf8wYSNHHAjGxggh0aerrDCOePZcNzSKy2cROD7n4GmI64XVDMFNWBCFo0sECaSNwNCGDyS2ENKeldaIljWHT58+1XA4bIUW0+m0vv/++zo5OamTk5P629/+1gpUiJ4dmXldBfR1cnLS3h6RWzgYH2OZTCZ1cHBQX7586ShZX1ovoxeXsjNf2iUCYT+inRCCTkl8H5BAoVA2b2gmtUYfPkknDcZ4/HicnNdeob0Lcyj+gd+kgTkmLNfBMH7M30CLcTr65PmU0/fv39fr169ruVw2p7RYLNrGc1dVHh0dNfpOp9NW8GI5hm5G+2xloW8coB2NgZ0dN2uPpp0dJXPG6PEdbSAnACvshoG0IwrzjmedAiRiRX6Qa36s47Yb0M392rA784K+G7Q4y0QWwWPOVLBtkp25nYMjM8ZrB4QueD7MgX7QJeycwQe8yUjUW2gofHMQ5OUeg0Rf2AmfeGXaw5+slEXfaN8O0oHHYDDoHEH4reiu6j94PZDTTT7QOAXGjHPon3vFYBrGiQsDmdGThcprgaQJEXIbKgSgquvwvLnTYyUS4G8MlgltxI2BQKH4Hlolqh8MBi0dhaGhUtDoi/kbQTEOwMRkMqn7+/v69OlTXV5e1uHhYf3hD39oSnx5eVmr1aqur687mzuhBQAGIcPAwgOjbUfKzMORqNfleJ75madWWDtDUr7Q2cYA5UhjyGU+OtpHNnhNj9cZjTIz0uRZ7vV2HKJg+IgBpfiHiApldEUr83XKxSjVaxZU6PKZD1QHEDC/169f12azqfl83tYsnHY+OTmpyWTSxoy8UgTlV1OhV+Y7DpCoED20Xtoge93E2QR46XSp5cNOzY4hoyLG4LSjMwq04bJ6G00/awfnSAtZ9vgw4ui2oymcujMejiiRJQMLZ8lMv0whW2f7Ilg7YWQOWfEznrefy88Yg2lm/eAz6MU80w44YkWu7Q/8PlHoyxICer7dbtsZm/SJfOLgbOcdpOTyQV7fdHgZ4TARC2SWgZoJZjL/Q1h+u/Tf6QMjR/dvlIMB86J0MprowIiK/wnjGTcXSJXvMhy3w8fpGSHhAB3N+Puq3QkxtOfo2E6EtzI4EvXb0XkVzWw2q3fv3rX2rq6u6vz8vBlzv2395OSkbYDHmGy3uzdAgFaNohNtEqVT2GJjiVDbGdGeERjCizFGUY1wh8NhizyOj487SDsjd9pYLpft9TA4bSvFeDyu2WzW4a8Vqmp3xiZ82m63LVrC0eHsvFbBmiZ0gp6em2V0NHp8h54dAmOq2hkInBDydnZ2VoeHh/X777/Xhw8fWmERtFqvH49fYqzoKdGtoy/SnqR/OZ+V9Uhnd5iTDa7TVAYe8C8jO6+/OALx0oadgHUeeTLfnb4jWwItnd62LOO84AH09fd2BAbk6J5tApeBdFX3PFv68gUtoJMjJ+iCrhhw0B4RuJ93NGSb5fHkWK2nPpwcgOJlGGhCe9DFwAX6uiIW3sJndDGBn+fMOAEhLlhEzoga88znvuvZohWHl3Z+RuQMyk7Rjs1o1wSxkad9iGFUYWLw287YaAIhSqWzoiIcoGqEw+tXjD/7sWJAF9Cf95tU7dCT1z2YqyMrL8AzPowwFwgaZzidTtv/0Oj9+/e12Ty+qmY2m9VqtarFYtHQ0v39fUP46/XjSS+k6Jwq7ovMUDDWFkej3XFbdohEFdDP/ORvo3c7LRQXRYDuRqWuqLUBJF15f3/fzp00vYmMUB6qGkejUdvj6L2Apiv8PTg4aOdgep3asm8DzpgNqpAneMuZpxhQ5AEZtnGwDAGC3r17Vzc3NzWfz9tYOdCa4iKvvc5ms3Zw9eHhYVt7JXV7dXXVCk+YJ317ewUGzXwAXDj7AghgzPDb/LU+ZBSS0Z8Bt4G2ox+vyTpDlY4LOeNZ6Ae9aNfAnXuQ17R9jBUZsm7jRH0ftEh7mlGQ1+CQDc6ArdpVp2eEY8CG3vfRzLpo/trmeJ+1ZdnzdTTn5+GXt+5YNwCELoiyX3A76IUr/Lfb3drwt9Kaz248p0Gn74xCmTxpQYQoo4J0eo4kuAciwlyvG/SF9Bg7I2obOUd6dm55bp3nxOfpQNfrdVsLwYEwdr9twCE2bSS6sfKnYXQK00LP/F3lRFEHzop1uT/96U8NnX/8+LEuLy87gjCfzzsbnEejUTsNhGuxWDQnQXpvuVxW1e6ND662Y/w+9sdl6FxUaPK5CwC8h9DbPuDDarXqpJEoKKEQxbxLQ8F6tH/zN5u3r6+vOyepOEXNM8gnl40LBjpT29wHD22MDcZA+q5g9Zok93vNl8OkN5tNe/1NOpK9vb3OK4aurq7q4uKiptNpK3Rx5SpGHf5ijHBqyCY6zJz69JUfosy0K9DMER/3mH7OBtm2ZJrcvDBPDKIz6jSvoZn1mM9ybjbIaU8cnXnOPJfLAOm8kR9+HGjYQUN/n3lqJ+cxmOZ2clW7yIktRHxnUOfIjjnZwTP2ql3WxBGp7SFzdGVxRvdctOV5ZUCFg+6bs69nHR5hricFmnCqBoEm32phTsXHSKOwHrwRDMKFkbeBdD9GFXamCDr5fG/YtsO18/QJMYyxqtphz2wNsMOq2hllxm/jYAFG8TDuPGcBRPm8vsG9TufiJBBKjkZ7+/ZtHR0d1YcPH1oE532GnMN4cXHR3q9mI00kCFrOdQTSeuwNI/LyvknGlBFcKjwOjHtcJAWKBaiQVqMCcbFYtK0V8IB54MyQFWSUiIqX9G6325rP57Xd7oqNmDtygiM5Ojqq0Wi3XcFpJ28ZsEHBaQGK4Jf1B77c3Ny06tTUH1fwYVyhJ29j+PDhQ3vvY0aFCTJ8tJ6jp6Ojoybv0NDRhB0UF/KNQ82IxUAAfXKUkBkRRxgZhTnLY+NvgOlxwn/Ln9NxHK/HPCyzlmXLrn9zOdVqx+dokL4NxNE30wJdc4bHmYOMorAVzMF8wV47GLHdo7/xuPsWFAcnyC2fOwrGZiCfjMmgH/oZzI5Go6YzXk7wOqRpgdzDN3jMc+lQn7q+6fBskGGAkSkhPkbBoXOujVmonae1ADA5nIIRG4LtHC6Td86baAej4upDOx4cqKMkUDbM5n/SiVTEMT/m5JQa/ZISMjP4zlENxtHjh+EIp9Ezz7laqqq7tsnGdeY6m81quVzWxcVFSylwpiH0WywWh3YFRgAAIABJREFUraR+f3+/vWvPlZqMl7NHQYOsQQ2Hw2ZAMOz0gbIAKJCpBCsupMCJY3zhDQDI60rw2ill1hZxdE5Pwpfx+LE608ridDL98P/x8XE72/Kp9QYjX6rQvI7GfQZMrJOgI9AH/hu4IHvo3sHBQc1mszo4OKjz8/M2NuT66uqq0R0Uj2M1HW3wAB7QnnFyH2M0L6CDjSFjdSSV0Y9lKzM+mWXy/6a3IxVkk/vsoPgbG4H+OZUGDWw/7Dw9BmhlmmBLAE6OkA2IbJgdKSOL/FDU0Zfuw+HZAdseZto96cZFYMHZrHa2BkouzOI509W0MuhwMGP+2GHjVFla6csQYgsN+pg7cmebn9ezVZpV9ZXnR1FMMKM5DA+KyucYfiaQiAdUZwMLURASCH5/v9udb2LzHcTGOdlxY9hYc3MVFYrLHImMGJvfS7ZcLttzGHracFSD0HkLRtUORXOephGqUVZVdZwf20CMflyAQ1/T6bT+/Oc/19u3b+vjx4+N/uzrev36dX333Xd1e3tbX758qcvLy1osFp0IxwvBXmOqqvaKGiJBnP5wuDuOaTh83EphGYD3rHvymddHaQvhd5s4DhR6PN7t0XGkzZFqJycnHYCEIV8ulw1ZU7CD/PjEEFLZq9WqVqtV+x+lI6UE/23M7NC5lzk5+h+Pxy1qvr6+bksEOI1M3Tn9u91uW6T9l7/8paV5LU/MD0Nvh0M2Anlk24UzJVnAABDyvj10xMU3GF7oYGDmqIVx4DS4vP7mFJlPwcEAI0OMnbZp06k6aNNnpNOe2GFiB5FDr5sZwDJe+nDw4MgrozXLimXMRVx24gZcfJ+0dTqZy1G5o22+I4XsvpwZczvYR2iVoIDshoMT9MDz9PIPIAIwRvGLbQj8wv751VxPXc+epWmm0aBRPwbUqUOEAQVAEC0Q/A9x+e3oMVGe0SIGxblemOwoknb9ri8YkikPt8e+LY+TvnFOGIm+CNGKQ/qIy+kwoisbOAu1ESFCSioOZ+211Uwp8qojBOnw8LC9U+309LSOjo7aJnac1sXFRTvWDJDhtMZTisnaHsd+Qe/lctkKJBIo2VjZecC/6XTaud9pPWjq+SL4ySvzZLlcdtLk/DAG05StDTgl9kSyPSHTpka/tJsOmvYczeAEkQfAFKe3WH+QUYwSaV94wiZ42iV9TSqbPh0J8OMMhGXZoJH50qd5yBxwBNCR7Az84rdpTx821uiI136xF8wDWlh/7Ggc7fCs06e2NXxn22A5c+aKeZgnXru1TXOGCz22DXVWyk7IDtkRMJ85UnO2KJ1XOiQ7F0dftElggXMZDodtHdhAIiNfon07HesrW20cuNj+A2oBVQZblpfMOsHfbzm7qv8gwnPkZs8K06p2+7s8OIjRl7N+yuFYcOg77+cHglnoIAb/u4+q+moDcyIc5uXFbCtJ1e6luEauq9Wqgx65l7lxrqVTGZ4bAABGWzgTNVngjb4pFjEitkAeHR21zerX19c1Ho9bpaf3WR0dHdXh4WFdX1+3tzaArvK0f6eyzC/myTM+fmww2K1ZuOqPVKvpjrN14Yl5DvLFMJOK5d7JZFJ3d3d1eXlZVbvtJEbNt7e3nYiW+Tlt7X6gFXvm/L47R8I2jMgaczPittM7Pj5uDhTjx0HSRNKcmMIcaR86sV/PJwURYTs9h5x7DMgYGQTmYkOLPsMTvkPXXWgET6Afsszfnju0siE1rwBQ3rrA2JEh6Eub/O/Nynbi+b/BNfpqw+rslDMwTlVnFMeVSzSWQWwCQMOOxQEA8ukIlr767LKjMebo6Nsgx7YjIzjasr1kXJZxp2wN0rbbbZNrQJptGvNxRXI6QnSflGUCNdc02Ebm9WzRitMNTrEQqiIUDMYK4vJe76Pw5Ty101FGoO4zHRXCYKUbjXYFKkbDpF9AGHZOTtfxQlYbQAuIiQ3jnUqgHSuVUZ0BgR22Bahqlw5FcDCkjlic6ki0U7VbECbyefPmTb19+7alueAhxhXnicEkGuLAalIM8Mboy8Lo6JMxcy8p34eHh84LIaEPG7nhG/wwbeAd4AelJdJkA77X8R4eHmo+n9dwOGzv06ragRjW75At5uN0MSgVvlPZyRqaN9ayTw+e2Kk7FYeugG69KO9j9ZgvDgkaec3CoADZt/Mzkk8ZYhxUIbsM3VEDtEHXvE5E33YKyJbBEPLqTAyvWWJtNSNQ+vS2B/iCfUC/GBd9uArQwMd8sP5wL/d5mYZMggG/I3zTAHlKcG9ewDdsoYE2F/OgbQcJ/szRK8/Rr+nPZ/AwHT3/29HThsEQf2e0mZEfeso4qYcwrb2Uw9xdmGgaO2BwjUBfWtzXsw4Pw20CWVEZqJG387RGI3hff5eL1FzO2cME7kv0g9AxFiKKFBQMCAKXBsHptjQyENTrCCkAji5xqvyNA/aCPkbRzGQMOCgLlBXa6HIw2FXRMW/TFsDAGhkGHsNApGaHDQCBNkR53IvjwMEQyQ4G3U3uAAx+OAUGA4QR29/fb+/nu7u7aylWAxPGx3mgfI6jwqjSJmlZ2jo8PKzj4+O25YK0JKX5vOW+qto4t9vHFOvV1VWb48ePH9scAQfz+bwODg7qzZs3rQ0j7VevXtXR0VEtFou6ubnpGHHkLA0xETIyeH193WQB+lpnvD6GIXGKyVkRO1TuwdhXVdvATkoZYIuhQkYzC5HrPp4fcun7rfeOgJxZQu4zY+M++dzGmP5oJ9swKLP9cLoRejJf9Nd84jnm60iVHy9N5Dic4XHU4iiSMXkt1TYq7Qr0hH6WCb7LjBE0IYPgTI2DB2wM69yO1ujHe/6gDWCQjJcjVNtoxkS2gvE6Ffrw8NBOQHKBVMpRXs9uPGcSMMlemh+Mi4nr0Ldqd6inmWhHmIiANQ0Mrx2K00dGLkZPDq0THRFlZJrGDiXREijPBsbFMRZe+jWd6Mfo1rTgPqeKTk5Oqqp7uoAFzw7Wc4Bm0JY+XGjgakmqMREm+Ijgs35yeHjY0D3vwru9va35fF7z+bzxYTTandOIMBIZorAoI6iek08sFxRPPDw8tGgGZQJwsYn81atXzbDf3NzU2dlZZ1M3aaLt9nEbQtVjmpe3wVftKiWZ93w+r9HoscDl/Py8VS5+/vy5VqtVff78uS4vLzto91//+lfNZrM6OTmpo6OjOjo6arLAHO2skYvR6HEvpEGlaeF58IzXS12ARaQAfzCopjv0gy8YsnRoju6YJ894HZ3+nRpkLK56RF7TCNtJWG/QGYy+XwnVt57mYjTmaLvBeJwJse3w4ep2CgYXpOfIVhHhco9Bs22PM2R2+rZVjB/9q6pWEAfAsn3CZpqu/M330MjBgZ2HbZHbs/Myf7Al7H/1uiV6hNzgG2iHKlAu6IaMQm9sGn/zLj3GllkZO+P/2uExICZD53ZqTuklcU1EC74jCZCtnQCTsGPMTcxGcY5C6QtH5+okt2miOKVjxiFUdpRGMozNTEagEV7axmlhRLxgnAU4KNjV1VUbH/fjUIysoTUGrKpadGhBZUwW/My7V3XPHDSIAO3b8GGETk5Oaj6fd4wjUZv3lSG8fWt6rBdikPb29tpiPoo+Ho/r9PS0RVbw1CXgR0dHzSFDL2hzc3PTnmW/olElSuq1FRwhf799+7aWy2V9/vy5Pn78WJ8/f25Hma1Wq/ry5Uv98ssvNZlM2mk20OL4+LjtfaRddAjZAB2zZkoq1AjZ1a6uMMW4OD1LVL/dblt0aaBGNSrzh+4YIdZhARTQ1etI8MEAyymo1CtnIqxryLbHZ3BgoJ0yb6NpR4b+GVQ7OvLSCOPOCsyqXSrUDtFBgR2Mac5lfc2MFXyyg+R7dNgpT2cI+qIfdNupWrdHtgeaMw90iOd4xnbW1dQ4Zb99g6UR5IElCubQd5k30D7HzWWfYidvGXvq+qbDA7Vut7tNuQzKTsAKYOE2MrKhZUIOaRkwP6Ax+vJitYUTRO4cfqIfDJ5TM+l4Hb1loQpj9jomBtnRlQ0X9Erk1CfwjMft+znoh4DbyWGgTU8ba28PcYrFSuoUjqM4GwmMq+fMfB0BwjsMOmP2OiJAhbHh5JJ3pB4x3jgNNp47DZWyx5oLUeB6vduvhqOeTqdt/ctpXSJTR0TQinU2Ijb64i3pyLtf63R5edm2SIxGozo8PGzRHoCAty0YVNKPDwE3QOJ/gALyk7JiIJWRGnRzUQnOf7lc1t7eXjuijD4xbmks8w3X2S/zSWOeNsVRin/8TAJXOwJ02NGW07207QgQp89zzMtra7l04aIhF1WQ+me8fWPMH/ji1B6OCRlD3qExusj9ti0G39DdOp/6j8wzd0e38NtLV30FUNY1By+2HV57s25hQ3xSkIMKAySAG5XI/i7tdl7PbkvwJPH+zlPTkQUXRkE40AfEsaDZ6cBw588x3iipF8j70gcQmXFxGUHwndMaSaxEwczLBQKM08xzEYKdqvtL2uJYoBV08FgzzYUg0Y+dBbQaDHZ588z9uw9AAycfoDQGHvSBIeU7t4fBZmMz82O7g5F2ZgDG43HbZO7oHcNzcHDQfhyJ2ggwLniDfGDMkUO/pYIUIQaEe4k4jfTZYG+HOBqN6ujoqPNGAqN/2iH16XVVAMnV1VX98ssvHedEVEg0aCeyXq/bsWAYcsADBT7IkYsDcmMvtEb/kAfAHSDTBTUGwZZvIsDc54e+WP5puxmhcfclp3aK6KCzO6avIxHbDc+HOZL6xaZ4GQB5xsEhO7m26SjK633OhAEYGbcBitfD6CMjEwNX08A2mHnRHzbBtgq9QEZst72cYx1MAF+1W7rhXq954qzSHmPLOOg+AwY7Oy/RsPRgYG4b54PpiaITADplmtd/tIbndCPpH0dJTNDpLEcgJj7Gw5N0pMKzENtMt7MwMuI7hJAx8FwiSZQHZbSA0mfm9m3oIT7pPL7DoHiczi07HckePqde7dQsqOYBl4UeOlg5iDB43x3Pc3wVguQFZa/hEdV7/QGHbiTqTfvMA0dCnj0Rvg0D41+v151zQjHqrG2xHsZz0BL+mNfIJuuUKBFRDQdcZ/TmVGZVdZx5FgkwDxw786Afp8PG43FL9dAXDhOUTrp1Pp/X5eVl24B+dXXV5Bt67u3ttddEQSscNm3j+Cg+AZBgfO7u7tr79AACTmvSLg6fylDLQkYI8BE5gQbOKCCr3Gfg44iJHy6edfbCANXjMTgzgOU+95PZqgS4zrgwd+tcyhygyfRknQub5vk4lZ7t2qlYRu0gDWzgRdrKDCygR64nWu79LLLgAh/WSW3HzH/4Ce1o2zSgD/sE6EuFcxY9sU4NkHB7aWv6rmdfD4TgwhQ+74s+MN4IMAxAUF1JZIYwEdqzIBq1pVAnUoHYmb/meS4Lc6Iy/jaiRKiIkiC007RWbDtXO/a+SM/fIfSuFs1UndszYnLUYoXxocp+x1tVffU6DebsMaTCGH0xHoMDK6zRORvrHdHyNyjRawdEc1Q3UphiJXS04eoyV6ut1+u27w2l5H+iHJyf5dWyjuGH98zRYM0R8XA4bMeP0T7Hl7G24ZQiqVYDwcFg0M5vvby8rN9//73Oz89rOBzWd99912SXilbAJDprAMU6i8FTZlscPbgKsWqXIkfm7ACYrws44IFRuR2JsyXcy7y58sAA7INTdpY9Oz9o42godc3O1/O1nqHjzhLwvKMm5uroBvtEpos+PSfLHTbQ4IHx8pyzR7bHbrfPgdkuOIVvm20bg3xCbwO3Pkfv4xnRc5YfMtI3WLasIw8ubjOIQA5x7lXVAK19hAF13/VNh3d3d9eq4xACD9SLiwi30Z87R9BxUChLrhMheAcHBy2dwMInKRiHsbRtZjraQTH9G+UZj3fbBfghjwy6cOUU4+TMOZiAcTWypz2jMhsan7OZtGKsoG/maOedqQoDEDtPPodXCCTC6egSIb+7u+usVRmNY3wyKie9aQFPQ7lYLJriOA3BOP2mbs/DxgO+2SBbWe1MoZffjgGfeN4gyhGcI9iqx/VEGyLLHZEwiug03mAwaBEmDm08HrfDq5FxK+5sNmtFN/P5vDn8f/7zn3V+fl4fPnyowWBQb968abI2mUyawcBYUwFLtE3akbdOTCaTzqHXHKCAIYT+VC46enPEQ2RuMGvg560p0Iy/aQdeGuhBQ0fi5hltW8foP52Mo3A7J2Qhi21sPyxrlqHMujD+XJbweiJjQa/sJC0zjMngnfEQbaGLyLz3TXrtzLKKfBtkI5tpM5gHuu0tWbaxOEU7f85+NQC1HWOezuq5etnRtdPG6/W6OVJkChvoOT11/UcpTdBWCqiRgBlpFLTZbNpRUSk0Vk7aNgqGsSgAbXrjqSMgKyICDzpnj5f7QXAteIzPG6rdh8fu9Rj3aRSHgJnZ/swoj89cMOG26IPnEEqE3IU9TnmiAHzPGFFaaOf7PeY0JE4BG6VDCzv/PlTL5XUs1quISj13UpuWEyudlQgjT9ThY++gmzfXmp4uZ0/wAaDyfAx2DK5sRJyq4UK2MBI4FMbio9W477vvvmsy+vnz5/rXv/5Vv/zySx0eHtbr16/rj3/8Y8cg4lCXy2VHLzAWflceDo6UJ7S7vr5u48NpUqiDnPi1NNCB/0k9ZTbDsmVD6GgdcJZruRlpQxNvV3CEaXl3/+ZP8trgEx57bQ97lOlVA1tHRlW7LQxE5cwZvtMHY7CMWHess9Z/bE+mhU1Tg/BMw2MjDHDtmJ9a+zw4OGiHRwDk2XpgMG9Qg82nLcYIz+B9OmvuzywhfHWE+9T1bErTL29MA8/nEN6CY2HkOaPpPkRjD41DgXBEJBAso0I7PRcPcA/E8D4l2qrqnr6QKTkb/HTmRGKuXrRCpmBx+bR2o9rcg+OokXaNwKq6L+ZEIOgPYeQUEJyAlQF6QAsAjsvfUWajwKdADPMGgfm1TF4ngmdE1MPhsFUzkqpzpJebhF2cZGVCAfgfXvK55c9pbEfGjBF+4LisaE7Xez3B8otMWtZxInZorKMhA0R+TgefnZ3Vq1ev6vr6uj58+FA///xz/fzzz3V/f1+np6cNHBLtIatkI0x3p4mcIYAGrM1Q9OJKaOTZUS309WuE7FwSrMF7+rZh5MJgwh9H3uarZcSRIfrF2LhwAMwLY2tHkgDG0Z7BMfN3Ct2G2FFMpsP5nkwXQMWGHTrwjFPFzNGpQM/R4NCXZdigNKNgaGnQjGzAUxe0sP0gKy1NPy7bUPdjW5123FEof6dMO6jou551eG7Ujs6feR2Nz/mfiTnchtF2dkbwKaCenKNKG1v6NcPsoJxuNdLhgmAZPXis3IcRxAF5XSyRjIFBztkb1xEMV0DyrI2X6YpjMK/s0KE1Ro0TDjjx3zyxk+VZ8950zrZNQztGj8uVgo7OrXzmD44SRIyhyL1N7tvolcgDIwGvnJLFiNA/ztafZXRmgGdU7Pkirxm90B/PGNHyLDx15gSjQKR3dnZWZ2dnNZlM6u9//3utVqu6uLioqsfN9Cg+Y/G4ExjawNzc3NRisajFYtFJbzrK4Epn7OjG6TQ7N2TIgMxg0AA1i9WyDTsMR0ToV8pdGlw7rwTi8Cj1wPYrQZgjjKrqgGvAkqOmBKe2mTyf87bz9vj4jjaTpvDEkRyf+zeRk7M46aCpyGQsjly5n/8tA+nkfZ9BQjo9xmtZBEgTbDgbgl196vqmw6OcfDabtQl50RTFxSg5vEepLPQ2+p4sVU1V3T1kFgAiDoTIa3gIiBFkhr8YWNoyGgLtWVmoRKJdiInB5V4v+vY5dBhoZJKCV9VNtXgNCOPpsdAO/PF+HObFsTys1Wy3u1M3oGuiMCsKUYrTUhheohCUpGp36LV5YHBivtsQWy4o8MAxWuEZj/cTMg9oyk/f+kpmEJInlhsUjvE7ykAGDg4OOtEf8oPcINu0BX18pqOdHfMD4dv4OqoC0Z+cnNRf//rXms1mdXFxUXd3d3VxcdGMggsGbEzgnSNtAy8OxfZ6pNPZ8IxiIx9NhpG3viDPlpl0Rug9zpNxWRbhgf/OdF8Cob40M/NwdsWgJQEY47D+cfl4N0dT/O3KXsaCznGPsx5pa6wzadcM4N2H524QQQ2EHZvvMXDGbjrjg11nHIyZ7AZ2EVsEHbzMY6Bp+jrKNI/T/lkGPUaAB3r4X0d47Fky8Y2U6BxiOXyFMHTuyIUJ8YPA2On4x5ESCuOJG0GkkWBcjkRI16CwNmg4O6MOR1qJspin+2G9wyE2Yzba4hlHd7QNCEjBdTSYdNhut207AkK9Xu9erYIjJTXheY3H46/Kiym5z3UU5mEHxeUo3Urmzat2ZqRCTAenD/nbKSyEGgNatTth3nw0jaGdq/34nXIL37wQ7nZxHCzk2wgbADEHH4MEj6APwIXLm/DTWKYunJ6e1vHxcb1586Y+fPhQnz9/rvPz89psNvX+/ft2VBlyxd+MC0dlnfALd22U0SevAyOnjkb7IjuDJdMvU12mtS87LTsoRxXmJ1dfVJjA2xE/PLZMeznG64Q+7s9yyJVRoUv9+e1CFObu6JR20IMECOaBoyIDQBwYdPP4XOFqG2qb40jUIITojnGORqO2due+6SudGDQwjyhyccGc+QZ/bB+I9rx25xR+Xs8WrVRVOwrKwmwhtuA6vEQxUG6vFaSRcdqMts0gCOWJ045RO21Z4YweXB1JZNd332Aw6ERzdgR9Y7BzhwEYLxiMoUeA0pDhDBEOK0qmw9KJ4xRy4ddz5BgteITQMIdMK2cqBEPdhzw9BxsCpy2fWttx1WSCFc+776SGqu5eM1fJZjUmNIKvRuv0hTGzIntu0Mob0u3Ix+NxXV9fd2jrMaALyXsf1OD0F2PIdRHGNRg8bnlgC8evv/5a5+fnNZvN6vT0tLbbbaswhY8YFOvMarXqvCXBadZMDTuVy//WQxC39dEOyfLjaAZbYpBjoOYo17JiEODo3Tqd4NS667SgZdppM+bvCM16bxp4rSmBM4DN2R5oTr+2sem0CEJwso4sTaPMfDiitd651iCdXI6dZ721hgp6O1sDReuY1ypd82GHC625DLyyahR+cBiFAdpT17NHiyXisUd2uiodngXKqMGGzQSFYO7H33t9jfaMzEDaWQIMsyEiUYnTrYlk0+giSPzG4CTiROi95uh1MqNtxmNaMTc7oXQu9EF1o2m13W47xS4591Sc29vbdtTXeLx70zW8YH5OHcAjAwXaNipm3m4rx4pgeq8SDqeqOvvuiBBdDGJeee3SSm4wxt8ZMWbGAYUEQHA5omBerC/Y+Xldx0UxyCtZBRsRRwwGCC50yDVbF3wcHx83hPzTTz/Vr7/+2l66C+3ZbkIxEjRnqwK8Y66mH2Ol4MbvePRccOjeIpHpe0eb6JTtAFEkBpSx2OYY8GRGKfXGqU87NztDG10cLvLu1xbxrO2RHQZzQRYYh7cYbbe7faa0iz7a3pi2OX4HBv4fGjuVaHvoMeVlMLK/v9+qpU0bO1R0NPfYWa/8jNu3XzD/kDk/ayCLTnK+q8EDfLTdzuvZo8XwpI5UPDkMrJGnhcyhcEYU/O4zOjDXC5QWAlcDQix+sxZgYcBBcsFEC6GNN4KfhjUFm7bcJkqO0GVU0zdu5pvbMPgfQ0/f0Iv2iVz5H2ND29vtbg0PY8l3jryIblASR/A4MR//RaRjRI8SmLcZKeCkrAzpnFyIYCGGb6a/jZ/X0yxbBhpex8mUnJ2vIzv0gPM88z6PxXLlyDA30XotAhr7RBW/VsrRBHPAEVY9noP6/v37uri4qC9fvtRPP/1U33//fcdJuQDI48i9hN6iAQ2hkddVMgvj+UIPZy2glw+asB66He4j9Wtj7eiqz4B7zEQdXlbhc/jCb37yf+u7+/Z3djjQ3KCAezhnFrlxVsGyDW/YhoXuOBocDndLC6wrG0Bi9xxlew7YEoM3bL0Bm3kD8MQJsS/aoNfzSweUzprPXJhC34zNfLVc0Cd08cuV+65nU5ow0AbFKYQ+Q2Ii2XtjXBxJ2cMnU4ySfQ9EgZj8n9EHnyNEfhu2nVAqmw0pxEeIQBGetx0hc05kZENlBpvGfalO32PQ0SeIFgyEwYADBSQKQSgd+VV11xWHw90rfEjRQl9O+KjavVbFa4rpMFjPc7rJxhuaOv3tCMFpNAwBUZPXBZENO8xUmqpqa60GIigzBy4kgra8OkLrA0aWV0ePgCJHyRxk7ZSy+cx93v6AnLH+NhgM6vXr1/XnP/+5bm9v69OnT61gyQcn0Lb5w5YVNqWn7hv0MG5HM+noTQto4LYst8zJutYXiXvctGfnbd3tA+BJSz/v4iF4lKDUztCpbrdVtSuCI9PBRf/IlnmKzpu3Bg99aVc+T8BoJ8uVzp3n/OYH21Mu2x07ROwH4zZwdKbO9spRHvcY2NqGwgunKnHqZCiYbxY4ZkGjr286PNJmDCIdhYXXzsFOkb+fStMZOXFBiAx9B4Pdq2QcWXqyFr50zE5dWIiNxmG6FcnpD4+RZywkHm9GxqmcXldxysHtkOqyYDEeG1WigkxdkF5LQ41wOoXAVgVX6aUhgH78b5CBU9psNi09Y0G20TH94F8qjI2k1yYtR1W7dDdGs+rxZBToaqfL3+YnY3MxBJ+5oAZZsbFzCj3TyI7EDWZcyk8/oGTud0GL9QiwAl02m03nwN39/f06Pj6ud+/e1S+//FIfPnyo09PTNl6yMqa75XwymbSoYLlcfrVVJR0aczONvK3CoK3PfmQFIM/AT/pzRJH3IoeODCx3WWiT43Y2wnbDYNm8NciBDwngmJf10e1jzO24PTbrur8DEPWBrYzWcCbYAeuYwZIzWQmofY9tI/ROmlpnHdi4fmG9XrcUOp9l9AkNPUfmv7+/3w59t1zRr51mXs+mNGmkaveKnEQ02akjHBddVO0Up88B2gDx26G8kQMGljbTcRod2bgzFhPIimxj6EiPK9NuFnqjIEd2fcUlTg36hVAVAAAX8UlEQVS5Pzs0KwfIzWinahcZOXqAJxmdOMohHWm0aQcKittut80BOhobDAY1mUw6wuoUnx1uKm+m83DWpqPRZtLbSJr/+TGvoGM6LadKMBLQgXEib6PRqIEOOzfmjex7vN4CQzvmex9v+ow4fTjq96K/wdt2u2376G5vb1sRy2+//VaLxaJOTk4aGnbUaZQ9GOwOASDNhoOu2hUHOV3otHZuqbDu+QBzA5qUV48RnUVmPObUDWTYEY+XB2wbkFE/k1mmBJ6sSZo/fE8fyKp1MiNC89ggdjDYHUGXW4FMK+uEZRBaWcaZq4GX7RLt2qaRybEcO9r0OrKzLtY36OIxpE2F1o7KSN8vl8smhwBnZ/sMmPgcmafdp65vOjx3ZmKjwBmt2UHB5ERTMMDE9iBBvxhoe2wrfqIbiGWjbEab8e7bqAdBTqZYYG1g7LgcvdCmoyN+W5mM/shJJ8LLqJL/cX7MJyOnBCOmjaMPxugiHp/qb6Ni2uCoMHbwNyM9eGqjX9XdFoBSOZ1DWsipSpAmRR991WDMgXVEjAjnPRoJZ2qa9mnHKNqGjPFYpgA7i8WiAR7zxz/IU2YQ3B+yTiHR7e1t5y3z0BlZg76kNl+9elWHh4d1eXlZ19fXNZ1OazqdNloY4PCsZY45MD700se+OUXodWBkCRTvvZMGBilXpo+dWjpqvjP/oZltUWZ4DDZo0+PpA86kxi3TdmS2e+479d589lo8faQd9eEWfh6a8Llfx5Tjc1Uzn5kPtmWsI+cWjapdCtYpeEd4lhu3aXlG3yii8hKUbf1oNGrFVz7FxvQBBLquoWp3Zuu3rm9+C8rzxGxo+pjgFIidTh+aSEbwXKYMEAIzwsYGAtggW0g8HyNPxpEnjphxRkOuxLPzsFBW7U5BqOoeguyxe52Ktrnfjt5IPpXWwIK2TcvNZrchk/8dnaAgoKnBYPcmZM/bDj37t6OgPwogMHzIkREfczXtnIKyY/RcLVtVu3d12ZE4vcX9fO9qSMse88MgGJUmOnUq2vLial1kA7pbXyz/GdFbv4iaqJhzyjdlx6lWHOTZ2Vmt1+v67bff6urqqvOOwoeHh+YcbbwcMdGX91KiZ4C0ql2Bwmq1akAMWSRNjjG1MzeNHdFAO9px5GJn4UxNAtWssoW+mTWwjHHBF9qxoU97hS2BDvyPfNAeY7C8Mx4DfINpy6L54T48B489Ab/7y/5xgKaR0+cAUMbpwip4aNvjNTn8Qdp02sIBQhcK4Cwj3M9YadtLJZ5v1jf4enYNz+kCGx0Yw99e13DkYiFk4hY8RxpGvFaaXLfJggDa7Eup8cOivYU5lc0IyKjRhiSNpOngz2gfZjlasaP2GBm710I972zPKUrzgvH7VRums512OkOfhuAF96SnU220mdVnlol0ltC9j465flC1i9jNA+brFGVfys7nwTqC8kZ71luZl9fh+mQFeUVGDYpQWHQoeUOfVmgDR+bg1BZzxAB520dG1Nvt44EK0+m0Dg4Oar1e16dPn+ru7q5ev37d2R9J314vsVH1FgvLhNfl/MYRV3Ym2LOc2uHQnuXeum/6WrcMbp3hsJ5xMSZnL9Al65F1EoeFTBsA2UbgFF0daADlsbpvg3JH+YzX883Mg7Mitmm050xXpvmZN21b9kndJlhzdS808gH6jDnTrO7TztnZkrSbjkBt37MyGzBFG9DLdiuvZ8/SdCTFoI2e7ShgiD0xg+Azb/xmEjZQNhCORvrO7PMaC4YCBGrnSNveO2MDbMZikPoQOffZ8Oa8M+XhSM3FBrmQb1r6GJ1ETxYcPvfifhrXVBA7rKSzkaqR1Hg8bmcr4qRAmGz6TMdiZXWKlzE4kkj03Uc/7nt4eOikNA1EiEQYt/lGhOF2eN5y5eqvPqXNCJJ7UL6qXYGFgRj37u/vdyKqTKPh5LwHCn6ig8gxhslbQmgP8DGdTuvm5qaur6/bwQFZEWrDvNls2l491msAND6ajnHwjA9hNs8xQNZlnzri9kzvjIQ8vtSB1DPmgH6kAzRotUO2fllHM+qyzlhW3E5fEMB4eGm0ZZ6/vQziAj3bFmycgZMjSvMTe5a2gf5wWk6J2xGRWUB2kRsDBsbhiIs5JHio2q3XOduS9gg76PFmNgSgxxjgpZ1wXt9OeFb3AGgYb0Y5UvDEPAH/7wGbyDayFlT+z3b5wUDZWFqJ7HQz1eR5QSinE92WFcpobb1efzVOG2grCn1g9CygNoiORA0eXGbvyksbAi5QvCO6TBvhuJjfer1u1YKOXPLFsXYKXAYWOBP2D3GhqKzpuF/TyojOnyX67kPOlgd45Q3Qbs8yvFqt2tqB22Re8AzjU1WdczE9PwM5p5f6gIkRLPzkMACMj6Nb7nF1ndsyyh6NHqtMv//++/r3v/9d5+fn9eXLl/r++++bbN3f37c5cdrKaPT4lvn9/f1aLBZNVjCQWYHJ65vQBc8ZmlinoZ9lxnRgXm7DUYyf4TPArp0rY0y9T4PIeJxaNPB1NMTcDK4MgGnHgMlg2A7bsu4CLIPvBNg8yxgzKEmAlbaQ+WZ7XM4w+Yxh7Ahr4wb8mW4E1HhcGRzYLjMmgw8iZM8XOjndSdbD+pq20NezDg+G29AzICZxf3/f8ve5wGjhszMjMjPq4rdDcgjr6AJi2cAlUuT5NPqZL89SdITBUUqG/55fOhsrYj5PH1n9hlI7arGC5PzsnEBh6/XuiB0c2VMgABrx2ygTIXK0yXvR6Hs8fnx3GjT2S1f57bUiAwl4Yh4gyI4QAAbL5bLN1d9zj3P3zAejNB4/bqtZLBYd8MWCN2kalNNGjnaSbykDzJP1MDsbfldVW4+jX8Zqx+5IO5G7ZRh58GtaiBrMZ4zybDars7Oz+u233+rDhw+1t7dXp6enbWwYEeRyOp02evpUGK8zwwuDoFxXOTg4aNtDHAVYrm2cTU9HBJZ/ZxcM4FwYxVgNNlNnc53NRW+2c7n+6PSu7ZDlH9ob9DFuZ0gYi9OqgAOidOaPTnodPG0ebdg2Yx+cVXC0zVgcgJCeNWDjZBj0ys4504/W8ewLm4Ic2GkB1jgPmLnTHr89d/PbgPCp61mHR6cUBxi5MiHCbhPdwpBCa8fnNtlbAUrz4n1WPA6HuzUqjLyNhhWCy2sWnpsNvJ1XoiDGSZ+MCYHx8zbo7G1KNOjo2HSFRk7PcllwqKLFubnCNQ0MgmK+IMwYNASIfnjeKWMDBeiZYID0rcGM00VcrrKzEbBB5X9HyVYY+nAa2OkNnudvUrNEK8gtkaDpYgX1XPgbAwB9U5aQQRcxJQq2bEF/v6nA2Q3L62azaU6WTcB8xiG+Nzc3dXNzUwcHB/Xu3bv66aef6vPnz3V1dVUnJydtPBhnVwnf3Nw0h4ax5+3oq9Xqq8gaeXC07sKwdJJ2NhjjjHAc1TJ36GWZoG0DB6/Z2V5hzA2ws8KbvgxksEfp2G2A4R3y7+Ua2w1HZnnwdBYF0ddyuezIjiMcO2Cvz/aN1TbQkRJOERkiOwDt+myw9Zz++44Zg8dZhY7N5zl0Er2xc+fZzPqY9/RLINF3fdPhMRGfrkCHRrl0bAVg0AiC874YAAjsc+YQCiZiQwLz/PoVK46dihf1+W0i2QB7/DDHz9kBG9EibH7OaI9xmkkwNxnmqCJTo1ZyPmOM+T48+nZxgZ2o0x5WVITYUQ/tgfrgv1FhRiJO+WEAc52l6usTIrIt6O2iklz34j4bAJ7nMvhBjlerVZsTr1fipJH7+/sW1RjUOfJmbs5EuGjEY3n16lXbvoEM2+jRlvmD7AIy2d/GiSpNeRVxOVIZDB7faE57bJWYTCZ1eXnZ1vLG4/FX5yVar7xmZ1tgeeZe660vG2UDLTsBLyPwv9fdMutgWlk/MvVpAGmd9lyQJTsFF6rZodOHddwOyHJpWfa4nH3xtVqt2nKCeWq+GHTZ9nmvs+1s6pNtCAAFAEBfjtZoExl2YRPjSJviuVv/DGANsB0QMa7pdNo5BtFzMZD1M142sP7n9ezRYl53yMtRGkJkr25k7EgCJqTwW6G4vAhuJOGQm7a8rtOnGBg+M8kGhn4soGmUEXgI7lQJAgIawkDlfX5FjQU5hcEGNVMnKKABCAx3Gbl5ZCdKv0bFg8GgwzMrNTzEENCehdvpCTsMR5bejsHf0MZ8gxfQ03Sy0qUR9V47I3BXodEXx265QhCE7fSw9cHVlzZK/I9zenh46GzEhj52ygZfyQ/knfH7jePwwsaEaMDpINPk4eGhZrNZM/Lz+bwmk0mneAv9sO7R7na7O0GFFBcRjWnoFCD0tVw7crajt3HjM2QAntthIE98B79p068sw7DbIbkd65+BsuULmtuWQGN0Otf1bNcYl8duMOXInTkhZ/7etsrGPXXQQMEAmHYTTEIz66v5RdofPiObtgEGvqmjjnDRG+wB9KQgjXl7HB4LwRI6QFRKe/+1w8NzpnBCuDRCqdweqNdbzHAuCLBerzuL9RY6O890IllAAFFMAKczMDKZbkrDk2thTq2Z0QiD0yIYaysKfTxl4Pk81yOgvR0XbUEj5mgn5X4Ym4UfB2djbyPLmBP4uJoQWYGv8Bpn5teZGHEb4TvKNBDBgDI3yxj9MMbhcNipOkMmXMWIUyJtA3+M0DHY3raQcuhiD8+D+3AGTpdRrIOjcbvIoTML/o45snnc0ZUr6+jLa57wBiB2c3NTnz59am05GwBd0yHwP+1hkIgo4a+P8bJDpg1HbZkRsYxnpJIRmCMU2wWvDfEdY0q7A98MOqAzYzGgA0TybAJoO26DoDTqliUHDOhROj74wfe05fsp/MslirSTtk9kOFxslSlP5I//zY9ccuDqCwRShywL0Iq5eJ2e/r3lwwCYdgFkplXf9WyE5/DeRhvhy1Dbyg+znTLhPiNJCJhOk75saDCE/jydoVEOl4XXgm9Hzk+mVNOJGUFxpSB7TSnnAqNcVuv1CEcbKfB24P7tdkFJTmd6bFVfK5aVz4cR21AidF5vcpphs9l0iid8ZqPp6iimavfSUxt7wIppzv3cYznhb5zKaDTq9N8XIXsPD3T1qfVeV3K07fUhAw0r/mbzeESSU5mMK5WdOVqmDeq8pOC0PnLDODEc5idjYQwAgY8fP7ZChLOzs0YDKkRtzG9vb2symbQzDOnbBqfPyHgbiOeYaTPLO/chH5Yb5JnnHS2RAjOYNLh2Ch95sEE2wHTk7vkZsFlfPDYbcEfY3E/bBgfYCANKxnN3d1fT6bRTL2Cb560h1geAliN0R3uDweNRZi7eYsxOD0K3m5ubju6ahgYOzkA4s+Io3Fmr5Ef6mLRh/G29QcZd6f/U9U2H5/UhfmPkYIgNXkZ8PNPn8T1gGG4nYoFnAo5suIcfGG8H7b5YlDeaStRjJGoBZ/wOw/1MIhYjUDPU9zstYAfMHIyUHQ3YSSEw/sxl6QkC/P4oDGXOGWVlHjYWVV9Xqdqp0y6RraMlG3M7eBvDvPoMOrSlgo35OaK/v7/vpNroByQMneyYMeBWTBsp08dGASPhtSxHudaTTEGatgYtBnbQjNNrnFL3fq7UJ8+baJS9eaPRqB375bVaR0W5psNSw2w2q4eHh1oulx2dIZI3iFutVl8ZQ4PTtBl2HpYtO8eMDvnb+mmdRD647Aj9mWXbdMhIwuuvzMlpbuTdb+GwPGVfyKijbNMnZdKRWK4F2/553nxumQbc5biYv52geeFI1mAdvvOdgwfad8bQ9izT+NDBNIA+FLkA7NFdjmb8/0ppbre7jcWuqEsBNFKFMI6MbCSMfCw0Frx0DimsTkM4EvJzKIZTKX1G1g4n1wbcryv/nCby/zyHoXJaw2jRaYcEBv7caRwbDIy797PZqZDewEgmEmeujlydNjMQyE3odnyMEZp7bq5u43lQOHPOVDL/O93J3DxG0kocfs0mVniRkav5lgg2Uabng3OEjo6+kQlSlY56zSu/mwwaefGeOfA388wIzaAI3WIOr169agc7I2/7+/stUkce9/b26vDwsG0VuLu7a29EIDXpiIoxAvAyzW+dgQZEDpvNrqz+9va2c9KRDyjAViCPdmJOddtQMy6nPQ18ac+2hXFiIDOqsW45CsGhZNSJnDoid/SB3lxfX7d5YkdtP+nDwAH6DofDzp5dnEMCddP14eGhc1iA78VJcbAAssr8adtyD0BCP2wfMyhJgOiolOf5nUEL7ZjvyIILmAwQHFEb6PzXDs+L9jBkPB63tRHSH32vjzABbSScZnyqGgoG2XHRpnPoPGcjnRfCZidrJEFqy7v+nQqwQPC3n3dIbceeSMcGy8bd62lmlFEp0ZLpxFaBweBx/QRU6RSGDSuCU1VfradhuF2JiOBZwcwbxpj5dDs5/kYRmSdjMv+s8HYYBjn06TGSagV0OGMAf/b29jqv0Knqrm16rWIwGPQ6T4OL0WjU3qWHUbBTov2q+uq1P+4HJO31Qnjr4hqXp6fjc/Wq9XU8Hrc9jNbNyWRSx8fH9fDwUBcXF52XlLoNo3icMX3ZmYzH40YD7suIwxGkIwZHts42MFY7JcsJMmzwkhGBAQ39cZ/1zNkbf2YdTFBko5o1AYAvjDLzxXEMh8POM956YqcE37B30MjgMP8H0Dm7YtpBL/QBx2YQgszu7e21PYS2JwkObUdt3x30GHjwmYG9wbj11v0wxvF4XNfX1x058j3pY/J6dg3PBqqqOgJDBSIThCggHJ7rcwB9Xt7I6ikCOBJyas8OKB2gIyYbVBybw3QLL8ptw5soIlNuzIFxuj/G6vmY4XzvyDPTE46Y/E4oLqeyGIfbdUTq+fWliTK1Sd+mK3PnHhaOjYTTyVl5MYhev8BgYejNAzso1iloz/RxJGlDRztPvXEheeboPbMDBkPOaIzH4zo8PGxFHi4GsTIC8OgTMOnIhbmRMvKCvmXb69oYOyIeR1cUqtzf39fV1VUtFou6urqq0WhUp6enHdmGR6vVqrOOZv2hX0ey8MLIO6NSAITHmjrP3GxD+LFcu3LQ37mwiLFA/wSappH7Ykx2MMwDXUP/vAdus+nuK4YOAGwXiEET2zhSogaD0NRjMFhB9vvWI6En46MfAKnpbvmGNrZf1ms/Zwdnm5ljYryupHV/1mcCKiqeHXjYZmUg8dT1TYfnlBrMdacWCAwH6AQhtUGxE3gqNPaEUDLQnFOnEJhxplNxuo3LUY8VBCFKB2uh70OCRpV23jbofGahdWRrupl2BgRZ0GHFsHBwD4LEq2UsDCiTi1ZcAZVRFf1hECaTyVfOO9NPWXHoRXufpUru3fKE46NvGxYU3eiTOdnQW3b8mRGlo1j4uF6va7lcduTSfHF0yfoZbRq1s35lp2X5pC8bV+bs6H00GnVO2wBgpkNHP6uqptNpi1BJ3xnIETG8efOmtttt/fjjjzWfz+vVq1d1fHz8FQ8NEvo2/BvAofPIgm2E36Li6HE0Gn21lpQyax2C/paTqm6WwkVWWRjCeNyeHauBl/U4C3A8fwNJIjvo1GfXbHec2YHXfbqewYB1A/q7oIR+fB4l486lG37nWqRl15k48xV+OwgxGDSYSZri+Lk8Z3hPe7n8Yv1Frvjsv47wSN14sdGpCQsKaCrXrBiEDT6oEwaY6RZqQu50JlZejENGdgiIUTHEBomZ2WaoFRolNtJ0JOA8tQUiGeD2QPGZhzZqxcBAr6rdPhmU1egOGntzMs6E9ZVEuhhVypOrqnMUkh1rAhbmOJ/PW+rGysf3jp6gl2lPCs2IF1lwqpAF6SxCSWRoJ2PEbxrBA+bDT1baEolY/hOtmr8Yxru7u7ZeSdqTy2O3TmSlqlP31hH6rupuPKdfv6KHdT2noqDPdDqtH374oS4vL+uf//xnvX79ukUMHo9BLGOwDBoApxNAntA58xnwiXOybBpset0wszxeQnCExhiyStfAyY4hgYjBssfIdwYF2A7mBCC0o7VcWr8tC7RnAOQ9q05pc9nW2n7AZ5yvi+w2m915qI5orWez2awDBG1bXMuAzDMmF9HwDJG8I0v+7lsKgI4+v9e8skNjLqavl5v6roEJ+HK9XC/Xy/VyvVz/V6+nd+i9XC/Xy/VyvVwv1/+h68XhvVwv18v1cr1c/xPXi8N7uV6ul+vlern+J64Xh/dyvVwv18v1cv1PXC8O7+V6uV6ul+vl+p+4Xhzey/VyvVwv18v1P3H9P/Sz2ngdARXZAAAAAElFTkSuQmCC;" vertex="1" parent="1">
          <mxGeometry x="497.75" y="3193.81" width="174.49" height="118.69" as="geometry" />
        </mxCell>
        <mxCell id="0gYCooGfTWZDS5KERVEs-158" value="" style="shape=image;verticalLabelPosition=bottom;labelBackgroundColor=#ffffff;verticalAlign=top;aspect=fixed;imageAspect=0;image=data:image/png,iVBORw0KGgoAAAANSUhEUgAAAOcAAADnCAYAAADl9EEgAAAABHNCSVQICAgIfAhkiAAAAAlwSFlzAAALEgAACxIB0t1+/AAAADh0RVh0U29mdHdhcmUAbWF0cGxvdGxpYiB2ZXJzaW9uMy4yLjIsIGh0dHA6Ly9tYXRwbG90bGliLm9yZy+WH4yJAAALbElEQVR4nO3d224USxKF4QQ20D4IfMPz8iS8HBJnSwbbmDPMCzj+nl6727PE/N+lU9lVXV3hkiIqM+79+fNnSepz/399ApJuZ3BKpQxOqZTBKZUyOKVS/9DgixcvxlQuZXm/fft2+8H+mQ/3+PHjcez379/jGJ3HNEZzfvz4ER3r6Ogomvfz589xbELX48GDB+PY/fu7/y++d+/eOPb169dxjL7z9+/fx7HpHE9PT8c56f1B157GpnuV7u9Xr16NY8+fP7/1IvvklEoZnFIpg1MqZXBKpQxOqZTBKZXCUgqlhil9Pfn169c4dnNzM45RCYBKBxMqD9A5JuWjbfOm49E50vVIFzJMvyedR+r4+Hgcm77bZrMZ59BvRiURur/pGl9dXd36d7oHrq+vx7HxHHaeIelOGJxSKYNTKmVwSqUMTqmUwSmVwlJKukJjSkOn5QEa23eqn1aXELpWyfdOV3Xc5aqUZEXNWms9evRo5+OlK0/o/NN55+fnt/6dfpePHz+OYxOfnFIpg1MqZXBKpQxOqZTBKZU6SLZ2mkcvGj98+JBOZZRm4ybpC+yUTaRznDKXdCy6jvvOXtPnJYsf1uIs73Q8uj8o+3t2djaOvX37dhybXm5fa63Pnz/f+ne6dyiTO/HJKZUyOKVSBqdUyuCUShmcUimDUyqFpZQk/bvWnGJPU+90HklantAcGkv2Mlpr3v+GXlKnskK6uGC6jlTSoRYahEoO03Wk65suEqCX0T98+DCOTWUWOlZS1vPJKZUyOKVSBqdUyuCUShmcUimDUyqFpZR0P50pbZyumDg5ORnHaEXC1HmZ0trTioNt89LvlnTfppIUlTfS8syEOlunputIna0vLy/HsZcvX45jb968GceolDKVguh3cVWK9BcxOKVSBqdUyuCUShmcUimDUyoVb/BFkrICdSem8/jy5cs4Nm2Ete9O2Wtx6SMti0zSztzJihWaQxuN0XemLtXTPFpBQmOvX78ex+i+otJN0oYi+Z19ckqlDE6plMEplTI4pVIGp1TK4JRKYSll3yidnGz6tFa26da++4mstdaTJ0/GsWQ1C6Xr09UgdP2jVH/YjZxWzkzljYuLi3EOXY+04zid4/R70m+WlOh8ckqlDE6plMEplTI4pVIGp1QKs7W0r0y6BX5yLJJ0lD5EtjZtC0EvgU8o80fXg16Kn+alHbYJncd077x7926cQ9naT58+jWOUyaXfc1psQdfebK30FzE4pVIGp1TK4JRKGZxSKYNTKoW5cHrZmNBLz/uWpK8prZ12jabyQNL+gb4XlQ6oPUW6gGCSXiva82cqpdC9SCWRm5ubcYyuB5WJpjYl9Dsn+w755JRKGZxSKYNTKmVwSqUMTqmUwSmVwlIK7etDqXJK50/S8gvNm9LXVPYgaSmFUPp9QvvbUAmAxqaSDn2vtAv4+/fvx7GphETHIlTuoXtn3yuXLKVIfxGDUyplcEqlDE6plMEplTI4pVJYSknLG9PKgnRVBKXDaWw6D1rxQasYSNrleRqja5W0M9g2NqX66dxpdQnNoxUm++6Knmwmtla2UVrSdoP45JRKGZxSKYNTKmVwSqUMTqmUwSmVwlJKsmJirTktn3ZrTlcPHB8f7/x505xtx6LvRtdxWvlDqfykF802U5mFvvPUM2St/XfRTvq8bBtLN/hKSnRJXxmfnFIpg1MqZXBKpQxOqZTBKZUyOKVSmN9NNupaa05RU0mBVkzQeSQbWlEpJS1TpCt4ptJNuiqFSg5UFjk/P7/171Qiomu1774hdH/QtafrmK5mmY5H50G/2XicnWdIuhMGp1TK4JRKGZxSKYNTKrX727j/hSkzRRk82guIJBlgmrPZbMYxynaenZ2NY/RC9PTiO2WoT09PxzFqW0BZ0uvr61v/Ti05aLECXeMkE0q/S7JH078x/TZ7b1Gy8wxJd8LglEoZnFIpg1MqZXBKpQxOqRSWUqi8QWnj6CXfoEP1trHp/Ped8t6Gjje9nE/lBmqDMJVE1uIX1a+urnaek5ZSqLSUtKege4BemE/bfCStFY6Ojnae45NTKmVwSqUMTqmUwSmVMjilUganVOog7RimskjavZok55juZUTSedM1oc+jlSJU+qDyzFQWScslNJaU2qiUkpZt0jYf02cm3bCJT06plMEplTI4pVIGp1TK4JRKGZxSKSylUDqfUs3TJlNpKYXmpW0QJmlJhM4jKd1QSYRWntD5U6p/6lJNZRsqb5Ck5QWtPKFrT+060pYR0wqTtGP6xCenVMrglEoZnFIpg1MqZXBKpQxOqRSWUigNTabSR7oKIOlenUo7W1PJgUoYFxcXt/49WUGy7TySMgv9LslGV2vxd5vKG1TaoE3ZqNxD5Tu6V09OTsaxybNnz3ae45NTKmVwSqUMTqmUwSmVMjilUpjqTPZ6WWvOeFLWkjKQlFWjzN+UTUyzjISyvMleO/vuDL0WZ7aTl9jTTHmyHxBloSlbS/cwzUsqBPSb2dla+osYnFIpg1MqZXBKpQxOqZTBKZXCXDilf5NUP6X5DzE2veidlilIunfPVEKi0gx1tiZJR2m6VmlJil5in6QvsNPePfSZyYvv+14k4JNTKmVwSqUMTqmUwSmVMjilUganVApLKVNbhW2StDGltdN2DMmqiaurq3GMygo0j0oYl5eXt/6dSinTnG3oPJLO4mnpIBmjst5msxnHqJSSrliZxuhepFU1E5+cUimDUyplcEqlDE6plMEplTI4pVJYa0hbEyQljLQDcdJhO2mPsG0ebVCWdJSmOWlHaUr1T6WUQ5RL6LeeznHqJr0Wl1JoXvqZSfdz+j0nPjmlUganVMrglEoZnFIpg1MqZXBKpbDmkabKp9IHbZ5FZRvaEIrKLNNGWJQKv7m5iY5FpRSaN50LXd+0hw195pTqp3NPygNrcWfoqUz09OnTneesxattkuuxVtYLiMpY45ydZ0i6EwanVMrglEoZnFIpg1MqhdnapAMxjdEcysjSXkbTi+NrrXV9fb3zsZKXmtfibG2CMon0uyQtF9aavzd9Hr04TudPL5VP8+g7p/tP0Xeje2Qao2qEna2lv4jBKZUyOKVSBqdUyuCUShmcUikspaRdnqd5aUdpaj9AbRCm8gYdKy2lJN2aU/QSdVLiWmsuOVApgsoD+56X7Du07TzS+3E6FzrHpNTmk1MqZXBKpQxOqZTBKZUyOKVSBqdUKi6lUBp62mMlTV1TeYNKGNNn0rHSfXFoXx/6zKnjcXJ918pLDtP50xzaC4hKGNRteppH15eORXsI0XWke266JmmJazzOzjMk3QmDUyplcEqlDE6plMEplTI4pVIHKaVMm27R51EbBHqjn+ZRin2SbMS0Fqfs6XtPm5ClG1qlm11N35vKA0lJZK2snUS62VxaNks+0w2+pP8TBqdUyuCUShmcUimDUyplcEqlsJRCZQpKQ08bctEKEjoWpajpM6cyQNqHhFDPFjKtIqESBo1RSSdZlULXI93gK9l0Ky170Dwao3OcVqzQedDvMvHJKZUyOKVSBqdUyuCUShmcUimDUyqFpRTqUUJp46lN/CFWD5AkLZ+u6iA07/T0dOc5VBKh8gZt/jW1kKdjpdcq2ewqvT9oLO2xMn3vtE/NxCenVMrglEoZnFIpg1MqZXBKpTBbSy9zU/Zpehn9EC8oUxaPsnHJsQ7R5Xl6IZoyobQHz5R13TZvOt4hFgkkWc2kPcK/GUu/2z755JRKGZxSKYNTKmVwSqUMTqmUwSmVikspZOrWnEpfKE72EDrEy+3JS+CUyqdyCY1tNptxbDrHfb/Avm3eNJYeKy2JJIst6ByT+8onp1TK4JRKGZxSKYNTKmVwSqUMTqnUvTRFLemwfHJKpQxOqZTBKZUyOKVSBqdUyuCUSv0H0uuIFoTzcLQAAAAASUVORK5CYII=;" vertex="1" parent="1">
          <mxGeometry x="180" y="3035.5" width="120" height="120" as="geometry" />
        </mxCell>
        <mxCell id="0gYCooGfTWZDS5KERVEs-159" value="Input&amp;nbsp;&lt;br&gt;&lt;br&gt;900x600" style="rounded=1;whiteSpace=wrap;html=1;arcSize=24;shadow=0;comic=0;labelBackgroundColor=none;fontFamily=Verdana;fontSize=12;fontColor=#000000;align=center;fillColor=#DEDEDE;" vertex="1" parent="1">
          <mxGeometry x="660" y="2642.5" width="170" height="80" as="geometry" />
        </mxCell>
        <mxCell id="0gYCooGfTWZDS5KERVEs-160" value="" style="endArrow=none;dashed=1;html=1;dashPattern=1 3;strokeWidth=2;entryX=0.5;entryY=1;entryDx=0;entryDy=0;exitX=0.5;exitY=0;exitDx=0;exitDy=0;" edge="1" parent="1" source="0gYCooGfTWZDS5KERVEs-143" target="0gYCooGfTWZDS5KERVEs-159">
          <mxGeometry width="50" height="50" relative="1" as="geometry">
            <mxPoint x="773.3299999999999" y="746.5799999999999" as="sourcePoint" />
            <mxPoint x="495" y="584.5" as="targetPoint" />
            <Array as="points">
              <mxPoint x="585" y="2752.5" />
              <mxPoint x="745" y="2752.5" />
            </Array>
          </mxGeometry>
        </mxCell>
        <mxCell id="0gYCooGfTWZDS5KERVEs-161" value="&lt;span style=&quot;font-family: &amp;#34;verdana&amp;#34; ; font-size: 18px&quot;&gt;&lt;font color=&quot;#0000ff&quot;&gt;Architecture&lt;/font&gt;&lt;/span&gt;" style="text;html=1;strokeColor=none;align=center;verticalAlign=middle;whiteSpace=wrap;rounded=0;" vertex="1" parent="1">
          <mxGeometry x="390" y="2632.5" width="330" height="20" as="geometry" />
        </mxCell>
        <mxCell id="0gYCooGfTWZDS5KERVEs-162" value="Lesion / No Lesion" style="rounded=1;whiteSpace=wrap;html=1;arcSize=24;shadow=0;comic=0;labelBackgroundColor=none;fontFamily=Verdana;fontSize=12;fontColor=#000000;align=center;fillColor=#DEDEDE;" vertex="1" parent="1">
          <mxGeometry x="775" y="2982.5" width="140" height="45" as="geometry" />
        </mxCell>
        <mxCell id="0gYCooGfTWZDS5KERVEs-163" value="" style="endArrow=none;dashed=1;html=1;dashPattern=1 3;strokeWidth=2;entryX=0.5;entryY=1;entryDx=0;entryDy=0;exitX=0.5;exitY=0;exitDx=0;exitDy=0;" edge="1" parent="1" source="0gYCooGfTWZDS5KERVEs-162" target="0gYCooGfTWZDS5KERVEs-144">
          <mxGeometry width="50" height="50" relative="1" as="geometry">
            <mxPoint x="773.3299999999999" y="729.5799999999999" as="sourcePoint" />
            <mxPoint x="589.9999999999998" y="699.5" as="targetPoint" />
            <Array as="points">
              <mxPoint x="845" y="2962.5" />
            </Array>
          </mxGeometry>
        </mxCell>
        <mxCell id="0gYCooGfTWZDS5KERVEs-164" value="" style="swimlane;startSize=0;fillColor=#FFFFC0;gradientColor=none;dashed=1;strokeColor=#0000FF;" vertex="1" parent="1">
          <mxGeometry x="480" y="2622.5" width="490" height="420" as="geometry" />
        </mxCell>
        <mxCell id="0gYCooGfTWZDS5KERVEs-98" value="&lt;span style=&quot;font-family: &amp;#34;verdana&amp;#34; ; font-size: 18px&quot;&gt;CAD Automatic Identification&lt;/span&gt;" style="text;html=1;align=center;verticalAlign=middle;whiteSpace=wrap;rounded=1;fillColor=#DEDEDE;strokeColor=#000000;" vertex="1" parent="1">
          <mxGeometry x="120" y="2625" width="290" height="35" as="geometry" />
        </mxCell>
        <mxCell id="0gYCooGfTWZDS5KERVEs-165" value="" style="group" vertex="1" connectable="0" parent="1">
          <mxGeometry x="80" y="1950" width="960" height="350" as="geometry" />
        </mxCell>
        <mxCell id="0gYCooGfTWZDS5KERVEs-139" value="" style="rounded=1;whiteSpace=wrap;html=1;fontSize=20;strokeColor=#000000;fillColor=#FFFFFF;gradientColor=none;align=center;arcSize=5;" vertex="1" parent="0gYCooGfTWZDS5KERVEs-165">
          <mxGeometry width="960" height="350" as="geometry" />
        </mxCell>
        <mxCell id="0gYCooGfTWZDS5KERVEs-34" value="&lt;font style=&quot;font-size: 18px&quot;&gt;Angiography&lt;/font&gt;" style="rounded=1;whiteSpace=wrap;html=1;arcSize=24;fillColor=#ffffc0;strokeColor=#ff0000;shadow=0;comic=0;labelBackgroundColor=none;fontFamily=Verdana;fontSize=12;fontColor=#000000;align=center;" vertex="1" parent="0gYCooGfTWZDS5KERVEs-165">
          <mxGeometry x="20" y="80" width="170" height="80" as="geometry" />
        </mxCell>
        <mxCell id="0gYCooGfTWZDS5KERVEs-66" value="&lt;font style=&quot;font-size: 18px&quot;&gt;Frame &lt;br&gt;selection&lt;/font&gt;" style="rounded=1;whiteSpace=wrap;html=1;arcSize=24;fillColor=#ffffc0;strokeColor=#ff0000;shadow=0;comic=0;labelBackgroundColor=none;fontFamily=Verdana;fontSize=12;fontColor=#000000;align=center;" vertex="1" parent="0gYCooGfTWZDS5KERVEs-165">
          <mxGeometry x="270" y="80" width="170" height="80" as="geometry" />
        </mxCell>
        <mxCell id="0gYCooGfTWZDS5KERVEs-67" value="" style="edgeStyle=orthogonalEdgeStyle;rounded=0;orthogonalLoop=1;jettySize=auto;html=1;" edge="1" parent="0gYCooGfTWZDS5KERVEs-165" source="0gYCooGfTWZDS5KERVEs-34" target="0gYCooGfTWZDS5KERVEs-66">
          <mxGeometry relative="1" as="geometry" />
        </mxCell>
        <mxCell id="0gYCooGfTWZDS5KERVEs-68" value="&lt;span style=&quot;font-size: 18px&quot;&gt;Segment &lt;br&gt;selection&lt;/span&gt;" style="rounded=1;whiteSpace=wrap;html=1;arcSize=24;fillColor=#ffffc0;strokeColor=#ff0000;shadow=0;comic=0;labelBackgroundColor=none;fontFamily=Verdana;fontSize=12;fontColor=#000000;align=center;" vertex="1" parent="0gYCooGfTWZDS5KERVEs-165">
          <mxGeometry x="520" y="80" width="170" height="80" as="geometry" />
        </mxCell>
        <mxCell id="0gYCooGfTWZDS5KERVEs-69" value="" style="edgeStyle=orthogonalEdgeStyle;rounded=0;orthogonalLoop=1;jettySize=auto;html=1;" edge="1" parent="0gYCooGfTWZDS5KERVEs-165" source="0gYCooGfTWZDS5KERVEs-66" target="0gYCooGfTWZDS5KERVEs-68">
          <mxGeometry relative="1" as="geometry" />
        </mxCell>
        <mxCell id="0gYCooGfTWZDS5KERVEs-70" value="&lt;span style=&quot;font-size: 18px&quot;&gt;QCA&lt;br&gt;&lt;/span&gt;" style="rounded=1;whiteSpace=wrap;html=1;arcSize=24;fillColor=#ffffc0;strokeColor=#ff0000;shadow=0;comic=0;labelBackgroundColor=none;fontFamily=Verdana;fontSize=12;fontColor=#000000;align=center;" vertex="1" parent="0gYCooGfTWZDS5KERVEs-165">
          <mxGeometry x="770" y="80" width="170" height="80" as="geometry" />
        </mxCell>
        <mxCell id="0gYCooGfTWZDS5KERVEs-71" value="" style="edgeStyle=orthogonalEdgeStyle;rounded=0;orthogonalLoop=1;jettySize=auto;html=1;" edge="1" parent="0gYCooGfTWZDS5KERVEs-165" source="0gYCooGfTWZDS5KERVEs-68" target="0gYCooGfTWZDS5KERVEs-70">
          <mxGeometry relative="1" as="geometry" />
        </mxCell>
        <mxCell id="0gYCooGfTWZDS5KERVEs-72" value="&lt;span style=&quot;font-size: 18px&quot;&gt;CAD Automatic Identification&lt;/span&gt;" style="rounded=1;whiteSpace=wrap;html=1;arcSize=24;fillColor=#ffffc0;shadow=0;comic=0;labelBackgroundColor=none;fontFamily=Verdana;fontSize=12;fontColor=#000000;align=center;strokeColor=#3333FF;" vertex="1" parent="0gYCooGfTWZDS5KERVEs-165">
          <mxGeometry x="270" y="240" width="170" height="80" as="geometry" />
        </mxCell>
        <mxCell id="0gYCooGfTWZDS5KERVEs-74" value="" style="endArrow=none;dashed=1;html=1;dashPattern=1 3;strokeWidth=2;entryX=0.5;entryY=1;entryDx=0;entryDy=0;exitX=0;exitY=0.5;exitDx=0;exitDy=0;" edge="1" parent="0gYCooGfTWZDS5KERVEs-165" source="0gYCooGfTWZDS5KERVEs-72" target="0gYCooGfTWZDS5KERVEs-34">
          <mxGeometry width="50" height="50" relative="1" as="geometry">
            <mxPoint x="40" y="380" as="sourcePoint" />
            <mxPoint x="90" y="330" as="targetPoint" />
            <Array as="points">
              <mxPoint x="105" y="280" />
            </Array>
          </mxGeometry>
        </mxCell>
        <mxCell id="0gYCooGfTWZDS5KERVEs-75" value="&lt;span style=&quot;font-size: 18px&quot;&gt;Anatomical quantification&lt;/span&gt;" style="rounded=1;whiteSpace=wrap;html=1;arcSize=24;fillColor=#ffffc0;strokeColor=#ff0000;shadow=0;comic=0;labelBackgroundColor=none;fontFamily=Verdana;fontSize=12;fontColor=#000000;align=center;" vertex="1" parent="0gYCooGfTWZDS5KERVEs-165">
          <mxGeometry x="770" y="240" width="170" height="80" as="geometry" />
        </mxCell>
        <mxCell id="0gYCooGfTWZDS5KERVEs-76" value="" style="edgeStyle=orthogonalEdgeStyle;rounded=0;orthogonalLoop=1;jettySize=auto;html=1;" edge="1" parent="0gYCooGfTWZDS5KERVEs-165" source="0gYCooGfTWZDS5KERVEs-70" target="0gYCooGfTWZDS5KERVEs-75">
          <mxGeometry relative="1" as="geometry" />
        </mxCell>
        <mxCell id="0gYCooGfTWZDS5KERVEs-77" value="" style="endArrow=none;dashed=1;html=1;dashPattern=1 3;strokeWidth=2;entryX=1;entryY=0.5;entryDx=0;entryDy=0;exitX=0;exitY=0.5;exitDx=0;exitDy=0;" edge="1" parent="0gYCooGfTWZDS5KERVEs-165" source="0gYCooGfTWZDS5KERVEs-75" target="0gYCooGfTWZDS5KERVEs-72">
          <mxGeometry width="50" height="50" relative="1" as="geometry">
            <mxPoint x="279.9999999999998" y="290" as="sourcePoint" />
            <mxPoint x="115.00000000000023" y="170" as="targetPoint" />
            <Array as="points" />
          </mxGeometry>
        </mxCell>
        <mxCell id="0gYCooGfTWZDS5KERVEs-78" value="Manual" style="text;strokeColor=none;fillColor=none;align=left;verticalAlign=top;spacingLeft=4;spacingRight=4;overflow=hidden;rotatable=0;points=[[0,0.5],[1,0.5]];portConstraint=eastwest;" vertex="1" parent="0gYCooGfTWZDS5KERVEs-165">
          <mxGeometry x="390" y="80" width="60" height="26" as="geometry" />
        </mxCell>
        <mxCell id="0gYCooGfTWZDS5KERVEs-79" value="Manual" style="text;strokeColor=none;fillColor=none;align=left;verticalAlign=top;spacingLeft=4;spacingRight=4;overflow=hidden;rotatable=0;points=[[0,0.5],[1,0.5]];portConstraint=eastwest;" vertex="1" parent="0gYCooGfTWZDS5KERVEs-165">
          <mxGeometry x="640" y="80" width="60" height="26" as="geometry" />
        </mxCell>
        <mxCell id="0gYCooGfTWZDS5KERVEs-137" value="Proposed protocol" style="text;align=center;verticalAlign=top;spacingLeft=4;spacingRight=4;overflow=hidden;rotatable=0;points=[[0,0.5],[1,0.5]];portConstraint=eastwest;fontSize=20;strokeColor=#000000;rounded=1;fillColor=#DEDEDE;" vertex="1" parent="0gYCooGfTWZDS5KERVEs-165">
          <mxGeometry x="20" y="20" width="180" height="40" as="geometry" />
        </mxCell>
        <mxCell id="0gYCooGfTWZDS5KERVEs-166" value="" style="group" vertex="1" connectable="0" parent="1">
          <mxGeometry x="80" y="1100" width="960" height="350" as="geometry" />
        </mxCell>
        <mxCell id="0gYCooGfTWZDS5KERVEs-138" value="" style="rounded=1;whiteSpace=wrap;html=1;fontSize=20;strokeColor=#000000;fillColor=#FFFFFF;gradientColor=none;align=center;arcSize=5;" vertex="1" parent="0gYCooGfTWZDS5KERVEs-166">
          <mxGeometry width="960" height="350" as="geometry" />
        </mxCell>
        <mxCell id="0gYCooGfTWZDS5KERVEs-118" value="&lt;font style=&quot;font-size: 18px&quot;&gt;Angiography&lt;/font&gt;" style="rounded=1;whiteSpace=wrap;html=1;arcSize=24;fillColor=#ffffc0;strokeColor=#ff0000;shadow=0;comic=0;labelBackgroundColor=none;fontFamily=Verdana;fontSize=12;fontColor=#000000;align=center;" vertex="1" parent="0gYCooGfTWZDS5KERVEs-166">
          <mxGeometry x="20" y="80" width="170" height="80" as="geometry" />
        </mxCell>
        <mxCell id="0gYCooGfTWZDS5KERVEs-120" value="&lt;font style=&quot;font-size: 18px&quot;&gt;Frame &lt;br&gt;selection&lt;/font&gt;" style="rounded=1;whiteSpace=wrap;html=1;arcSize=24;fillColor=#ffffc0;strokeColor=#ff0000;shadow=0;comic=0;labelBackgroundColor=none;fontFamily=Verdana;fontSize=12;fontColor=#000000;align=center;" vertex="1" parent="0gYCooGfTWZDS5KERVEs-166">
          <mxGeometry x="270" y="80" width="170" height="80" as="geometry" />
        </mxCell>
        <mxCell id="0gYCooGfTWZDS5KERVEs-117" value="" style="edgeStyle=orthogonalEdgeStyle;rounded=0;orthogonalLoop=1;jettySize=auto;html=1;" edge="1" parent="0gYCooGfTWZDS5KERVEs-166" source="0gYCooGfTWZDS5KERVEs-118" target="0gYCooGfTWZDS5KERVEs-120">
          <mxGeometry relative="1" as="geometry" />
        </mxCell>
        <mxCell id="0gYCooGfTWZDS5KERVEs-122" value="&lt;span style=&quot;font-size: 18px&quot;&gt;Segment &lt;br&gt;selection&lt;/span&gt;" style="rounded=1;whiteSpace=wrap;html=1;arcSize=24;fillColor=#ffffc0;strokeColor=#ff0000;shadow=0;comic=0;labelBackgroundColor=none;fontFamily=Verdana;fontSize=12;fontColor=#000000;align=center;" vertex="1" parent="0gYCooGfTWZDS5KERVEs-166">
          <mxGeometry x="520" y="80" width="170" height="80" as="geometry" />
        </mxCell>
        <mxCell id="0gYCooGfTWZDS5KERVEs-119" value="" style="edgeStyle=orthogonalEdgeStyle;rounded=0;orthogonalLoop=1;jettySize=auto;html=1;" edge="1" parent="0gYCooGfTWZDS5KERVEs-166" source="0gYCooGfTWZDS5KERVEs-120" target="0gYCooGfTWZDS5KERVEs-122">
          <mxGeometry relative="1" as="geometry" />
        </mxCell>
        <mxCell id="0gYCooGfTWZDS5KERVEs-124" value="&lt;span style=&quot;font-size: 18px&quot;&gt;QCA&lt;br&gt;&lt;/span&gt;" style="rounded=1;whiteSpace=wrap;html=1;arcSize=24;fillColor=#ffffc0;strokeColor=#ff0000;shadow=0;comic=0;labelBackgroundColor=none;fontFamily=Verdana;fontSize=12;fontColor=#000000;align=center;" vertex="1" parent="0gYCooGfTWZDS5KERVEs-166">
          <mxGeometry x="770" y="80" width="170" height="80" as="geometry" />
        </mxCell>
        <mxCell id="0gYCooGfTWZDS5KERVEs-121" value="" style="edgeStyle=orthogonalEdgeStyle;rounded=0;orthogonalLoop=1;jettySize=auto;html=1;" edge="1" parent="0gYCooGfTWZDS5KERVEs-166" source="0gYCooGfTWZDS5KERVEs-122" target="0gYCooGfTWZDS5KERVEs-124">
          <mxGeometry relative="1" as="geometry" />
        </mxCell>
        <mxCell id="0gYCooGfTWZDS5KERVEs-127" value="&lt;span style=&quot;font-size: 18px&quot;&gt;Anatomical quantification&lt;/span&gt;" style="rounded=1;whiteSpace=wrap;html=1;arcSize=24;fillColor=#ffffc0;strokeColor=#ff0000;shadow=0;comic=0;labelBackgroundColor=none;fontFamily=Verdana;fontSize=12;fontColor=#000000;align=center;" vertex="1" parent="0gYCooGfTWZDS5KERVEs-166">
          <mxGeometry x="770" y="240" width="170" height="80" as="geometry" />
        </mxCell>
        <mxCell id="0gYCooGfTWZDS5KERVEs-123" value="" style="edgeStyle=orthogonalEdgeStyle;rounded=0;orthogonalLoop=1;jettySize=auto;html=1;" edge="1" parent="0gYCooGfTWZDS5KERVEs-166" source="0gYCooGfTWZDS5KERVEs-124" target="0gYCooGfTWZDS5KERVEs-127">
          <mxGeometry relative="1" as="geometry" />
        </mxCell>
        <mxCell id="0gYCooGfTWZDS5KERVEs-129" value="Manual" style="text;strokeColor=none;fillColor=none;align=left;verticalAlign=top;spacingLeft=4;spacingRight=4;overflow=hidden;rotatable=0;points=[[0,0.5],[1,0.5]];portConstraint=eastwest;" vertex="1" parent="0gYCooGfTWZDS5KERVEs-166">
          <mxGeometry x="390" y="80" width="60" height="26" as="geometry" />
        </mxCell>
        <mxCell id="0gYCooGfTWZDS5KERVEs-130" value="Manual" style="text;strokeColor=none;fillColor=none;align=left;verticalAlign=top;spacingLeft=4;spacingRight=4;overflow=hidden;rotatable=0;points=[[0,0.5],[1,0.5]];portConstraint=eastwest;" vertex="1" parent="0gYCooGfTWZDS5KERVEs-166">
          <mxGeometry x="640" y="80" width="60" height="26" as="geometry" />
        </mxCell>
        <mxCell id="0gYCooGfTWZDS5KERVEs-132" value="Standard protocol" style="text;align=center;verticalAlign=top;spacingLeft=4;spacingRight=4;overflow=hidden;rotatable=0;points=[[0,0.5],[1,0.5]];portConstraint=eastwest;fontSize=20;strokeColor=#000000;rounded=1;fillColor=#DEDEDE;" vertex="1" parent="0gYCooGfTWZDS5KERVEs-166">
          <mxGeometry x="20" y="20" width="180" height="40" as="geometry" />
        </mxCell>
      </root>
    </mxGraphModel>
  </diagram>
</mxfile>
